{
.appVersion = "851";
copyright = "Copyright 2015 The Frank Ruhl Hofshi Project Authors. ";
customParameters = (
{
name = fsType;
value = (
);
}
);
date = "2016-03-01 09:00:07 +0000";
designer = "Yanek Iontef";
designerURL = www.fontef.com;
familyName = "Frank Ruhl Hofshi";
featurePrefixes = (
{
code = "languagesystem DFLT dflt;\012languagesystem latn dflt;\012languagesystem hebr dflt;\012languagesystem latn ROM;\012languagesystem latn MOL;\012";
name = Languagesystems;
}
);
features = (
{
automatic = 1;
code = "feature ccmp;\012feature locl;\012feature sups;\012feature frac;\012feature ordn;\012feature lnum;\012feature pnum;\012feature tnum;\012feature onum;\012feature case;\012feature salt;\012feature ss01;\012feature subs;\012";
name = aalt;
},
{
automatic = 1;
code = "lookup ccmp_latn_1 {\012	script latn;\012	@CombiningTopAccents = [acutecomb brevecomb caroncomb circumflexcomb dieresiscomb dotaccentcomb gravecomb hungarumlautcomb macroncomb ringcomb tildecomb];\012	@CombiningNonTopAccents = [cedillacomb ogonekcomb slashlongcomb strokeshortcomb];\012	sub [i]' @CombiningTopAccents by [idotless];\012	sub [i]' @CombiningNonTopAccents @CombiningTopAccents by [idotless];\012} ccmp_latn_1;\012";
name = ccmp;
},
{
automatic = 1;
code = "script latn;\012language ROM;\012sub Scedilla by Scommaaccent;\012sub scedilla by scommaaccent;\012sub Tcedilla by Tcommaaccent;\012sub tcedilla by tcommaaccent;\012language MOL;\012sub Scedilla by Scommaaccent;\012sub scedilla by scommaaccent;\012sub Tcedilla by Tcommaaccent;\012sub tcedilla by tcommaaccent;\012\012script hebr;\012language IWR;\012sub zero by zero.loclIWR;\012sub one by one.loclIWR;\012sub two by two.loclIWR;\012sub three by three.loclIWR;\012sub four by four.loclIWR;\012sub five by five.loclIWR;\012sub six by six.loclIWR;\012sub seven by seven.loclIWR;\012sub eight by eight.loclIWR;\012sub nine by nine.loclIWR;\012";
name = locl;
},
{
automatic = 1;

glyphs = (
{
glyphname = A;
lastChange = "2015-12-10 09:00:40 +0000";
layers = (
{
anchors = (
{
name = bottom;
position = "{319, 0}";
},
{
name = ogonek;
position = "{561, 10}";
},
{
name = top;
position = "{319, 660}";
}
);
layerId = "A270BFC0-E682-4EED-9FF7-BE35A5492496";
paths = (
{
closed = 1;
nodes = (
"169 0 LINE",
"169 27 LINE",
"140 27 LINE SMOOTH",
"111 27 OFFCURVE",
"108 45 OFFCURVE",
"116 71 CURVE SMOOTH",
"299 564 LINE",
"302 564 LINE",
"482 73 LINE SMOOTH",
"492 45 OFFCURVE",
"486 27 OFFCURVE",
"456 27 CURVE SMOOTH",
"423 27 LINE",
"423 0 LINE",
"627 0 LINE",
"627 27 LINE",
"579 27 OFFCURVE",
"569 35 OFFCURVE",
"554 85 CURVE SMOOTH",
"342 660 LINE",
"302 660 LINE",
"88 93 LINE SMOOTH",
"70 42 OFFCURVE",
"62 27 OFFCURVE",
"9 27 CURVE",
"9 0 LINE"
);
},
{
closed = 1;
nodes = (
"424 254 LINE",
"412 288 LINE",
"190 288 LINE",
"178 254 LINE"
);
}
);
width = 632;
},
{
anchors = (
{
name = bottom;
position = "{337, 0}";
},
{
name = ogonek;
position = "{582, 10}";
},
{
name = top;
position = "{337, 660}";
}
);
layerId = "705D5379-5CC9-457D-BF30-EC6EB9252852";
paths = (
{
closed = 1;
nodes = (
"213 0 LINE",
"213 33 LINE",
"164 33 LINE SMOOTH",
"138 33 OFFCURVE",
"133 47 OFFCURVE",
"140 72 CURVE SMOOTH",
"295 542 LINE",
"298 542 LINE",
"458 75 LINE SMOOTH",
"465 53 OFFCURVE",
"461 33 OFFCURVE",
"433 33 CURVE SMOOTH",
"388 33 LINE",
"388 0 LINE",
"658 0 LINE",
"658 33 LINE",
"607 33 OFFCURVE",
"596 43 OFFCURVE",
"581 83 CURVE SMOOTH",
"379 660 LINE",
"294 660 LINE",
"86 88 LINE SMOOTH",
"71 47 OFFCURVE",
"59 33 OFFCURVE",
"5 33 CURVE",
"5 0 LINE"
);
},
{
closed = 1;
nodes = (
"406 243 LINE",
"394 276 LINE",
"203 276 LINE",
"188 243 LINE"
);
}
);
width = 669;
},
{
anchors = (
{
name = bottom;
position = "{370, 0}";
},
{
name = ogonek;
position = "{684, 10}";
},
{
name = top;
position = "{370, 660}";
}
);
layerId = "C3F6A16D-5E1F-403C-905F-9502D4908E23";
paths = (
{
closed = 1;
nodes = (
"217 0 LINE",
"217 33 LINE",
"179 33 LINE SMOOTH",
"151 33 OFFCURVE",
"143 44 OFFCURVE",
"153 72 CURVE SMOOTH",
"312 502 LINE",
"315 502 LINE",
"473 75 LINE SMOOTH",
"483 47 OFFCURVE",
"477 33 OFFCURVE",
"451 33 CURVE SMOOTH",
"402 33 LINE",
"402 0 LINE",
"722 0 LINE",
"722 33 LINE",
"667 33 OFFCURVE",
"661 37 OFFCURVE",
"644 83 CURVE SMOOTH",
"432 660 LINE",
"329 660 LINE",
"101 88 LINE SMOOTH",
"81 38 OFFCURVE",
"64 33 OFFCURVE",
"9 33 CURVE",
"9 0 LINE"
);
},
{
closed = 1;
nodes = (
"433 228 LINE",
"433 267 LINE",
"191 267 LINE",
"191 228 LINE"
);
}
);
width = 735;
}
);
leftKerningGroup = A;
note = A;
rightKerningGroup = A;
unicode = 0041;
},
{
glyphname = AE;
lastChange = "2015-12-10 09:00:39 +0000";
layers = (
{
anchors = (
{
name = bottom;
position = "{456, 0}";
},
{
name = top;
position = "{456, 660}";
}
);
layerId = "A270BFC0-E682-4EED-9FF7-BE35A5492496";
paths = (
{
closed = 1;
nodes = (
"194 0 LINE",
"194 27 LINE",
"141 27 LINE",
"125 27 OFFCURVE",
"120 44 OFFCURVE",
"127 61 CURVE SMOOTH",
"417 622 LINE",
"423 622 LINE",
"423 91 LINE SMOOTH",
"423 35 OFFCURVE",
"420 27 OFFCURVE",
"347 27 CURVE",
"347 0 LINE",
"820 0 LINE",
"831 165 LINE",
"807 165 LINE",
"784 47 OFFCURVE",
"739 31 OFFCURVE",
"617 31 CURVE SMOOTH",
"522 31 OFFCURVE",
"494 37 OFFCURVE",
"494 119 CURVE SMOOTH",
"494 326 LINE",
"618 326 LINE SMOOTH",
"699 326 OFFCURVE",
"703 303 OFFCURVE",
"711 243 CURVE",
"735 243 LINE",
"735 442 LINE",
"711 442 LINE",
"703 382 OFFCURVE",
"699 360 OFFCURVE",
"618 360 CURVE SMOOTH",
"494 360 LINE",
"494 592 LINE SMOOTH",
"494 623 OFFCURVE",
"499 629 OFFCURVE",
"530 629 CURVE SMOOTH",
"623 629 LINE SMOOTH",
"737 629 OFFCURVE",
"759 605 OFFCURVE",
"772 504 CURVE",
"796 504 LINE",
"796 660 LINE",
"297 660 LINE",
"297 633 LINE",
"354 633 LINE SMOOTH",
"373 632 OFFCURVE",
"377 623 OFFCURVE",
"365 600 CURVE SMOOTH",
"86 73 LINE SMOOTH",
"67 35 OFFCURVE",
"54 27 OFFCURVE",
"9 27 CURVE",
"9 0 LINE"
);
},
{
closed = 1;
nodes = (
"432 326 LINE",
"432 360 LINE",
"267 360 LINE",
"249 326 LINE"
);
}
);
width = 872;
},
{
anchors = (
{
name = bottom;
position = "{475, 0}";
},
{
name = top;
position = "{475, 660}";
}
);
layerId = "705D5379-5CC9-457D-BF30-EC6EB9252852";
paths = (
{
closed = 1;
nodes = (
"227 0 LINE",
"227 33 LINE",
"167 33 LINE SMOOTH",
"142 33 OFFCURVE",
"134 42 OFFCURVE",
"148 71 CURVE SMOOTH",
"417 615 LINE",
"421 615 LINE",
"421 89 LINE SMOOTH",
"421 43 OFFCURVE",
"415 33 OFFCURVE",
"342 33 CURVE",
"342 0 LINE",
"847 0 LINE",
"859 184 LINE",
"834 184 LINE",
"804 78 OFFCURVE",
"778 40 OFFCURVE",
"660 39 CURVE SMOOTH",
"560 38 OFFCURVE",
"539 40 OFFCURVE",
"539 113 CURVE SMOOTH",
"539 323 LINE",
"638 323 LINE SMOOTH",
"709 323 OFFCURVE",
"718 304 OFFCURVE",
"730 240 CURVE",
"755 240 LINE",
"755 452 LINE",
"730 452 LINE",
"718 387 OFFCURVE",
"709 367 OFFCURVE",
"638 367 CURVE SMOOTH",
"539 367 LINE",
"539 587 LINE SMOOTH",
"539 613 OFFCURVE",
"545 621 OFFCURVE",
"577 621 CURVE SMOOTH",
"655 621 LINE SMOOTH",
"759 621 OFFCURVE",
"779 587 OFFCURVE",
"801 493 CURVE",
"827 493 LINE",
"827 660 LINE",
"275 660 LINE",
"275 627 LINE",
"338 627 LINE SMOOTH",
"358 627 OFFCURVE",
"366 608 OFFCURVE",
"353 583 CURVE SMOOTH",
"93 83 LINE SMOOTH",
"74 47 OFFCURVE",
"58 33 OFFCURVE",
"5 33 CURVE",
"5 0 LINE"
);
},
{
closed = 1;
nodes = (
"432 323 LINE",
"432 367 LINE",
"288 367 LINE",
"267 323 LINE"
);
}
);
width = 893;
},
{
anchors = (
{
name = bottom;
position = "{460, 0}";
},
{
name = top;
position = "{460, 660}";
}
);
layerId = "C3F6A16D-5E1F-403C-905F-9502D4908E23";
paths = (
{
closed = 1;
nodes = (
"227 0 LINE",
"227 33 LINE",
"181 33 LINE SMOOTH",
"153 33 OFFCURVE",
"140 44 OFFCURVE",
"155 72 CURVE SMOOTH",
"424 589 LINE",
"429 589 LINE",
"429 89 LINE SMOOTH",
"429 40 OFFCURVE",
"421 33 OFFCURVE",
"360 33 CURVE",
"360 0 LINE",
"889 0 LINE",
"901 174 LINE",
"860 174 LINE",
"836 54 OFFCURVE",
"785 37 OFFCURVE",
"691 37 CURVE SMOOTH",
"606 37 OFFCURVE",
"601 51 OFFCURVE",
"601 103 CURVE SMOOTH",
"601 326 LINE",
"700 326 LINE SMOOTH",
"752 326 OFFCURVE",
"766 308 OFFCURVE",
"774 232 CURVE",
"807 232 LINE",
"807 457 LINE",
"774 457 LINE",
"765 383 OFFCURVE",
"752 365 OFFCURVE",
"700 365 CURVE SMOOTH",
"601 365 LINE",
"601 589 LINE SMOOTH",
"601 614 OFFCURVE",
"611 623 OFFCURVE",
"638 623 CURVE SMOOTH",
"687 623 LINE SMOOTH",
"777 623 OFFCURVE",
"812 605 OFFCURVE",
"838 503 CURVE",
"879 503 LINE",
"879 660 LINE",
"289 660 LINE",
"289 627 LINE",
"333 627 LINE SMOOTH",
"367 627 OFFCURVE",
"376 603 OFFCURVE",
"353 559 CURVE SMOOTH",
"107 88 LINE SMOOTH",
"80 38 OFFCURVE",
"68 33 OFFCURVE",
"9 33 CURVE",
"9 0 LINE"
);
},
{
closed = 1;
nodes = (
"433 320 LINE",
"433 359 LINE",
"256 359 LINE",
"256 320 LINE"
);
}
);
width = 925;
}
);
rightKerningGroup = E;
unicode = 00C6;
},
{
glyphname = B;
lastChange = "2015-12-10 09:00:39 +0000";
layers = (
{
anchors = (
{
name = bottom;
position = "{314, 0}";
},
{
name = top;
position = "{314, 660}";
}
);
layerId = "A270BFC0-E682-4EED-9FF7-BE35A5492496";
paths = (
{
closed = 1;
nodes = (
"299 0 LINE SMOOTH",
"467 0 OFFCURVE",
"558 61 OFFCURVE",
"558 179 CURVE SMOOTH",
"558 283 OFFCURVE",
"485 346 OFFCURVE",
"400 360 CURVE",
"400 362 LINE",
"480 380 OFFCURVE",
"527 438 OFFCURVE",
"527 508 CURVE SMOOTH",
"527 611 OFFCURVE",
"429 660 OFFCURVE",
"279 660 CURVE SMOOTH",
"53 660 LINE",
"53 633 LINE",
"127 633 OFFCURVE",
"129 625 OFFCURVE",
"129 571 CURVE SMOOTH",
"129 89 LINE SMOOTH",
"129 34 OFFCURVE",
"127 27 OFFCURVE",
"53 27 CURVE",
"53 0 LINE"
);
},
{
closed = 1;
nodes = (
"219 30 OFFCURVE",
"204 46 OFFCURVE",
"204 107 CURVE SMOOTH",
"204 340 LINE",
"292 340 LINE SMOOTH",
"417 340 OFFCURVE",
"476 278 OFFCURVE",
"476 180 CURVE SMOOTH",
"476 63 OFFCURVE",
"391 30 OFFCURVE",
"290 30 CURVE SMOOTH"
);
},
{
closed = 1;
nodes = (
"204 579 LINE SMOOTH",
"204 617 OFFCURVE",
"206 629 OFFCURVE",
"273 629 CURVE SMOOTH",
"362 629 OFFCURVE",
"447 608 OFFCURVE",
"447 497 CURVE SMOOTH",
"447 411 OFFCURVE",
"396 372 OFFCURVE",
"288 372 CURVE SMOOTH",
"204 372 LINE"
);
}
);
width = 606;
},
{
anchors = (
{
name = bottom;
position = "{326, 0}";
},
{
name = top;
position = "{326, 660}";
}
);
layerId = "705D5379-5CC9-457D-BF30-EC6EB9252852";
paths = (
{
closed = 1;
nodes = (
"348 0 LINE SMOOTH",
"497 0 OFFCURVE",
"596 43 OFFCURVE",
"596 177 CURVE SMOOTH",
"596 280 OFFCURVE",
"537 338 OFFCURVE",
"432 356 CURVE",
"432 357 LINE",
"517 375 OFFCURVE",
"568 424 OFFCURVE",
"568 508 CURVE SMOOTH",
"568 626 OFFCURVE",
"469 660 OFFCURVE",
"337 660 CURVE SMOOTH",
"44 660 LINE",
"44 628 LINE",
"116 627 OFFCURVE",
"123 618 OFFCURVE",
"123 570 CURVE SMOOTH",
"123 89 LINE SMOOTH",
"123 43 OFFCURVE",
"117 33 OFFCURVE",
"44 33 CURVE",
"44 0 LINE"
);
},
{
closed = 1;
nodes = (
"264 39 OFFCURVE",
"245 57 OFFCURVE",
"245 104 CURVE SMOOTH",
"245 332 LINE",
"303 332 LINE SMOOTH",
"402 332 OFFCURVE",
"461 275 OFFCURVE",
"461 176 CURVE SMOOTH",
"461 88 OFFCURVE",
"415 39 OFFCURVE",
"321 39 CURVE SMOOTH"
);
},
{
closed = 1;
nodes = (
"245 581 LINE SMOOTH",
"245 611 OFFCURVE",
"257 621 OFFCURVE",
"302 621 CURVE SMOOTH",
"398 621 OFFCURVE",
"444 576 OFFCURVE",
"444 499 CURVE SMOOTH",
"444 417 OFFCURVE",
"393 371 OFFCURVE",
"301 371 CURVE SMOOTH",
"245 371 LINE"
);
}
);
width = 639;
},
{
anchors = (
{
name = bottom;
position = "{343, 0}";
},
{
name = top;
position = "{343, 660}";
}
);
layerId = "C3F6A16D-5E1F-403C-905F-9502D4908E23";
paths = (
{
closed = 1;
nodes = (
"367 0 LINE SMOOTH",
"545 0 OFFCURVE",
"635 59 OFFCURVE",
"635 177 CURVE SMOOTH",
"635 276 OFFCURVE",
"574 335 OFFCURVE",
"453 356 CURVE",
"453 357 LINE",
"554 378 OFFCURVE",
"607 429 OFFCURVE",
"607 508 CURVE SMOOTH",
"607 609 OFFCURVE",
"520 660 OFFCURVE",
"356 660 CURVE SMOOTH",
"33 660 LINE",
"33 627 LINE",
"94 627 OFFCURVE",
"102 622 OFFCURVE",
"102 569 CURVE SMOOTH",
"102 89 LINE SMOOTH",
"102 44 OFFCURVE",
"92 33 OFFCURVE",
"33 33 CURVE",
"33 0 LINE"
);
},
{
closed = 1;
nodes = (
"289 38 OFFCURVE",
"274 52 OFFCURVE",
"274 102 CURVE SMOOTH",
"274 332 LINE",
"322 332 LINE SMOOTH",
"411 332 OFFCURVE",
"460 275 OFFCURVE",
"460 176 CURVE SMOOTH",
"460 83 OFFCURVE",
"419 38 OFFCURVE",
"340 38 CURVE SMOOTH"
);
},
{
closed = 1;
nodes = (
"274 582 LINE SMOOTH",
"274 618 OFFCURVE",
"278 622 OFFCURVE",
"321 622 CURVE SMOOTH",
"402 622 OFFCURVE",
"443 582 OFFCURVE",
"443 499 CURVE SMOOTH",
"443 415 OFFCURVE",
"402 371 OFFCURVE",
"320 371 CURVE SMOOTH",
"274 371 LINE"
);
}
);
width = 658;
}
);
leftKerningGroup = E;
note = B;
unicode = 0042;
},
{
glyphname = C;
lastChange = "2015-12-10 09:00:39 +0000";
layers = (
{
anchors = (
{
name = bottom;
position = "{336, 0}";
},
{
name = top;
position = "{336, 660}";
}
);
layerId = "A270BFC0-E682-4EED-9FF7-BE35A5492496";
paths = (
{
closed = 1;
nodes = (
"523 -12 OFFCURVE",
"571 78 OFFCURVE",
"600 142 CURVE",
"575 155 LINE",
"544 89 OFFCURVE",
"503 18 OFFCURVE",
"379 18 CURVE SMOOTH",
"213 18 OFFCURVE",
"145 177 OFFCURVE",
"145 329 CURVE SMOOTH",
"145 458 OFFCURVE",
"195 642 OFFCURVE",
"375 642 CURVE SMOOTH",
"513 642 OFFCURVE",
"552 546 OFFCURVE",
"570 486 CURVE",
"597 486 LINE",
"587 660 LINE",
"560 660 LINE",
"557 649 LINE SMOOTH",
"555 642 OFFCURVE",
"547 635 OFFCURVE",
"534 635 CURVE SMOOTH",
"506 635 OFFCURVE",
"471 672 OFFCURVE",
"370 672 CURVE SMOOTH",
"172 672 OFFCURVE",
"57 535 OFFCURVE",
"57 322 CURVE SMOOTH",
"57 122 OFFCURVE",
"167 -12 OFFCURVE",
"359 -12 CURVE SMOOTH"
);
}
);
width = 649;
},
{
anchors = (
{
name = bottom;
position = "{352, 0}";
},
{
name = top;
position = "{363, 660}";
}
);
layerId = "705D5379-5CC9-457D-BF30-EC6EB9252852";
paths = (
{
closed = 1;
nodes = (
"540 -12 OFFCURVE",
"600 100 OFFCURVE",
"615 157 CURVE",
"588 171 LINE",
"570 121 OFFCURVE",
"529 29 OFFCURVE",
"386 29 CURVE SMOOTH",
"234 29 OFFCURVE",
"184 179 OFFCURVE",
"184 335 CURVE SMOOTH",
"184 436 OFFCURVE",
"214 632 OFFCURVE",
"391 632 CURVE SMOOTH",
"517 632 OFFCURVE",
"567 545 OFFCURVE",
"582 471 CURVE",
"607 471 LINE",
"597 660 LINE",
"572 660 LINE",
"567 649 LINE SMOOTH",
"563 642 OFFCURVE",
"558 635 OFFCURVE",
"543 635 CURVE SMOOTH",
"520 635 OFFCURVE",
"470 672 OFFCURVE",
"382 672 CURVE SMOOTH",
"168 672 OFFCURVE",
"47 548 OFFCURVE",
"47 322 CURVE SMOOTH",
"47 109 OFFCURVE",
"159 -12 OFFCURVE",
"379 -12 CURVE SMOOTH"
);
}
);
width = 654;
},
{
anchors = (
{
name = bottom;
position = "{337, 0}";
},
{
name = top;
position = "{337, 660}";
}
);
layerId = "C3F6A16D-5E1F-403C-905F-9502D4908E23";
paths = (
{
closed = 1;
nodes = (
"539 -12 OFFCURVE",
"609 60 OFFCURVE",
"645 159 CURVE",
"615 171 LINE",
"585 85 OFFCURVE",
"515 21 OFFCURVE",
"414 21 CURVE SMOOTH",
"279 21 OFFCURVE",
"215 145 OFFCURVE",
"215 326 CURVE SMOOTH",
"215 437 OFFCURVE",
"239 639 OFFCURVE",
"412 639 CURVE SMOOTH",
"510 639 OFFCURVE",
"579 574 OFFCURVE",
"598 471 CURVE",
"636 471 LINE",
"626 660 LINE",
"597 660 LINE",
"594 651 LINE SMOOTH",
"590 640 OFFCURVE",
"578 635 OFFCURVE",
"567 635 CURVE SMOOTH",
"537 635 OFFCURVE",
"504 672 OFFCURVE",
"386 672 CURVE SMOOTH",
"169 672 OFFCURVE",
"34 546 OFFCURVE",
"34 323 CURVE SMOOTH",
"34 100 OFFCURVE",
"172 -12 OFFCURVE",
"378 -12 CURVE SMOOTH"
);
}
);
width = 672;
}
);
leftKerningGroup = O;
note = C;
rightKerningGroup = C;
unicode = 0043;
},
{
glyphname = D;
lastChange = "2015-12-10 09:00:39 +0000";
layers = (
{
anchors = (
{
name = bottom;
position = "{355, 0}";
},
{
name = center;
position = "{355, 330}";
},
{
name = top;
position = "{355, 660}";
}
);
layerId = "A270BFC0-E682-4EED-9FF7-BE35A5492496";
paths = (
{
closed = 1;
nodes = (
"320 0 LINE SMOOTH",
"528 0 OFFCURVE",
"656 125 OFFCURVE",
"656 342 CURVE SMOOTH",
"656 543 OFFCURVE",
"537 658 OFFCURVE",
"339 660 CURVE",
"53 660 LINE",
"53 633 LINE",
"127 633 OFFCURVE",
"129 625 OFFCURVE",
"129 571 CURVE SMOOTH",
"129 89 LINE SMOOTH",
"129 34 OFFCURVE",
"127 27 OFFCURVE",
"53 27 CURVE",
"53 0 LINE"
);
},
{
closed = 1;
nodes = (
"234 30 OFFCURVE",
"203 41 OFFCURVE",
"203 119 CURVE SMOOTH",
"203 572 LINE SMOOTH",
"203 624 OFFCURVE",
"211 629 OFFCURVE",
"313 629 CURVE SMOOTH",
"502 625 OFFCURVE",
"568 500 OFFCURVE",
"568 338 CURVE SMOOTH",
"568 95 OFFCURVE",
"442 30 OFFCURVE",
"302 30 CURVE SMOOTH"
);
}
);
width = 713;
},
{
anchors = (
{
name = bottom;
position = "{376, 0}";
},
{
name = center;
position = "{376, 330}";
},
{
name = top;
position = "{343, 660}";
}
);
layerId = "705D5379-5CC9-457D-BF30-EC6EB9252852";
paths = (
{
closed = 1;
nodes = (
"327 0 LINE SMOOTH",
"567 0 OFFCURVE",
"697 95 OFFCURVE",
"697 339 CURVE SMOOTH",
"697 561 OFFCURVE",
"582 658 OFFCURVE",
"360 660 CURVE SMOOTH",
"44 660 LINE",
"44 627 LINE",
"116 627 OFFCURVE",
"123 619 OFFCURVE",
"123 570 CURVE SMOOTH",
"123 89 LINE SMOOTH",
"123 43 OFFCURVE",
"117 33 OFFCURVE",
"44 33 CURVE",
"44 0 LINE"
);
},
{
closed = 1;
nodes = (
"263 39 OFFCURVE",
"245 51 OFFCURVE",
"245 96 CURVE SMOOTH",
"245 585 LINE SMOOTH",
"245 615 OFFCURVE",
"267 621 OFFCURVE",
"338 621 CURVE SMOOTH",
"486 621 OFFCURVE",
"559 526 OFFCURVE",
"559 336 CURVE SMOOTH",
"559 132 OFFCURVE",
"489 39 OFFCURVE",
"332 39 CURVE SMOOTH"
);
}
);
width = 744;
},
{
anchors = (
{
name = bottom;
position = "{386, 0}";
},
{
name = center;
position = "{386, 330}";
},
{
name = top;
position = "{386, 660}";
}
);
layerId = "C3F6A16D-5E1F-403C-905F-9502D4908E23";
paths = (
{
closed = 1;
nodes = (
"336 0 LINE SMOOTH",
"583 0 OFFCURVE",
"726 94 OFFCURVE",
"726 339 CURVE SMOOTH",
"726 561 OFFCURVE",
"600 658 OFFCURVE",
"369 660 CURVE SMOOTH",
"33 660 LINE",
"33 627 LINE",
"105 627 OFFCURVE",
"112 620 OFFCURVE",
"112 570 CURVE SMOOTH",
"112 89 LINE SMOOTH",
"112 39 OFFCURVE",
"111 33 OFFCURVE",
"33 33 CURVE",
"33 0 LINE"
);
},
{
closed = 1;
nodes = (
"300 37 OFFCURVE",
"284 43 OFFCURVE",
"284 96 CURVE SMOOTH",
"284 585 LINE SMOOTH",
"284 622 OFFCURVE",
"304 623 OFFCURVE",
"347 623 CURVE SMOOTH",
"478 623 OFFCURVE",
"545 527 OFFCURVE",
"545 336 CURVE SMOOTH",
"545 130 OFFCURVE",
"481 37 OFFCURVE",
"341 37 CURVE SMOOTH"
);
}
);
width = 760;
}
);
leftKerningGroup = E;
note = D;
rightKerningGroup = D;
unicode = 0044;
},
{
glyphname = Eth;
lastChange = "2015-12-10 09:00:40 +0000";
layers = (
{
components = (
{
name = D;
transform = "{1, 0, 0, 1, 5, 0}";
}
);
layerId = "A270BFC0-E682-4EED-9FF7-BE35A5492496";
paths = (
{
closed = 1;
nodes = (
"418 315 LINE",
"418 351 LINE",
"53 351 LINE",
"53 315 LINE"
);
}
);
width = 718;
},
{
components = (
{
name = D;
}
);
layerId = "705D5379-5CC9-457D-BF30-EC6EB9252852";
paths = (
{
closed = 1;
nodes = (
"413 313 LINE",
"413 353 LINE",
"48 353 LINE",
"48 313 LINE"
);
}
);
width = 744;
},
{
components = (
{
name = D;
transform = "{1, 0, 0, 1, 19, 0}";
}
);
layerId = "C3F6A16D-5E1F-403C-905F-9502D4908E23";
paths = (
{
closed = 1;
nodes = (
"432 306 LINE",
"432 366 LINE",
"33 366 LINE",
"33 306 LINE"
);
}
);
width = 779;
}
);
leftKerningGroup = E;
note = Eth;
rightKerningGroup = D;
unicode = 00D0;
},
{
glyphname = E;
lastChange = "2015-12-10 09:00:39 +0000";
layers = (
{
anchors = (
{
name = bottom;
position = "{301, 0}";
},
{
name = ogonek;
position = "{538, 10}";
},
{
name = top;
position = "{301, 660}";
},
{
name = topleft;
position = "{25, 660}";
}
);
layerId = "A270BFC0-E682-4EED-9FF7-BE35A5492496";
paths = (
{
closed = 1;
nodes = (
"528 0 LINE",
"539 165 LINE",
"512 165 LINE",
"490 46 OFFCURVE",
"449 30 OFFCURVE",
"326 30 CURVE SMOOTH",
"224 30 OFFCURVE",
"203 42 OFFCURVE",
"203 114 CURVE SMOOTH",
"203 326 LINE",
"325 326 LINE SMOOTH",
"406 326 OFFCURVE",
"410 303 OFFCURVE",
"419 243 CURVE",
"443 243 LINE",
"443 442 LINE",
"419 442 LINE",
"410 382 OFFCURVE",
"406 360 OFFCURVE",
"325 360 CURVE SMOOTH",
"203 360 LINE",
"203 592 LINE SMOOTH",
"203 625 OFFCURVE",
"207 629 OFFCURVE",
"238 629 CURVE SMOOTH",
"331 629 LINE SMOOTH",
"444 629 OFFCURVE",
"463 605 OFFCURVE",
"477 504 CURVE",
"504 504 LINE",
"504 660 LINE",
"53 660 LINE",
"53 633 LINE",
"127 633 OFFCURVE",
"129 625 OFFCURVE",
"129 571 CURVE SMOOTH",
"129 89 LINE SMOOTH",
"129 34 OFFCURVE",
"127 27 OFFCURVE",
"53 27 CURVE",
"53 0 LINE"
);
}
);
width = 580;
},
{
anchors = (
{
name = bottom;
position = "{302, 0}";
},
{
name = ogonek;
position = "{549, 10}";
},
{
name = top;
position = "{302, 660}";
},
{
name = topleft;
position = "{28, 660}";
}
);
layerId = "705D5379-5CC9-457D-BF30-EC6EB9252852";
paths = (
{
closed = 1;
nodes = (
"553 0 LINE",
"565 184 LINE",
"540 184 LINE",
"511 79 OFFCURVE",
"482 39 OFFCURVE",
"366 39 CURVE SMOOTH",
"254 39 OFFCURVE",
"245 50 OFFCURVE",
"245 105 CURVE SMOOTH",
"245 323 LINE",
"344 323 LINE SMOOTH",
"415 323 OFFCURVE",
"424 304 OFFCURVE",
"436 240 CURVE",
"461 240 LINE",
"461 452 LINE",
"436 452 LINE",
"424 387 OFFCURVE",
"415 367 OFFCURVE",
"344 367 CURVE SMOOTH",
"245 367 LINE",
"245 587 LINE SMOOTH",
"245 613 OFFCURVE",
"251 621 OFFCURVE",
"283 621 CURVE SMOOTH",
"361 621 LINE SMOOTH",
"465 621 OFFCURVE",
"485 587 OFFCURVE",
"507 493 CURVE",
"533 493 LINE",
"533 660 LINE",
"44 660 LINE",
"44 627 LINE",
"116 627 OFFCURVE",
"123 619 OFFCURVE",
"123 570 CURVE SMOOTH",
"123 89 LINE SMOOTH",
"123 43 OFFCURVE",
"117 33 OFFCURVE",
"44 33 CURVE",
"44 0 LINE"
);
}
);
width = 599;
},
{
anchors = (
{
name = bottom;
position = "{324, 0}";
},
{
name = ogonek;
position = "{577, 10}";
},
{
name = top;
position = "{324, 660}";
},
{
name = topleft;
position = "{27, 660}";
}
);
layerId = "C3F6A16D-5E1F-403C-905F-9502D4908E23";
paths = (
{
closed = 1;
nodes = (
"582 0 LINE",
"594 174 LINE",
"553 174 LINE",
"531 60 OFFCURVE",
"470 37 OFFCURVE",
"375 37 CURVE SMOOTH",
"279 37 OFFCURVE",
"274 47 OFFCURVE",
"274 103 CURVE SMOOTH",
"274 323 LINE",
"393 323 LINE SMOOTH",
"445 323 OFFCURVE",
"459 308 OFFCURVE",
"467 230 CURVE",
"500 230 LINE",
"500 459 LINE",
"467 459 LINE",
"458 383 OFFCURVE",
"445 367 OFFCURVE",
"393 367 CURVE SMOOTH",
"274 367 LINE",
"274 589 LINE SMOOTH",
"274 614 OFFCURVE",
"284 623 OFFCURVE",
"311 623 CURVE SMOOTH",
"380 623 LINE SMOOTH",
"470 623 OFFCURVE",
"505 605 OFFCURVE",
"531 503 CURVE",
"572 503 LINE",
"572 660 LINE",
"33 660 LINE",
"33 627 LINE",
"94 627 OFFCURVE",
"102 620 OFFCURVE",
"102 570 CURVE SMOOTH",
"102 89 LINE SMOOTH",
"102 40 OFFCURVE",
"94 33 OFFCURVE",
"33 33 CURVE",
"33 0 LINE"
);
}
);
width = 619;
}
);
leftKerningGroup = E;
note = E;
rightKerningGroup = E;
unicode = 0045;
},
{
glyphname = F;
lastChange = "2015-12-10 09:00:39 +0000";
layers = (
{
anchors = (
{
name = bottom;
position = "{268, 0}";
},
{
name = top;
position = "{268, 660}";
}
);
layerId = "A270BFC0-E682-4EED-9FF7-BE35A5492496";
paths = (
{
closed = 1;
nodes = (
"295 0 LINE",
"295 27 LINE",
"207 27 OFFCURVE",
"204 35 OFFCURVE",
"204 89 CURVE SMOOTH",
"204 310 LINE",
"327 310 LINE SMOOTH",
"408 310 OFFCURVE",
"412 287 OFFCURVE",
"421 226 CURVE",
"444 226 LINE",
"444 430 LINE",
"421 430 LINE",
"412 369 OFFCURVE",
"408 346 OFFCURVE",
"327 346 CURVE SMOOTH",
"204 346 LINE",
"204 592 LINE SMOOTH",
"204 626 OFFCURVE",
"208 629 OFFCURVE",
"239 629 CURVE SMOOTH",
"333 629 LINE SMOOTH",
"448 629 OFFCURVE",
"468 607 OFFCURVE",
"481 508 CURVE",
"508 508 LINE",
"508 660 LINE",
"53 660 LINE",
"53 633 LINE",
"127 633 OFFCURVE",
"129 625 OFFCURVE",
"129 571 CURVE SMOOTH",
"129 89 LINE SMOOTH",
"129 35 OFFCURVE",
"127 27 OFFCURVE",
"53 27 CURVE",
"53 0 LINE"
);
}
);
width = 541;
},
{
anchors = (
{
name = bottom;
position = "{286, 0}";
},
{
name = top;
position = "{286, 660}";
}
);
layerId = "705D5379-5CC9-457D-BF30-EC6EB9252852";
paths = (
{
closed = 1;
nodes = (
"339 0 LINE",
"339 33 LINE",
"254 33 OFFCURVE",
"245 42 OFFCURVE",
"245 90 CURVE SMOOTH",
"245 307 LINE",
"355 307 LINE SMOOTH",
"427 307 OFFCURVE",
"436 288 OFFCURVE",
"449 223 CURVE",
"473 223 LINE",
"473 436 LINE",
"449 436 LINE",
"436 371 OFFCURVE",
"427 351 OFFCURVE",
"355 351 CURVE SMOOTH",
"245 351 LINE",
"245 587 LINE SMOOTH",
"245 614 OFFCURVE",
"253 621 OFFCURVE",
"283 621 CURVE SMOOTH",
"357 621 LINE SMOOTH",
"461 621 OFFCURVE",
"481 587 OFFCURVE",
"505 494 CURVE",
"530 494 LINE",
"530 660 LINE",
"44 660 LINE",
"44 627 LINE",
"116 627 OFFCURVE",
"123 618 OFFCURVE",
"123 570 CURVE SMOOTH",
"123 89 LINE SMOOTH",
"123 43 OFFCURVE",
"117 33 OFFCURVE",
"44 33 CURVE",
"44 0 LINE"
);
}
);
width = 560;
},
{
anchors = (
{
name = bottom;
position = "{294, 0}";
},
{
name = top;
position = "{294, 660}";
}
);
layerId = "C3F6A16D-5E1F-403C-905F-9502D4908E23";
paths = (
{
closed = 1;
nodes = (
"343 0 LINE",
"343 33 LINE",
"281 33 OFFCURVE",
"274 43 OFFCURVE",
"274 89 CURVE SMOOTH",
"274 313 LINE",
"378 313 LINE SMOOTH",
"430 313 OFFCURVE",
"444 298 OFFCURVE",
"452 220 CURVE",
"485 220 LINE",
"485 449 LINE",
"452 449 LINE",
"443 373 OFFCURVE",
"430 357 OFFCURVE",
"378 357 CURVE SMOOTH",
"274 357 LINE",
"274 589 LINE SMOOTH",
"274 614 OFFCURVE",
"284 623 OFFCURVE",
"311 623 CURVE SMOOTH",
"360 623 LINE SMOOTH",
"450 623 OFFCURVE",
"485 605 OFFCURVE",
"511 503 CURVE",
"552 503 LINE",
"552 660 LINE",
"33 660 LINE",
"33 627 LINE",
"94 627 OFFCURVE",
"102 620 OFFCURVE",
"102 570 CURVE SMOOTH",
"102 89 LINE SMOOTH",
"102 40 OFFCURVE",
"94 33 OFFCURVE",
"33 33 CURVE",
"33 0 LINE"
);
}
);
width = 575;
}
);
leftKerningGroup = E;
note = F;
unicode = 0046;
},
{
glyphname = G;
lastChange = "2015-12-10 14:45:28 +0000";
layers = (
{
anchors = (
{
name = bottom;
position = "{334, 0}";
},
{
name = top;
position = "{334, 660}";
}
);
layerId = "A270BFC0-E682-4EED-9FF7-BE35A5492496";
paths = (
{
closed = 1;
nodes = (
"446 -12 OFFCURVE",
"510 21 OFFCURVE",
"545 21 CURVE SMOOTH",
"563 21 OFFCURVE",
"571 12 OFFCURVE",
"577 -3 CURVE",
"593 -3 LINE",
"593 241 LINE SMOOTH",
"593 266 OFFCURVE",
"608 274 OFFCURVE",
"628 274 CURVE SMOOTH",
"639 274 LINE",
"639 301 LINE",
"455 301 LINE",
"455 274 LINE",
"471 274 LINE SMOOTH",
"503 274 OFFCURVE",
"519 259 OFFCURVE",
"519 230 CURVE SMOOTH",
"519 116 LINE SMOOTH",
"519 35 OFFCURVE",
"447 18 OFFCURVE",
"388 18 CURVE SMOOTH",
"209 18 OFFCURVE",
"145 177 OFFCURVE",
"145 326 CURVE SMOOTH",
"145 461 OFFCURVE",
"197 642 OFFCURVE",
"376 642 CURVE SMOOTH",
"506 642 OFFCURVE",
"552 546 OFFCURVE",
"570 486 CURVE",
"597 486 LINE",
"587 660 LINE",
"565 660 LINE",
"560 649 LINE SMOOTH",
"557 641 OFFCURVE",
"548 635 OFFCURVE",
"535 635 CURVE SMOOTH",
"503 635 OFFCURVE",
"471 672 OFFCURVE",
"369 672 CURVE SMOOTH",
"172 672 OFFCURVE",
"57 533 OFFCURVE",
"57 326 CURVE SMOOTH",
"57 124 OFFCURVE",
"167 -12 OFFCURVE",
"354 -12 CURVE SMOOTH"
);
}
);
width = 650;
},
{
anchors = (
{
name = bottom;
position = "{346, 0}";
},
{
name = top;
position = "{346, 660}";
}
);
layerId = "705D5379-5CC9-457D-BF30-EC6EB9252852";
paths = (
{
closed = 1;
nodes = (
"490 -12 OFFCURVE",
"518 30 OFFCURVE",
"554 30 CURVE SMOOTH",
"571 30 OFFCURVE",
"582 20 OFFCURVE",
"587 0 CURVE",
"613 0 LINE",
"613 211 LINE SMOOTH",
"613 253 OFFCURVE",
"618 269 OFFCURVE",
"653 269 CURVE SMOOTH",
"672 269 LINE",
"672 300 LINE",
"403 300 LINE",
"403 269 LINE",
"421 269 LINE SMOOTH",
"481 269 OFFCURVE",
"491 255 OFFCURVE",
"491 211 CURVE SMOOTH",
"491 50 LINE",
"465 38 OFFCURVE",
"427 29 OFFCURVE",
"391 29 CURVE SMOOTH",
"246 29 OFFCURVE",
"184 179 OFFCURVE",
"184 331 CURVE SMOOTH",
"184 435 OFFCURVE",
"213 632 OFFCURVE",
"394 632 CURVE SMOOTH",
"516 632 OFFCURVE",
"568 542 OFFCURVE",
"582 469 CURVE",
"607 469 LINE",
"597 660 LINE",
"572 660 LINE",
"567 649 LINE SMOOTH",
"564 642 OFFCURVE",
"559 635 OFFCURVE",
"545 635 CURVE SMOOTH",
"514 635 OFFCURVE",
"480 672 OFFCURVE",
"374 672 CURVE SMOOTH",
"170 672 OFFCURVE",
"47 536 OFFCURVE",
"47 320 CURVE SMOOTH",
"47 109 OFFCURVE",
"165 -12 OFFCURVE",
"370 -12 CURVE SMOOTH"
);
}
);
width = 687;
},
{
anchors = (
{
name = bottom;
position = "{366, 0}";
},
{
name = top;
position = "{366, 660}";
}
);
layerId = "C3F6A16D-5E1F-403C-905F-9502D4908E23";
paths = (
{
closed = 1;
nodes = (
"497 -12 OFFCURVE",
"563 18 OFFCURVE",
"588 18 CURVE SMOOTH",
"611 18 OFFCURVE",
"619 11 OFFCURVE",
"627 0 CURVE",
"660 0 LINE",
"660 208 LINE SMOOTH",
"660 256 OFFCURVE",
"679 266 OFFCURVE",
"704 266 CURVE SMOOTH",
"722 266 LINE",
"722 299 LINE",
"432 299 LINE",
"432 266 LINE",
"447 266 LINE SMOOTH",
"480 266 OFFCURVE",
"493 261 OFFCURVE",
"493 208 CURVE SMOOTH",
"493 42 LINE",
"475 33 OFFCURVE",
"455 21 OFFCURVE",
"414 21 CURVE SMOOTH",
"278 21 OFFCURVE",
"215 145 OFFCURVE",
"215 326 CURVE SMOOTH",
"215 437 OFFCURVE",
"239 639 OFFCURVE",
"412 639 CURVE SMOOTH",
"510 639 OFFCURVE",
"579 574 OFFCURVE",
"598 471 CURVE",
"636 471 LINE",
"630 660 LINE",
"597 660 LINE",
"594 651 LINE SMOOTH",
"590 640 OFFCURVE",
"578 635 OFFCURVE",
"567 635 CURVE SMOOTH",
"537 635 OFFCURVE",
"504 672 OFFCURVE",
"386 672 CURVE SMOOTH",
"169 672 OFFCURVE",
"34 546 OFFCURVE",
"34 323 CURVE SMOOTH",
"34 100 OFFCURVE",
"172 -12 OFFCURVE",
"378 -12 CURVE SMOOTH"
);
}
);
width = 737;
}
);
leftKerningGroup = O;
note = G;
rightKerningGroup = G;
unicode = 0047;
},
{
glyphname = H;
lastChange = "2015-12-10 09:00:40 +0000";
layers = (
{
anchors = (
{
name = bottom;
position = "{370, 0}";
},
{
name = center;
position = "{370, 330}";
},
{
name = top;
position = "{370, 660}";
},
{
name = topleft;
position = "{28, 660}";
}
);
layerId = "A270BFC0-E682-4EED-9FF7-BE35A5492496";
paths = (
{
closed = 1;
nodes = (
"279 0 LINE",
"279 27 LINE",
"206 27 OFFCURVE",
"203 34 OFFCURVE",
"203 83 CURVE SMOOTH",
"203 325 LINE",
"547 325 LINE",
"547 83 LINE SMOOTH",
"547 34 OFFCURVE",
"545 27 OFFCURVE",
"471 27 CURVE",
"471 0 LINE",
"697 0 LINE",
"697 27 LINE",
"624 27 OFFCURVE",
"621 34 OFFCURVE",
"621 83 CURVE SMOOTH",
"621 577 LINE SMOOTH",
"621 623 OFFCURVE",
"624 632 OFFCURVE",
"697 633 CURVE",
"697 660 LINE",
"471 660 LINE",
"471 633 LINE",
"545 633 OFFCURVE",
"547 623 OFFCURVE",
"547 577 CURVE SMOOTH",
"547 361 LINE",
"203 361 LINE",
"203 577 LINE SMOOTH",
"203 623 OFFCURVE",
"206 633 OFFCURVE",
"279 633 CURVE",
"279 660 LINE",
"53 660 LINE",
"53 633 LINE",
"127 632 OFFCURVE",
"129 623 OFFCURVE",
"129 577 CURVE SMOOTH",
"129 83 LINE SMOOTH",
"129 34 OFFCURVE",
"127 27 OFFCURVE",
"53 27 CURVE",
"53 0 LINE"
);
}
);
width = 750;
},
{
anchors = (
{
name = bottom;
position = "{388, 0}";
},
{
name = center;
position = "{388, 330}";
},
{
name = top;
position = "{388, 660}";
},
{
name = topleft;
position = "{28, 660}";
}
);
layerId = "705D5379-5CC9-457D-BF30-EC6EB9252852";
paths = (
{
closed = 1;
nodes = (
"323 0 LINE",
"323 33 LINE",
"252 33 OFFCURVE",
"245 42 OFFCURVE",
"245 89 CURVE SMOOTH",
"245 324 LINE",
"530 324 LINE",
"530 89 LINE SMOOTH",
"530 43 OFFCURVE",
"525 33 OFFCURVE",
"452 33 CURVE",
"452 0 LINE",
"731 0 LINE",
"731 33 LINE",
"661 33 OFFCURVE",
"653 42 OFFCURVE",
"653 89 CURVE SMOOTH",
"653 569 LINE SMOOTH",
"653 617 OFFCURVE",
"659 627 OFFCURVE",
"731 627 CURVE",
"731 660 LINE",
"452 660 LINE",
"452 627 LINE",
"523 627 OFFCURVE",
"530 618 OFFCURVE",
"530 569 CURVE SMOOTH",
"530 366 LINE",
"245 366 LINE",
"245 569 LINE SMOOTH",
"245 617 OFFCURVE",
"250 627 OFFCURVE",
"323 627 CURVE",
"323 660 LINE",
"44 660 LINE",
"44 627 LINE",
"116 627 OFFCURVE",
"123 618 OFFCURVE",
"123 569 CURVE SMOOTH",
"123 89 LINE SMOOTH",
"123 43 OFFCURVE",
"117 33 OFFCURVE",
"44 33 CURVE",
"44 0 LINE"
);
}
);
width = 775;
},
{
anchors = (
{
name = bottom;
position = "{396, 0}";
},
{
name = center;
position = "{396, 330}";
},
{
name = top;
position = "{396, 660}";
},
{
name = topleft;
position = "{27, 660}";
}
);
layerId = "C3F6A16D-5E1F-403C-905F-9502D4908E23";
paths = (
{
closed = 1;
nodes = (
"341 0 LINE",
"341 33 LINE",
"275 33 OFFCURVE",
"273 42 OFFCURVE",
"273 89 CURVE SMOOTH",
"273 326 LINE",
"519 326 LINE",
"519 89 LINE SMOOTH",
"519 43 OFFCURVE",
"520 33 OFFCURVE",
"451 33 CURVE",
"451 0 LINE",
"758 0 LINE",
"758 33 LINE",
"693 33 OFFCURVE",
"691 42 OFFCURVE",
"691 89 CURVE SMOOTH",
"691 569 LINE SMOOTH",
"691 616 OFFCURVE",
"690 627 OFFCURVE",
"758 627 CURVE",
"758 660 LINE",
"451 660 LINE",
"451 627 LINE",
"518 627 OFFCURVE",
"519 618 OFFCURVE",
"519 569 CURVE SMOOTH",
"519 365 LINE",
"273 365 LINE",
"273 569 LINE SMOOTH",
"273 617 OFFCURVE",
"273 627 OFFCURVE",
"341 627 CURVE",
"341 660 LINE",
"33 660 LINE",
"33 627 LINE",
"100 627 OFFCURVE",
"101 618 OFFCURVE",
"101 569 CURVE SMOOTH",
"101 89 LINE SMOOTH",
"101 44 OFFCURVE",
"102 33 OFFCURVE",
"33 33 CURVE",
"33 0 LINE"
);
}
);
width = 791;
}
);
leftKerningGroup = E;
note = H;
rightKerningGroup = H;
unicode = 0048;
},
{
glyphname = I;
lastChange = "2015-12-10 09:00:40 +0000";
layers = (
{
anchors = (
{
name = bottom;
position = "{166, 0}";
},
{
name = ogonek;
position = "{283, 10}";
},
{
name = top;
position = "{166, 660}";
},
{
name = topleft;
position = "{40, 660}";
}
);
layerId = "A270BFC0-E682-4EED-9FF7-BE35A5492496";
paths = (
{
closed = 1;
nodes = (
"279 0 LINE",
"279 27 LINE",
"206 27 OFFCURVE",
"203 35 OFFCURVE",
"203 89 CURVE SMOOTH",
"203 571 LINE SMOOTH",
"203 625 OFFCURVE",
"206 633 OFFCURVE",
"279 633 CURVE",
"279 660 LINE",
"53 660 LINE",
"53 633 LINE",
"127 633 OFFCURVE",
"129 625 OFFCURVE",
"129 571 CURVE SMOOTH",
"129 89 LINE SMOOTH",
"129 35 OFFCURVE",
"127 27 OFFCURVE",
"53 27 CURVE",
"53 0 LINE"
);
}
);
width = 331;
},
{
anchors = (
{
name = bottom;
position = "{184, 0}";
},
{
name = ogonek;
position = "{318, 10}";
},
{
name = top;
position = "{184, 660}";
},
{
name = topleft;
position = "{27, 660}";
}
);
layerId = "705D5379-5CC9-457D-BF30-EC6EB9252852";
paths = (
{
closed = 1;
nodes = (
"323 0 LINE",
"323 33 LINE",
"253 33 OFFCURVE",
"245 42 OFFCURVE",
"245 89 CURVE SMOOTH",
"245 569 LINE SMOOTH",
"245 617 OFFCURVE",
"251 627 OFFCURVE",
"323 627 CURVE",
"323 660 LINE",
"44 660 LINE",
"44 627 LINE",
"116 627 OFFCURVE",
"123 618 OFFCURVE",
"123 569 CURVE SMOOTH",
"123 89 LINE SMOOTH",
"123 43 OFFCURVE",
"117 33 OFFCURVE",
"44 33 CURVE",
"44 0 LINE"
);
}
);
width = 367;
},
{
anchors = (
{
name = bottom;
position = "{188, 0}";
},
{
name = ogonek;
position = "{341, 10}";
},
{
name = top;
position = "{188, 660}";
},
{
name = topleft;
position = "{16, 660}";
}
);
layerId = "C3F6A16D-5E1F-403C-905F-9502D4908E23";
paths = (
{
closed = 1;
nodes = (
"342 0 LINE",
"342 33 LINE",
"281 33 OFFCURVE",
"274 37 OFFCURVE",
"274 89 CURVE SMOOTH",
"274 569 LINE SMOOTH",
"274 620 OFFCURVE",
"281 627 OFFCURVE",
"342 627 CURVE",
"342 660 LINE",
"33 660 LINE",
"33 627 LINE",
"93 627 OFFCURVE",
"102 620 OFFCURVE",
"102 569 CURVE SMOOTH",
"102 89 LINE SMOOTH",
"102 40 OFFCURVE",
"98 33 OFFCURVE",
"33 33 CURVE",
"33 0 LINE"
);
}
);
width = 375;
}
);
leftKerningGroup = E;
note = I;
rightKerningGroup = H;
unicode = 0049;
},
{
glyphname = J;
lastChange = "2015-12-10 09:00:40 +0000";
layers = (
{
anchors = (
{
name = bottom;
position = "{201, 0}";
},
{
name = top;
position = "{201, 660}";
}
);
layerId = "A270BFC0-E682-4EED-9FF7-BE35A5492496";
paths = (
{
closed = 1;
nodes = (
"219 -210 OFFCURVE",
"243 -72 OFFCURVE",
"243 65 CURVE SMOOTH",
"243 571 LINE SMOOTH",
"243 625 OFFCURVE",
"246 633 OFFCURVE",
"319 633 CURVE",
"319 660 LINE",
"93 660 LINE",
"93 633 LINE",
"167 633 OFFCURVE",
"169 625 OFFCURVE",
"169 571 CURVE SMOOTH",
"169 -6 LINE SMOOTH",
"169 -105 OFFCURVE",
"151 -183 OFFCURVE",
"82 -183 CURVE SMOOTH",
"59 -183 OFFCURVE",
"46 -173 OFFCURVE",
"46 -156 CURVE SMOOTH",
"46 -136 OFFCURVE",
"68 -139 OFFCURVE",
"68 -105 CURVE SMOOTH",
"68 -73 OFFCURVE",
"46 -60 OFFCURVE",
"19 -60 CURVE SMOOTH",
"-19 -60 OFFCURVE",
"-36 -87 OFFCURVE",
"-36 -119 CURVE SMOOTH",
"-36 -170 OFFCURVE",
"16 -210 OFFCURVE",
"86 -210 CURVE SMOOTH"
);
}
);
width = 356;
},
{
anchors = (
{
name = bottom;
position = "{234, 0}";
},
{
name = top;
position = "{234, 660}";
}
);
layerId = "705D5379-5CC9-457D-BF30-EC6EB9252852";
paths = (
{
closed = 1;
nodes = (
"254 -210 OFFCURVE",
"303 -101 OFFCURVE",
"303 103 CURVE SMOOTH",
"303 569 LINE SMOOTH",
"303 617 OFFCURVE",
"308 627 OFFCURVE",
"382 627 CURVE",
"382 660 LINE",
"103 660 LINE",
"103 627 LINE",
"174 627 OFFCURVE",
"181 618 OFFCURVE",
"181 569 CURVE SMOOTH",
"181 -6 LINE SMOOTH",
"181 -109 OFFCURVE",
"169 -168 OFFCURVE",
"93 -168 CURVE SMOOTH",
"83 -168 OFFCURVE",
"69 -163 OFFCURVE",
"69 -157 CURVE SMOOTH",
"69 -146 OFFCURVE",
"80 -141 OFFCURVE",
"80 -113 CURVE SMOOTH",
"80 -79 OFFCURVE",
"50 -57 OFFCURVE",
"22 -57 CURVE SMOOTH",
"-15 -57 OFFCURVE",
"-43 -78 OFFCURVE",
"-43 -130 CURVE SMOOTH",
"-43 -171 OFFCURVE",
"-3 -210 OFFCURVE",
"63 -210 CURVE SMOOTH"
);
}
);
width = 416;
},
{
anchors = (
{
name = bottom;
position = "{138, 0}";
},
{
name = top;
position = "{138, 660}";
}
);
layerId = "C3F6A16D-5E1F-403C-905F-9502D4908E23";
paths = (
{
closed = 1;
nodes = (
"244 -212 OFFCURVE",
"291 -117 OFFCURVE",
"291 71 CURVE SMOOTH",
"291 569 LINE SMOOTH",
"291 619 OFFCURVE",
"297 627 OFFCURVE",
"360 627 CURVE",
"360 660 LINE",
"51 660 LINE",
"51 627 LINE",
"113 627 OFFCURVE",
"119 620 OFFCURVE",
"119 569 CURVE SMOOTH",
"119 -79 LINE SMOOTH",
"119 -150 OFFCURVE",
"95 -178 OFFCURVE",
"59 -178 CURVE SMOOTH",
"41 -178 OFFCURVE",
"40 -171 OFFCURVE",
"40 -168 CURVE SMOOTH",
"40 -155 OFFCURVE",
"63 -142 OFFCURVE",
"63 -105 CURVE SMOOTH",
"63 -56 OFFCURVE",
"23 -32 OFFCURVE",
"-10 -32 CURVE SMOOTH",
"-45 -32 OFFCURVE",
"-85 -56 OFFCURVE",
"-85 -112 CURVE SMOOTH",
"-85 -170 OFFCURVE",
"-44 -212 OFFCURVE",
"71 -212 CURVE SMOOTH"
);
}
);
width = 387;
}
);
note = J;
unicode = 004A;
},
{
glyphname = K;
lastChange = "2015-12-10 09:00:39 +0000";
layers = (
{
anchors = (
{
name = bottom;
position = "{336, 0}";
},
{
name = top;
position = "{336, 660}";
}
);
layerId = "A270BFC0-E682-4EED-9FF7-BE35A5492496";
paths = (
{
closed = 1;
nodes = (
"604 0 LINE",
"604 27 LINE",
"563 27 OFFCURVE",
"524 68 OFFCURVE",
"507 89 CURVE SMOOTH",
"266 394 LINE",
"211 344 LINE",
"418 74 LINE SMOOTH",
"437 49 OFFCURVE",
"426 27 OFFCURVE",
"407 27 CURVE SMOOTH",
"386 27 LINE",
"386 0 LINE"
);
},
{
closed = 1;
nodes = (
"279 0 LINE",
"279 27 LINE",
"206 27 OFFCURVE",
"203 35 OFFCURVE",
"203 89 CURVE SMOOTH",
"203 571 LINE SMOOTH",
"203 625 OFFCURVE",
"206 633 OFFCURVE",
"279 633 CURVE",
"279 660 LINE",
"53 660 LINE",
"53 633 LINE",
"127 633 OFFCURVE",
"129 625 OFFCURVE",
"129 571 CURVE SMOOTH",
"129 89 LINE SMOOTH",
"129 35 OFFCURVE",
"127 27 OFFCURVE",
"53 27 CURVE",
"53 0 LINE"
);
},
{
closed = 1;
nodes = (
"469 563 LINE SMOOTH",
"529 618 OFFCURVE",
"541 633 OFFCURVE",
"580 633 CURVE",
"580 660 LINE",
"420 660 LINE",
"420 633 LINE",
"448 633 LINE SMOOTH",
"477 633 OFFCURVE",
"475 610 OFFCURVE",
"454 590 CURVE SMOOTH",
"189 341 LINE",
"189 305 LINE"
);
}
);
width = 609;
},
{
anchors = (
{
name = bottom;
position = "{342, 0}";
},
{
name = top;
position = "{342, 660}";
}
);
layerId = "705D5379-5CC9-457D-BF30-EC6EB9252852";
paths = (
{
closed = 1;
nodes = (
"683 0 LINE",
"683 33 LINE",
"623 33 OFFCURVE",
"594 63 OFFCURVE",
"524 168 CURVE SMOOTH",
"356 419 LINE",
"271 339 LINE",
"429 84 LINE SMOOTH",
"452 46 OFFCURVE",
"450 33 OFFCURVE",
"422 33 CURVE SMOOTH",
"409 33 LINE",
"409 0 LINE"
);
},
{
closed = 1;
nodes = (
"323 0 LINE",
"323 33 LINE",
"253 33 OFFCURVE",
"245 42 OFFCURVE",
"245 89 CURVE SMOOTH",
"245 569 LINE SMOOTH",
"245 617 OFFCURVE",
"251 627 OFFCURVE",
"323 627 CURVE",
"323 660 LINE",
"44 660 LINE",
"44 627 LINE",
"116 627 OFFCURVE",
"123 618 OFFCURVE",
"123 569 CURVE SMOOTH",
"123 89 LINE SMOOTH",
"123 43 OFFCURVE",
"117 33 OFFCURVE",
"44 33 CURVE",
"44 0 LINE"
);
},
{
closed = 1;
nodes = (
"469 518 LINE SMOOTH",
"541 593 OFFCURVE",
"597 627 OFFCURVE",
"667 627 CURVE",
"667 660 LINE",
"427 660 LINE",
"427 627 LINE",
"463 627 LINE SMOOTH",
"482 627 OFFCURVE",
"482 613 OFFCURVE",
"462 589 CURVE SMOOTH",
"235 326 LINE",
"235 275 LINE"
);
}
);
width = 688;
},
{
anchors = (
{
name = bottom;
position = "{372, 0}";
},
{
name = top;
position = "{372, 660}";
}
);
layerId = "C3F6A16D-5E1F-403C-905F-9502D4908E23";
paths = (
{
closed = 1;
nodes = (
"743 0 LINE",
"743 33 LINE",
"686 33 OFFCURVE",
"664 80 OFFCURVE",
"590 185 CURVE SMOOTH",
"397 458 LINE",
"282 339 LINE",
"461 87 LINE SMOOTH",
"485 53 OFFCURVE",
"486 33 OFFCURVE",
"453 33 CURVE SMOOTH",
"419 33 LINE",
"419 0 LINE"
);
},
{
closed = 1;
nodes = (
"342 0 LINE",
"342 33 LINE",
"277 33 OFFCURVE",
"274 39 OFFCURVE",
"274 89 CURVE SMOOTH",
"274 569 LINE SMOOTH",
"274 620 OFFCURVE",
"281 627 OFFCURVE",
"342 627 CURVE",
"342 660 LINE",
"33 660 LINE",
"33 627 LINE",
"97 627 OFFCURVE",
"102 620 OFFCURVE",
"102 569 CURVE SMOOTH",
"102 89 LINE SMOOTH",
"102 39 OFFCURVE",
"98 33 OFFCURVE",
"33 33 CURVE",
"33 0 LINE"
);
},
{
closed = 1;
nodes = (
"510 518 LINE SMOOTH",
"579 584 OFFCURVE",
"611 627 OFFCURVE",
"668 627 CURVE",
"668 660 LINE",
"472 660 LINE",
"472 627 LINE",
"498 627 LINE SMOOTH",
"533 627 OFFCURVE",
"536 600 OFFCURVE",
"514 578 CURVE SMOOTH",
"241 311 LINE",
"241 260 LINE"
);
}
);
width = 748;
}
);
leftKerningGroup = E;
note = K;
rightKerningGroup = K;
unicode = 004B;
},
{
glyphname = L;
lastChange = "2015-12-10 09:00:40 +0000";
layers = (
{
anchors = (
{
name = bottom;
position = "{277, 0}";
},
{
name = center;
position = "{277, 330}";
},
{
name = top;
position = "{224, 660}";
},
{
name = topright;
position = "{383, 470}";
}
);
layerId = "A270BFC0-E682-4EED-9FF7-BE35A5492496";
paths = (
{
closed = 1;
nodes = (
"518 0 LINE",
"529 165 LINE",
"502 165 LINE",
"480 46 OFFCURVE",
"443 30 OFFCURVE",
"326 30 CURVE SMOOTH",
"224 30 OFFCURVE",
"203 42 OFFCURVE",
"203 114 CURVE SMOOTH",
"203 571 LINE SMOOTH",
"203 625 OFFCURVE",
"206 633 OFFCURVE",
"279 633 CURVE",
"279 660 LINE",
"53 660 LINE",
"53 633 LINE",
"127 633 OFFCURVE",
"129 625 OFFCURVE",
"129 571 CURVE SMOOTH",
"129 89 LINE SMOOTH",
"129 34 OFFCURVE",
"127 27 OFFCURVE",
"53 27 CURVE",
"53 0 LINE"
);
}
);
width = 565;
},
{
anchors = (
{
name = bottom;
position = "{282, 0}";
},
{
name = center;
position = "{282, 330}";
},
{
name = top;
position = "{250, 627}";
},
{
name = topright;
position = "{418, 500}";
}
);
layerId = "705D5379-5CC9-457D-BF30-EC6EB9252852";
paths = (
{
closed = 1;
nodes = (
"539 0 LINE",
"550 182 LINE",
"524 182 LINE",
"496 77 OFFCURVE",
"467 40 OFFCURVE",
"360 40 CURVE SMOOTH",
"270 40 OFFCURVE",
"245 39 OFFCURVE",
"245 114 CURVE SMOOTH",
"245 570 LINE SMOOTH",
"245 618 OFFCURVE",
"250 627 OFFCURVE",
"328 627 CURVE",
"328 660 LINE",
"44 660 LINE",
"44 627 LINE",
"116 627 OFFCURVE",
"123 618 OFFCURVE",
"123 570 CURVE SMOOTH",
"123 89 LINE SMOOTH",
"123 43 OFFCURVE",
"117 33 OFFCURVE",
"44 33 CURVE",
"44 0 LINE"
);
}
);
width = 594;
},
{
anchors = (
{
name = bottom;
position = "{304, 0}";
},
{
name = center;
position = "{196, 330}";
},
{
name = top;
position = "{245, 660}";
},
{
name = topright;
position = "{434, 470}";
}
);
layerId = "C3F6A16D-5E1F-403C-905F-9502D4908E23";
paths = (
{
closed = 1;
nodes = (
"563 0 LINE",
"575 174 LINE",
"534 174 LINE",
"511 64 OFFCURVE",
"443 37 OFFCURVE",
"336 37 CURVE SMOOTH",
"277 37 OFFCURVE",
"274 45 OFFCURVE",
"274 93 CURVE SMOOTH",
"274 569 LINE SMOOTH",
"274 620 OFFCURVE",
"281 627 OFFCURVE",
"342 627 CURVE",
"342 660 LINE",
"33 660 LINE",
"33 627 LINE",
"97 627 OFFCURVE",
"102 620 OFFCURVE",
"102 569 CURVE SMOOTH",
"102 89 LINE SMOOTH",
"102 39 OFFCURVE",
"98 33 OFFCURVE",
"33 33 CURVE",
"33 0 LINE"
);
}
);
width = 594;
}
);
leftKerningGroup = E;
note = L;
rightKerningGroup = L;
unicode = 004C;
},
{
glyphname = Lslash;
lastChange = "2015-12-10 09:00:39 +0000";
layers = (
{
components = (
{
name = L;
transform = "{1, 0, 0, 1, 27, 0}";
}
);
layerId = "A270BFC0-E682-4EED-9FF7-BE35A5492496";
paths = (
{
closed = 1;
nodes = (
"409 438 LINE",
"409 483 LINE",
"53 232 LINE",
"53 187 LINE"
);
}
);
width = 592;
},
{
components = (
{
name = L;
transform = "{1, 0, 0, 1, 18, 0}";
}
);
layerId = "705D5379-5CC9-457D-BF30-EC6EB9252852";
paths = (
{
closed = 1;
nodes = (
"400 431 LINE",
"400 483 LINE",
"44 232 LINE",
"44 180 LINE"
);
}
);
width = 612;
},
{
components = (
{
name = L;
transform = "{1, 0, 0, 1, 5, 0}";
}
);
layerId = "C3F6A16D-5E1F-403C-905F-9502D4908E23";
paths = (
{
closed = 1;
nodes = (
"407 437 LINE",
"407 501 LINE",
"31 250 LINE",
"31 186 LINE"
);
}
);
width = 599;
}
);
leftKerningGroup = E;
rightKerningGroup = L;
unicode = 0141;
},
{
glyphname = M;
lastChange = "2015-12-10 09:00:39 +0000";
layers = (
{
anchors = (
{
name = bottom;
position = "{426, 0}";
},
{
name = top;
position = "{426, 660}";
}
);
layerId = "A270BFC0-E682-4EED-9FF7-BE35A5492496";
paths = (
{
closed = 1;
nodes = (
"228 0 LINE",
"228 27 LINE",
"196 27 LINE SMOOTH",
"148 27 OFFCURVE",
"146 36 OFFCURVE",
"146 80 CURVE SMOOTH",
"146 570 LINE",
"148 570 LINE",
"378 42 LINE",
"388 42 LINE",
"614 570 LINE",
"616 570 LINE",
"616 83 LINE SMOOTH",
"616 37 OFFCURVE",
"611 27 OFFCURVE",
"538 27 CURVE",
"538 0 LINE",
"766 0 LINE",
"766 27 LINE",
"698 27 OFFCURVE",
"690 36 OFFCURVE",
"690 83 CURVE SMOOTH",
"690 576 LINE SMOOTH",
"690 625 OFFCURVE",
"697 633 OFFCURVE",
"766 633 CURVE",
"766 660 LINE",
"620 660 LINE",
"406 161 LINE",
"405 161 LINE",
"193 660 LINE",
"38 660 LINE",
"38 633 LINE",
"105 633 OFFCURVE",
"112 625 OFFCURVE",
"112 576 CURVE SMOOTH",
"112 80 LINE SMOOTH",
"112 40 OFFCURVE",
"107 27 OFFCURVE",
"65 27 CURVE SMOOTH",
"38 27 LINE",
"38 0 LINE"
);
}
);
width = 819;
},
{
anchors = (
{
name = bottom;
position = "{435, 0}";
},
{
name = top;
position = "{435, 660}";
}
);
layerId = "705D5379-5CC9-457D-BF30-EC6EB9252852";
paths = (
{
closed = 1;
nodes = (
"258 0 LINE",
"258 33 LINE",
"212 33 LINE SMOOTH",
"164 33 OFFCURVE",
"162 42 OFFCURVE",
"162 86 CURVE SMOOTH",
"162 570 LINE",
"164 570 LINE",
"381 0 LINE",
"412 0 LINE",
"627 570 LINE",
"629 570 LINE",
"629 89 LINE SMOOTH",
"629 43 OFFCURVE",
"624 33 OFFCURVE",
"551 33 CURVE",
"551 0 LINE",
"824 0 LINE",
"824 33 LINE",
"754 33 OFFCURVE",
"746 42 OFFCURVE",
"746 89 CURVE SMOOTH",
"746 570 LINE SMOOTH",
"746 619 OFFCURVE",
"753 626 OFFCURVE",
"824 627 CURVE",
"824 660 LINE",
"619 660 LINE",
"437 183 LINE",
"434 183 LINE",
"251 660 LINE",
"39 660 LINE",
"39 627 LINE",
"110 626 OFFCURVE",
"117 619 OFFCURVE",
"117 570 CURVE SMOOTH",
"117 86 LINE SMOOTH",
"117 46 OFFCURVE",
"112 33 OFFCURVE",
"70 33 CURVE SMOOTH",
"40 33 LINE",
"40 0 LINE"
);
}
);
width = 869;
},
{
anchors = (
{
name = bottom;
position = "{425, 0}";
},
{
name = top;
position = "{425, 660}";
}
);
layerId = "C3F6A16D-5E1F-403C-905F-9502D4908E23";
paths = (
{
closed = 1;
nodes = (
"207 0 LINE",
"207 33 LINE",
"187 33 LINE SMOOTH",
"139 33 OFFCURVE",
"130 42 OFFCURVE",
"130 86 CURVE SMOOTH",
"130 530 LINE",
"131 530 LINE",
"331 23 LINE",
"395 23 LINE",
"589 540 LINE",
"591 540 LINE",
"591 89 LINE SMOOTH",
"591 43 OFFCURVE",
"586 33 OFFCURVE",
"529 33 CURVE",
"529 0 LINE",
"831 0 LINE",
"831 33 LINE",
"770 33 OFFCURVE",
"763 42 OFFCURVE",
"763 89 CURVE SMOOTH",
"763 570 LINE SMOOTH",
"763 619 OFFCURVE",
"769 626 OFFCURVE",
"831 627 CURVE",
"831 660 LINE",
"599 660 LINE",
"433 228 LINE",
"432 228 LINE",
"261 660 LINE",
"18 660 LINE",
"18 627 LINE",
"82 626 OFFCURVE",
"89 619 OFFCURVE",
"89 570 CURVE SMOOTH",
"89 86 LINE SMOOTH",
"89 46 OFFCURVE",
"83 33 OFFCURVE",
"32 33 CURVE SMOOTH",
"19 33 LINE",
"19 0 LINE"
);
}
);
width = 864;
}
);
leftKerningGroup = M;
note = M;
rightKerningGroup = H;
unicode = 004D;
},
{
glyphname = N;
lastChange = "2015-12-10 09:00:39 +0000";
layers = (
{
anchors = (
{
name = bottom;
position = "{360, 0}";
},
{
name = top;
position = "{360, 660}";
}
);
layerId = "A270BFC0-E682-4EED-9FF7-BE35A5492496";
paths = (
{
closed = 1;
nodes = (
"576 -6 LINE",
"576 585 LINE SMOOTH",
"576 617 OFFCURVE",
"591 633 OFFCURVE",
"622 633 CURVE SMOOTH",
"652 633 LINE",
"652 660 LINE",
"456 660 LINE",
"456 633 LINE",
"491 633 LINE SMOOTH",
"525 633 OFFCURVE",
"542 617 OFFCURVE",
"542 585 CURVE SMOOTH",
"542 137 LINE",
"540 137 LINE",
"194 660 LINE",
"41 660 LINE",
"41 633 LINE",
"111 633 OFFCURVE",
"118 625 OFFCURVE",
"118 576 CURVE SMOOTH",
"118 79 LINE SMOOTH",
"118 43 OFFCURVE",
"103 27 OFFCURVE",
"71 27 CURVE SMOOTH",
"42 27 LINE",
"42 0 LINE",
"238 0 LINE",
"238 27 LINE",
"202 27 LINE SMOOTH",
"166 27 OFFCURVE",
"152 42 OFFCURVE",
"152 79 CURVE SMOOTH",
"152 570 LINE",
"154 570 LINE",
"543 -6 LINE"
);
}
);
width = 691;
},
{
anchors = (
{
name = bottom;
position = "{360, 0}";
},
{
name = top;
position = "{360, 660}";
}
);
layerId = "705D5379-5CC9-457D-BF30-EC6EB9252852";
paths = (
{
closed = 1;
nodes = (
"603 -6 LINE",
"603 579 LINE SMOOTH",
"603 611 OFFCURVE",
"618 627 OFFCURVE",
"649 627 CURVE SMOOTH",
"679 627 LINE",
"679 660 LINE",
"462 660 LINE",
"462 627 LINE",
"507 627 LINE SMOOTH",
"541 627 OFFCURVE",
"558 611 OFFCURVE",
"558 579 CURVE SMOOTH",
"558 167 LINE",
"555 167 LINE",
"232 660 LINE",
"39 660 LINE",
"39 627 LINE",
"110 626 OFFCURVE",
"117 619 OFFCURVE",
"117 570 CURVE SMOOTH",
"117 85 LINE SMOOTH",
"117 49 OFFCURVE",
"102 33 OFFCURVE",
"70 33 CURVE SMOOTH",
"40 33 LINE",
"40 0 LINE",
"258 0 LINE",
"258 33 LINE",
"212 33 LINE SMOOTH",
"176 33 OFFCURVE",
"162 48 OFFCURVE",
"162 85 CURVE SMOOTH",
"162 548 LINE",
"165 548 LINE",
"527 -6 LINE"
);
}
);
width = 719;
},
{
anchors = (
{
name = bottom;
position = "{348, 0}";
},
{
name = top;
position = "{348, 660}";
}
);
layerId = "C3F6A16D-5E1F-403C-905F-9502D4908E23";
paths = (
{
closed = 1;
nodes = (
"609 -7 LINE",
"609 579 LINE SMOOTH",
"609 611 OFFCURVE",
"624 627 OFFCURVE",
"655 627 CURVE SMOOTH",
"674 627 LINE",
"674 660 LINE",
"489 660 LINE",
"489 627 LINE",
"517 627 LINE SMOOTH",
"551 627 OFFCURVE",
"568 611 OFFCURVE",
"568 579 CURVE SMOOTH",
"568 190 LINE",
"565 190 LINE",
"264 660 LINE",
"28 660 LINE",
"28 627 LINE",
"92 626 OFFCURVE",
"99 619 OFFCURVE",
"99 570 CURVE SMOOTH",
"99 85 LINE SMOOTH",
"99 49 OFFCURVE",
"84 33 OFFCURVE",
"52 33 CURVE SMOOTH",
"29 33 LINE",
"29 0 LINE",
"217 0 LINE",
"217 33 LINE",
"190 33 LINE SMOOTH",
"150 33 OFFCURVE",
"140 48 OFFCURVE",
"140 85 CURVE SMOOTH",
"140 530 LINE",
"141 530 LINE",
"493 -7 LINE"
);
}
);
width = 703;
}
);
leftKerningGroup = M;
note = N;
rightKerningGroup = N;
unicode = 004E;
},
{
glyphname = O;
lastChange = "2015-12-10 09:00:39 +0000";
layers = (
{
anchors = (
{
name = bottom;
position = "{352, 0}";
},
{
name = center;
position = "{352, 330}";
},
{
name = ogonek;
position = "{613, 10}";
},
{
name = top;
position = "{352, 660}";
},
{
name = topleft;
position = "{44, 660}";
},
{
name = topright;
position = "{659, 660}";
}
);
layerId = "A270BFC0-E682-4EED-9FF7-BE35A5492496";
paths = (
{
closed = 1;
nodes = (
"555 -12 OFFCURVE",
"645 137 OFFCURVE",
"645 327 CURVE SMOOTH",
"645 510 OFFCURVE",
"560 672 OFFCURVE",
"351 672 CURVE SMOOTH",
"142 672 OFFCURVE",
"57 510 OFFCURVE",
"57 327 CURVE SMOOTH",
"57 137 OFFCURVE",
"147 -12 OFFCURVE",
"351 -12 CURVE SMOOTH"
);
},
{
closed = 1;
nodes = (
"169 18 OFFCURVE",
"145 208 OFFCURVE",
"145 327 CURVE SMOOTH",
"145 469 OFFCURVE",
"167 642 OFFCURVE",
"351 642 CURVE SMOOTH",
"535 642 OFFCURVE",
"557 469 OFFCURVE",
"557 327 CURVE SMOOTH",
"557 208 OFFCURVE",
"533 18 OFFCURVE",
"351 18 CURVE SMOOTH"
);
}
);
width = 701;
},
{
anchors = (
{
name = bottom;
position = "{363, 0}";
},
{
name = center;
position = "{363, 330}";
},
{
name = ogonek;
position = "{652, 10}";
},
{
name = top;
position = "{363, 660}";
},
{
name = topleft;
position = "{21, 660}";
},
{
name = topright;
position = "{704, 660}";
}
);
layerId = "705D5379-5CC9-457D-BF30-EC6EB9252852";
paths = (
{
closed = 1;
nodes = (
"585 -12 OFFCURVE",
"679 129 OFFCURVE",
"679 331 CURVE SMOOTH",
"679 533 OFFCURVE",
"585 672 OFFCURVE",
"363 672 CURVE SMOOTH",
"141 672 OFFCURVE",
"47 533 OFFCURVE",
"47 331 CURVE SMOOTH",
"47 129 OFFCURVE",
"141 -12 OFFCURVE",
"363 -12 CURVE SMOOTH"
);
},
{
closed = 1;
nodes = (
"245 29 OFFCURVE",
"184 134 OFFCURVE",
"184 331 CURVE SMOOTH",
"184 527 OFFCURVE",
"245 631 OFFCURVE",
"363 631 CURVE SMOOTH",
"481 631 OFFCURVE",
"542 527 OFFCURVE",
"542 331 CURVE SMOOTH",
"542 134 OFFCURVE",
"481 29 OFFCURVE",
"363 29 CURVE SMOOTH"
);
}
);
width = 726;
},
{
anchors = (
{
name = bottom;
position = "{374, 0}";
},
{
name = center;
position = "{374, 330}";
},
{
name = ogonek;
position = "{677, 10}";
},
{
name = top;
position = "{374, 660}";
},
{
name = topleft;
position = "{15, 660}";
},
{
name = topright;
position = "{733, 660}";
}
);
layerId = "C3F6A16D-5E1F-403C-905F-9502D4908E23";
paths = (
{
closed = 1;
nodes = (
"591 -10 OFFCURVE",
"714 110 OFFCURVE",
"714 331 CURVE SMOOTH",
"714 552 OFFCURVE",
"591 672 OFFCURVE",
"374 672 CURVE SMOOTH",
"157 672 OFFCURVE",
"34 552 OFFCURVE",
"34 331 CURVE SMOOTH",
"34 110 OFFCURVE",
"157 -10 OFFCURVE",
"374 -10 CURVE SMOOTH"
);
},
{
closed = 1;
nodes = (
"253 23 OFFCURVE",
"215 128 OFFCURVE",
"215 331 CURVE SMOOTH",
"215 534 OFFCURVE",
"253 639 OFFCURVE",
"374 639 CURVE SMOOTH",
"485 639 OFFCURVE",
"533 534 OFFCURVE",
"533 331 CURVE SMOOTH",
"533 128 OFFCURVE",
"495 23 OFFCURVE",
"374 23 CURVE SMOOTH"
);
}
);
width = 748;
}
);
leftKerningGroup = O;
note = O;
rightKerningGroup = O;
unicode = 004F;
},
{
glyphname = Oslash;
lastChange = "2015-12-10 09:00:39 +0000";
layers = (
{
anchors = (
{
name = bottom;
position = "{332, 0}";
},
{
name = top;
position = "{332, 660}";
}
);
components = (
{
name = O;
transform = "{1, 0, 0, 1, 4, 0}";
}
);
layerId = "A270BFC0-E682-4EED-9FF7-BE35A5492496";
paths = (
{
closed = 1;
nodes = (
"98 -6 LINE",
"613 666 LINE",
"573 666 LINE",
"57 -6 LINE"
);
}
);
width = 705;
},
{
anchors = (
{
name = bottom;
position = "{362, 0}";
},
{
name = top;
position = "{362, 660}";
}
);
components = (
{
name = O;
}
);
layerId = "705D5379-5CC9-457D-BF30-EC6EB9252852";
paths = (
{
closed = 1;
nodes = (
"103 -6 LINE",
"672 666 LINE",
"622 666 LINE",
"52 -6 LINE"
);
}
);
width = 726;
},
{
anchors = (
{
name = bottom;
position = "{379, 0}";
},
{
name = top;
position = "{379, 660}";
}
);
components = (
{
name = O;
}
);
layerId = "C3F6A16D-5E1F-403C-905F-9502D4908E23";
paths = (
{
closed = 1;
nodes = (
"113 -6 LINE",
"682 666 LINE",
"620 666 LINE",
"50 -6 LINE"
);
}
);
width = 748;
}
);
leftKerningGroup = O;
note = Oslash;
rightKerningGroup = O;
unicode = 00D8;
},
{
glyphname = OE;
lastChange = "2015-12-10 09:00:39 +0000";
layers = (
{
anchors = (
{
name = bottom;
position = "{481, 0}";
},
{
name = top;
position = "{481, 660}";
}
);
layerId = "A270BFC0-E682-4EED-9FF7-BE35A5492496";
paths = (
{
closed = 1;
nodes = (
"909 0 LINE",
"920 165 LINE",
"893 165 LINE",
"871 46 OFFCURVE",
"830 30 OFFCURVE",
"709 30 CURVE SMOOTH",
"605 30 OFFCURVE",
"584 42 OFFCURVE",
"584 114 CURVE SMOOTH",
"584 326 LINE",
"706 326 LINE SMOOTH",
"787 326 OFFCURVE",
"791 303 OFFCURVE",
"800 243 CURVE",
"824 243 LINE",
"824 442 LINE",
"800 442 LINE",
"791 382 OFFCURVE",
"787 360 OFFCURVE",
"706 360 CURVE SMOOTH",
"584 360 LINE",
"584 592 LINE SMOOTH",
"584 625 OFFCURVE",
"588 629 OFFCURVE",
"619 629 CURVE SMOOTH",
"712 629 LINE SMOOTH",
"825 629 OFFCURVE",
"844 605 OFFCURVE",
"858 504 CURVE",
"885 504 LINE",
"885 660 LINE",
"374 660 LINE SMOOTH",
"176 660 OFFCURVE",
"57 544 OFFCURVE",
"57 339 CURVE SMOOTH",
"57 126 OFFCURVE",
"185 0 OFFCURVE",
"393 0 CURVE SMOOTH"
);
},
{
closed = 1;
nodes = (
"270 30 OFFCURVE",
"145 91 OFFCURVE",
"145 342 CURVE SMOOTH",
"145 525 OFFCURVE",
"211 629 OFFCURVE",
"421 629 CURVE SMOOTH",
"508 629 OFFCURVE",
"510 611 OFFCURVE",
"510 568 CURVE SMOOTH",
"510 122 LINE SMOOTH",
"510 42 OFFCURVE",
"479 30 OFFCURVE",
"415 30 CURVE SMOOTH"
);
}
);
width = 961;
},
{
anchors = (
{
name = bottom;
position = "{492, 0}";
},
{
name = top;
position = "{492, 660}";
}
);
layerId = "705D5379-5CC9-457D-BF30-EC6EB9252852";
paths = (
{
closed = 1;
nodes = (
"941 0 LINE",
"953 184 LINE",
"928 184 LINE",
"895 67 OFFCURVE",
"868 39 OFFCURVE",
"739 39 CURVE SMOOTH",
"647 39 OFFCURVE",
"633 53 OFFCURVE",
"633 113 CURVE SMOOTH",
"633 323 LINE",
"732 323 LINE SMOOTH",
"803 323 OFFCURVE",
"812 304 OFFCURVE",
"824 240 CURVE",
"849 240 LINE",
"849 452 LINE",
"824 452 LINE",
"812 387 OFFCURVE",
"803 367 OFFCURVE",
"732 367 CURVE SMOOTH",
"633 367 LINE",
"633 587 LINE SMOOTH",
"633 613 OFFCURVE",
"639 621 OFFCURVE",
"671 621 CURVE SMOOTH",
"749 621 LINE SMOOTH",
"853 621 OFFCURVE",
"873 587 OFFCURVE",
"895 493 CURVE",
"921 493 LINE",
"921 660 LINE",
"393 660 LINE SMOOTH",
"165 660 OFFCURVE",
"47 527 OFFCURVE",
"47 329 CURVE SMOOTH",
"47 137 OFFCURVE",
"159 0 OFFCURVE",
"381 0 CURVE SMOOTH"
);
},
{
closed = 1;
nodes = (
"245 39 OFFCURVE",
"184 188 OFFCURVE",
"184 340 CURVE SMOOTH",
"184 490 OFFCURVE",
"244 621 OFFCURVE",
"429 621 CURVE SMOOTH",
"497 621 OFFCURVE",
"511 603 OFFCURVE",
"511 564 CURVE SMOOTH",
"511 95 LINE SMOOTH",
"511 59 OFFCURVE",
"491 39 OFFCURVE",
"425 39 CURVE SMOOTH"
);
}
);
width = 988;
},
{
anchors = (
{
name = bottom;
position = "{510, 0}";
},
{
name = top;
position = "{510, 660}";
}
);
layerId = "C3F6A16D-5E1F-403C-905F-9502D4908E23";
paths = (
{
closed = 1;
nodes = (
"960 0 LINE",
"972 174 LINE",
"931 174 LINE",
"910 60 OFFCURVE",
"850 37 OFFCURVE",
"758 37 CURVE SMOOTH",
"676 37 OFFCURVE",
"662 47 OFFCURVE",
"662 103 CURVE SMOOTH",
"662 323 LINE",
"771 323 LINE SMOOTH",
"823 323 OFFCURVE",
"837 308 OFFCURVE",
"845 230 CURVE",
"878 230 LINE",
"878 459 LINE",
"845 459 LINE",
"836 383 OFFCURVE",
"823 367 OFFCURVE",
"771 367 CURVE SMOOTH",
"662 367 LINE",
"662 589 LINE SMOOTH",
"662 614 OFFCURVE",
"672 623 OFFCURVE",
"699 623 CURVE SMOOTH",
"758 623 LINE SMOOTH",
"848 623 OFFCURVE",
"883 605 OFFCURVE",
"909 503 CURVE",
"950 503 LINE",
"950 660 LINE",
"404 660 LINE SMOOTH",
"168 660 OFFCURVE",
"34 552 OFFCURVE",
"34 331 CURVE SMOOTH",
"34 110 OFFCURVE",
"168 0 OFFCURVE",
"404 0 CURVE SMOOTH"
);
},
{
closed = 1;
nodes = (
"274 39 OFFCURVE",
"214 184 OFFCURVE",
"214 340 CURVE SMOOTH",
"214 494 OFFCURVE",
"272 621 OFFCURVE",
"439 621 CURVE SMOOTH",
"491 621 OFFCURVE",
"501 613 OFFCURVE",
"501 564 CURVE SMOOTH",
"501 95 LINE SMOOTH",
"501 50 OFFCURVE",
"486 39 OFFCURVE",
"435 39 CURVE SMOOTH"
);
}
);
width = 996;
}
);
leftKerningGroup = O;
rightKerningGroup = E;
unicode = 0152;
},
{
glyphname = P;
lastChange = "2015-12-10 09:00:39 +0000";
layers = (
{
anchors = (
{
name = bottom;
position = "{280, 0}";
},
{
name = top;
position = "{280, 660}";
}
);
layerId = "A270BFC0-E682-4EED-9FF7-BE35A5492496";
paths = (
{
closed = 1;
nodes = (
"287 0 LINE",
"287 27 LINE",
"210 27 OFFCURVE",
"203 35 OFFCURVE",
"203 83 CURVE SMOOTH",
"203 272 LINE",
"278 272 LINE SMOOTH",
"413 272 OFFCURVE",
"515 336 OFFCURVE",
"515 473 CURVE SMOOTH",
"515 608 OFFCURVE",
"416 660 OFFCURVE",
"278 660 CURVE SMOOTH",
"53 660 LINE",
"53 633 LINE",
"122 633 OFFCURVE",
"129 624 OFFCURVE",
"129 576 CURVE SMOOTH",
"129 83 LINE SMOOTH",
"129 37 OFFCURVE",
"123 27 OFFCURVE",
"53 27 CURVE",
"53 0 LINE"
);
},
{
closed = 1;
nodes = (
"203 592 LINE SMOOTH",
"203 615 OFFCURVE",
"210 627 OFFCURVE",
"265 627 CURVE SMOOTH",
"379 627 OFFCURVE",
"433 579 OFFCURVE",
"433 466 CURVE SMOOTH",
"433 353 OFFCURVE",
"379 306 OFFCURVE",
"267 306 CURVE SMOOTH",
"203 306 LINE"
);
}
);
width = 553;
},
{
anchors = (
{
name = bottom;
position = "{334, 0}";
},
{
name = top;
position = "{334, 660}";
}
);
layerId = "705D5379-5CC9-457D-BF30-EC6EB9252852";
paths = (
{
closed = 1;
nodes = (
"339 0 LINE",
"339 33 LINE",
"253 33 OFFCURVE",
"245 41 OFFCURVE",
"245 89 CURVE SMOOTH",
"245 262 LINE",
"303 262 LINE SMOOTH",
"542 262 OFFCURVE",
"575 391 OFFCURVE",
"575 470 CURVE SMOOTH",
"575 536 OFFCURVE",
"552 660 OFFCURVE",
"331 660 CURVE SMOOTH",
"44 660 LINE",
"44 627 LINE",
"116 627 OFFCURVE",
"123 618 OFFCURVE",
"123 570 CURVE SMOOTH",
"123 89 LINE SMOOTH",
"123 43 OFFCURVE",
"117 33 OFFCURVE",
"44 33 CURVE",
"44 0 LINE"
);
},
{
closed = 1;
nodes = (
"245 586 LINE SMOOTH",
"245 606 OFFCURVE",
"251 621 OFFCURVE",
"301 621 CURVE SMOOTH",
"399 621 OFFCURVE",
"445 564 OFFCURVE",
"445 467 CURVE SMOOTH",
"445 363 OFFCURVE",
"392 302 OFFCURVE",
"305 302 CURVE SMOOTH",
"245 302 LINE"
);
}
);
width = 597;
},
{
anchors = (
{
name = bottom;
position = "{325, 0}";
},
{
name = top;
position = "{325, 660}";
}
);
layerId = "C3F6A16D-5E1F-403C-905F-9502D4908E23";
paths = (
{
closed = 1;
nodes = (
"339 0 LINE",
"339 33 LINE",
"282 33 OFFCURVE",
"274 40 OFFCURVE",
"274 89 CURVE SMOOTH",
"274 262 LINE",
"301 262 LINE SMOOTH",
"489 262 OFFCURVE",
"607 318 OFFCURVE",
"607 470 CURVE SMOOTH",
"607 593 OFFCURVE",
"510 660 OFFCURVE",
"340 660 CURVE SMOOTH",
"33 660 LINE",
"33 627 LINE",
"94 627 OFFCURVE",
"102 620 OFFCURVE",
"102 570 CURVE SMOOTH",
"102 89 LINE SMOOTH",
"102 40 OFFCURVE",
"98 33 OFFCURVE",
"33 33 CURVE",
"33 0 LINE"
);
},
{
closed = 1;
nodes = (
"274 588 LINE SMOOTH",
"274 620 OFFCURVE",
"280 623 OFFCURVE",
"310 623 CURVE SMOOTH",
"392 623 OFFCURVE",
"434 569 OFFCURVE",
"434 467 CURVE SMOOTH",
"434 349 OFFCURVE",
"376 302 OFFCURVE",
"302 302 CURVE SMOOTH",
"274 302 LINE"
);
}
);
width = 624;
}
);
leftKerningGroup = E;
note = P;
unicode = 0050;
},
{
glyphname = Thorn;
lastChange = "2015-12-10 09:00:39 +0000";
layers = (
{
anchors = (
{
name = bottom;
position = "{280, 0}";
},
{
name = top;
position = "{280, 660}";
}
);
layerId = "A270BFC0-E682-4EED-9FF7-BE35A5492496";
paths = (
{
closed = 1;
nodes = (
"287 0 LINE",
"287 27 LINE",
"210 27 OFFCURVE",
"203 35 OFFCURVE",
"203 83 CURVE SMOOTH",
"203 162 LINE",
"278 162 LINE SMOOTH",
"425 162 OFFCURVE",
"515 213 OFFCURVE",
"515 358 CURVE SMOOTH",
"515 500 OFFCURVE",
"429 550 OFFCURVE",
"278 550 CURVE SMOOTH",
"203 550 LINE",
"203 571 LINE SMOOTH",
"203 625 OFFCURVE",
"206 633 OFFCURVE",
"279 633 CURVE",
"279 660 LINE",
"53 660 LINE",
"53 633 LINE",
"127 633 OFFCURVE",
"129 625 OFFCURVE",
"129 571 CURVE SMOOTH",
"129 83 LINE SMOOTH",
"129 37 OFFCURVE",
"123 27 OFFCURVE",
"53 27 CURVE",
"53 0 LINE"
);
},
{
closed = 1;
nodes = (
"203 482 LINE SMOOTH",
"203 506 OFFCURVE",
"212 517 OFFCURVE",
"265 517 CURVE SMOOTH",
"379 517 OFFCURVE",
"433 469 OFFCURVE",
"433 356 CURVE SMOOTH",
"433 244 OFFCURVE",
"379 196 OFFCURVE",
"265 196 CURVE SMOOTH",
"203 196 LINE"
);
}
);
width = 554;
},
{
anchors = (
{
name = bottom;
position = "{312, 0}";
},
{
name = top;
position = "{312, 660}";
}
);
layerId = "705D5379-5CC9-457D-BF30-EC6EB9252852";
paths = (
{
closed = 1;
nodes = (
"332 0 LINE",
"332 33 LINE",
"253 33 OFFCURVE",
"245 41 OFFCURVE",
"245 91 CURVE SMOOTH",
"245 167 LINE",
"300 167 LINE SMOOTH",
"424 167 OFFCURVE",
"573 193 OFFCURVE",
"573 349 CURVE SMOOTH",
"573 477 OFFCURVE",
"473 522 OFFCURVE",
"329 522 CURVE SMOOTH",
"245 522 LINE",
"245 569 LINE SMOOTH",
"245 617 OFFCURVE",
"251 627 OFFCURVE",
"324 627 CURVE",
"324 660 LINE",
"44 660 LINE",
"44 627 LINE",
"116 627 OFFCURVE",
"123 618 OFFCURVE",
"123 569 CURVE SMOOTH",
"123 91 LINE SMOOTH",
"123 43 OFFCURVE",
"117 33 OFFCURVE",
"44 33 CURVE",
"44 0 LINE"
);
},
{
closed = 1;
nodes = (
"245 445 LINE SMOOTH",
"245 467 OFFCURVE",
"251 482 OFFCURVE",
"303 482 CURVE SMOOTH",
"399 482 OFFCURVE",
"442 432 OFFCURVE",
"442 345 CURVE SMOOTH",
"442 253 OFFCURVE",
"395 207 OFFCURVE",
"305 207 CURVE SMOOTH",
"245 207 LINE"
);
}
);
width = 598;
},
{
anchors = (
{
name = bottom;
position = "{318, 0}";
},
{
name = top;
position = "{318, 660}";
}
);
layerId = "C3F6A16D-5E1F-403C-905F-9502D4908E23";
paths = (
{
closed = 1;
nodes = (
"341 0 LINE",
"341 33 LINE",
"276 33 OFFCURVE",
"274 42 OFFCURVE",
"274 91 CURVE SMOOTH",
"274 167 LINE",
"299 167 LINE SMOOTH",
"426 167 OFFCURVE",
"592 196 OFFCURVE",
"592 349 CURVE SMOOTH",
"592 463 OFFCURVE",
"499 522 OFFCURVE",
"328 522 CURVE SMOOTH",
"274 522 LINE",
"274 569 LINE SMOOTH",
"274 621 OFFCURVE",
"284 627 OFFCURVE",
"343 627 CURVE",
"343 660 LINE",
"33 660 LINE",
"33 627 LINE",
"101 627 OFFCURVE",
"102 618 OFFCURVE",
"102 569 CURVE SMOOTH",
"102 91 LINE SMOOTH",
"102 39 OFFCURVE",
"98 33 OFFCURVE",
"33 33 CURVE",
"33 0 LINE"
);
},
{
closed = 1;
nodes = (
"274 451 LINE SMOOTH",
"274 477 OFFCURVE",
"281 482 OFFCURVE",
"312 482 CURVE SMOOTH",
"378 482 OFFCURVE",
"421 438 OFFCURVE",
"421 345 CURVE SMOOTH",
"421 252 OFFCURVE",
"378 207 OFFCURVE",
"294 207 CURVE SMOOTH",
"274 207 LINE"
);
}
);
width = 610;
}
);
leftKerningGroup = E;
note = Thorn;
unicode = 00DE;
},
{
glyphname = Q;
lastChange = "2015-12-10 09:00:39 +0000";
layers = (
{
anchors = (
{
name = bottom;
position = "{351, 0}";
},
{
name = top;
position = "{351, 660}";
}
);
layerId = "A270BFC0-E682-4EED-9FF7-BE35A5492496";
paths = (
{
closed = 1;
nodes = (
"555 -12 OFFCURVE",
"645 137 OFFCURVE",
"645 326 CURVE SMOOTH",
"645 510 OFFCURVE",
"560 672 OFFCURVE",
"351 672 CURVE SMOOTH",
"142 672 OFFCURVE",
"57 510 OFFCURVE",
"57 326 CURVE SMOOTH",
"57 137 OFFCURVE",
"147 -12 OFFCURVE",
"351 -12 CURVE SMOOTH"
);
},
{
closed = 1;
nodes = (
"514 -153 OFFCURVE",
"546 -134 OFFCURVE",
"574 -109 CURVE",
"557 -90 LINE",
"539 -105 OFFCURVE",
"519 -115 OFFCURVE",
"497 -115 CURVE SMOOTH",
"443 -115 OFFCURVE",
"414 -55 OFFCURVE",
"414 -2 CURVE",
"328 -2 LINE",
"328 -79 OFFCURVE",
"374 -153 OFFCURVE",
"467 -153 CURVE SMOOTH"
);
},
{
closed = 1;
nodes = (
"167 18 OFFCURVE",
"145 209 OFFCURVE",
"145 336 CURVE SMOOTH",
"145 469 OFFCURVE",
"169 642 OFFCURVE",
"351 642 CURVE SMOOTH",
"533 642 OFFCURVE",
"557 469 OFFCURVE",
"557 336 CURVE SMOOTH",
"557 209 OFFCURVE",
"535 18 OFFCURVE",
"351 18 CURVE SMOOTH"
);
}
);
width = 701;
},
{
anchors = (
{
name = bottom;
position = "{363, 0}";
},
{
name = top;
position = "{363, 660}";
}
);
layerId = "705D5379-5CC9-457D-BF30-EC6EB9252852";
paths = (
{
closed = 1;
nodes = (
"585 -12 OFFCURVE",
"679 129 OFFCURVE",
"679 331 CURVE SMOOTH",
"679 533 OFFCURVE",
"585 672 OFFCURVE",
"363 672 CURVE SMOOTH",
"141 672 OFFCURVE",
"47 533 OFFCURVE",
"47 331 CURVE SMOOTH",
"47 129 OFFCURVE",
"141 -12 OFFCURVE",
"363 -12 CURVE SMOOTH"
);
},
{
closed = 1;
nodes = (
"541 -171 OFFCURVE",
"579 -137 OFFCURVE",
"599 -118 CURVE",
"587 -96 LINE",
"572 -108 OFFCURVE",
"546 -116 OFFCURVE",
"522 -116 CURVE SMOOTH",
"454 -116 OFFCURVE",
"433 -50 OFFCURVE",
"433 5 CURVE",
"299 5 LINE",
"299 -66 OFFCURVE",
"345 -171 OFFCURVE",
"470 -171 CURVE SMOOTH"
);
},
{
closed = 1;
nodes = (
"245 29 OFFCURVE",
"184 134 OFFCURVE",
"184 331 CURVE SMOOTH",
"184 527 OFFCURVE",
"245 631 OFFCURVE",
"363 631 CURVE SMOOTH",
"481 631 OFFCURVE",
"542 527 OFFCURVE",
"542 331 CURVE SMOOTH",
"542 134 OFFCURVE",
"481 29 OFFCURVE",
"363 29 CURVE SMOOTH"
);
}
);
width = 726;
},
{
anchors = (
{
name = bottom;
position = "{374, 0}";
},
{
name = top;
position = "{374, 660}";
}
);
layerId = "C3F6A16D-5E1F-403C-905F-9502D4908E23";
paths = (
{
closed = 1;
nodes = (
"591 -10 OFFCURVE",
"714 110 OFFCURVE",
"714 331 CURVE SMOOTH",
"714 552 OFFCURVE",
"591 672 OFFCURVE",
"374 672 CURVE SMOOTH",
"157 672 OFFCURVE",
"34 552 OFFCURVE",
"34 331 CURVE SMOOTH",
"34 110 OFFCURVE",
"157 -10 OFFCURVE",
"374 -10 CURVE SMOOTH"
);
},
{
closed = 1;
nodes = (
"542 -171 OFFCURVE",
"593 -134 OFFCURVE",
"606 -122 CURVE",
"584 -81 LINE",
"563 -96 OFFCURVE",
"540 -109 OFFCURVE",
"514 -109 CURVE SMOOTH",
"487 -109 OFFCURVE",
"458 -80 OFFCURVE",
"458 5 CURVE",
"288 5 LINE",
"288 -108 OFFCURVE",
"349 -171 OFFCURVE",
"471 -171 CURVE SMOOTH"
);
},
{
closed = 1;
nodes = (
"253 23 OFFCURVE",
"215 128 OFFCURVE",
"215 331 CURVE SMOOTH",
"215 534 OFFCURVE",
"253 639 OFFCURVE",
"374 639 CURVE SMOOTH",
"485 639 OFFCURVE",
"533 534 OFFCURVE",
"533 331 CURVE SMOOTH",
"533 128 OFFCURVE",
"495 23 OFFCURVE",
"374 23 CURVE SMOOTH"
);
}
);
width = 748;
}
);
leftKerningGroup = O;
note = Q;
rightKerningGroup = O;
unicode = 0051;
},
{
glyphname = R;
lastChange = "2015-12-10 09:00:39 +0000";
layers = (
{
anchors = (
{
name = bottom;
position = "{293, 0}";
},
{
name = top;
position = "{293, 660}";
}
);
layerId = "A270BFC0-E682-4EED-9FF7-BE35A5492496";
paths = (
{
closed = 1;
nodes = (
"287 0 LINE",
"287 27 LINE",
"210 27 OFFCURVE",
"203 35 OFFCURVE",
"203 83 CURVE SMOOTH",
"203 311 LINE",
"268 311 LINE SMOOTH",
"344 311 OFFCURVE",
"377 281 OFFCURVE",
"391 206 CURVE SMOOTH",
"412 92 LINE SMOOTH",
"421 44 OFFCURVE",
"432 19 OFFCURVE",
"450 0 CURVE",
"560 0 LINE",
"560 27 LINE",
"509 27 OFFCURVE",
"494 61 OFFCURVE",
"481 138 CURVE SMOOTH",
"473 185 LINE SMOOTH",
"457 281 OFFCURVE",
"425 308 OFFCURVE",
"370 327 CURVE",
"370 328 LINE",
"448 350 OFFCURVE",
"504 404 OFFCURVE",
"504 496 CURVE SMOOTH",
"504 611 OFFCURVE",
"418 660 OFFCURVE",
"298 660 CURVE SMOOTH",
"53 660 LINE",
"53 633 LINE",
"122 633 OFFCURVE",
"129 624 OFFCURVE",
"129 576 CURVE SMOOTH",
"129 83 LINE SMOOTH",
"129 37 OFFCURVE",
"123 27 OFFCURVE",
"53 27 CURVE",
"53 0 LINE"
);
},
{
closed = 1;
nodes = (
"203 592 LINE SMOOTH",
"203 616 OFFCURVE",
"211 627 OFFCURVE",
"265 627 CURVE SMOOTH",
"371 627 OFFCURVE",
"423 585 OFFCURVE",
"423 485 CURVE SMOOTH",
"423 387 OFFCURVE",
"373 345 OFFCURVE",
"267 345 CURVE SMOOTH",
"203 345 LINE"
);
}
);
width = 578;
},
{
anchors = (
{
name = bottom;
position = "{327, 0}";
},
{
name = top;
position = "{327, 660}";
}
);
layerId = "705D5379-5CC9-457D-BF30-EC6EB9252852";
paths = (
{
closed = 1;
nodes = (
"323 0 LINE",
"323 33 LINE",
"252 33 OFFCURVE",
"245 42 OFFCURVE",
"245 89 CURVE SMOOTH",
"245 307 LINE",
"300 307 LINE SMOOTH",
"360 307 OFFCURVE",
"389 282 OFFCURVE",
"400 230 CURVE SMOOTH",
"430 92 LINE SMOOTH",
"440 46 OFFCURVE",
"455 14 OFFCURVE",
"473 0 CURVE",
"636 0 LINE",
"636 33 LINE",
"580 33 OFFCURVE",
"554 81 OFFCURVE",
"545 139 CURVE SMOOTH",
"542 159 LINE SMOOTH",
"529 247 OFFCURVE",
"507 308 OFFCURVE",
"416 330 CURVE",
"416 332 LINE",
"508 346 OFFCURVE",
"571 402 OFFCURVE",
"571 498 CURVE SMOOTH",
"571 601 OFFCURVE",
"498 660 OFFCURVE",
"353 660 CURVE SMOOTH",
"44 660 LINE",
"44 627 LINE",
"116 627 OFFCURVE",
"123 618 OFFCURVE",
"123 570 CURVE SMOOTH",
"123 89 LINE SMOOTH",
"123 43 OFFCURVE",
"117 33 OFFCURVE",
"44 33 CURVE",
"44 0 LINE"
);
},
{
closed = 1;
nodes = (
"245 580 LINE SMOOTH",
"245 607 OFFCURVE",
"253 621 OFFCURVE",
"305 621 CURVE SMOOTH",
"397 621 OFFCURVE",
"442 577 OFFCURVE",
"442 484 CURVE SMOOTH",
"442 392 OFFCURVE",
"398 347 OFFCURVE",
"305 347 CURVE SMOOTH",
"245 347 LINE"
);
}
);
width = 650;
},
{
anchors = (
{
name = bottom;
position = "{344, 0}";
},
{
name = top;
position = "{344, 660}";
}
);
layerId = "C3F6A16D-5E1F-403C-905F-9502D4908E23";
paths = (
{
closed = 1;
nodes = (
"339 0 LINE",
"339 33 LINE",
"282 33 OFFCURVE",
"274 40 OFFCURVE",
"274 89 CURVE SMOOTH",
"274 306 LINE",
"315 306 LINE SMOOTH",
"363 306 OFFCURVE",
"379 276 OFFCURVE",
"389 230 CURVE SMOOTH",
"419 92 LINE SMOOTH",
"428 52 OFFCURVE",
"447 14 OFFCURVE",
"466 0 CURVE",
"663 0 LINE",
"663 33 LINE",
"601 33 OFFCURVE",
"589 62 OFFCURVE",
"572 139 CURVE SMOOTH",
"560 195 LINE SMOOTH",
"541 285 OFFCURVE",
"512 316 OFFCURVE",
"430 330 CURVE",
"430 332 LINE",
"522 347 OFFCURVE",
"600 395 OFFCURVE",
"600 498 CURVE SMOOTH",
"600 601 OFFCURVE",
"523 660 OFFCURVE",
"340 660 CURVE SMOOTH",
"33 660 LINE",
"33 627 LINE",
"94 627 OFFCURVE",
"102 620 OFFCURVE",
"102 570 CURVE SMOOTH",
"102 89 LINE SMOOTH",
"102 40 OFFCURVE",
"98 33 OFFCURVE",
"33 33 CURVE",
"33 0 LINE"
);
},
{
closed = 1;
nodes = (
"274 588 LINE SMOOTH",
"274 617 OFFCURVE",
"280 623 OFFCURVE",
"311 623 CURVE SMOOTH",
"397 623 OFFCURVE",
"431 577 OFFCURVE",
"431 486 CURVE SMOOTH",
"431 387 OFFCURVE",
"391 346 OFFCURVE",
"302 346 CURVE SMOOTH",
"274 346 LINE"
);
}
);
width = 667;
}
);
leftKerningGroup = E;
note = R;
rightKerningGroup = R;
unicode = 0052;
},
{
glyphname = S;
lastChange = "2015-12-10 09:00:40 +0000";
layers = (
{
anchors = (
{
name = bottom;
position = "{248, 0}";
},
{
name = top;
position = "{248, 660}";
}
);
layerId = "A270BFC0-E682-4EED-9FF7-BE35A5492496";
paths = (
{
closed = 1;
nodes = (
"88 -12 LINE",
"89 2 OFFCURVE",
"93 17 OFFCURVE",
"109 17 CURVE SMOOTH",
"131 17 OFFCURVE",
"168 -12 OFFCURVE",
"252 -12 CURVE SMOOTH",
"367 -12 OFFCURVE",
"470 43 OFFCURVE",
"470 171 CURVE SMOOTH",
"470 291 OFFCURVE",
"379 332 OFFCURVE",
"294 369 CURVE SMOOTH",
"236 394 LINE SMOOTH",
"160 426 OFFCURVE",
"132 457 OFFCURVE",
"132 522 CURVE SMOOTH",
"132 610 OFFCURVE",
"183 642 OFFCURVE",
"251 642 CURVE SMOOTH",
"352 642 OFFCURVE",
"396 570 OFFCURVE",
"403 498 CURVE",
"430 498 LINE",
"420 672 LINE",
"396 672 LINE",
"394 660 OFFCURVE",
"391 643 OFFCURVE",
"377 643 CURVE SMOOTH",
"357 643 OFFCURVE",
"337 672 OFFCURVE",
"255 672 CURVE SMOOTH",
"157 672 OFFCURVE",
"56 633 OFFCURVE",
"56 509 CURVE SMOOTH",
"56 408 OFFCURVE",
"124 361 OFFCURVE",
"218 320 CURVE SMOOTH",
"278 294 LINE SMOOTH",
"354 261 OFFCURVE",
"394 224 OFFCURVE",
"394 159 CURVE SMOOTH",
"394 88 OFFCURVE",
"347 18 OFFCURVE",
"250 18 CURVE SMOOTH",
"152 18 OFFCURVE",
"83 89 OFFCURVE",
"76 182 CURVE",
"49 182 LINE",
"61 -12 LINE"
);
}
);
width = 519;
},
{
anchors = (
{
name = bottom;
position = "{265, 0}";
},
{
name = top;
position = "{265, 660}";
}
);
layerId = "705D5379-5CC9-457D-BF30-EC6EB9252852";
paths = (
{
closed = 1;
nodes = (
"75 0 LINE",
"77 9 OFFCURVE",
"88 18 OFFCURVE",
"102 18 CURVE SMOOTH",
"128 18 OFFCURVE",
"152 -12 OFFCURVE",
"248 -12 CURVE SMOOTH",
"423 -12 OFFCURVE",
"483 88 OFFCURVE",
"483 189 CURVE SMOOTH",
"483 299 OFFCURVE",
"411 350 OFFCURVE",
"321 387 CURVE SMOOTH",
"292 399 LINE SMOOTH",
"230 425 OFFCURVE",
"159 456 OFFCURVE",
"159 530 CURVE SMOOTH",
"159 589 OFFCURVE",
"203 632 OFFCURVE",
"271 632 CURVE SMOOTH",
"346 632 OFFCURVE",
"396 580 OFFCURVE",
"416 483 CURVE",
"440 483 LINE",
"430 664 LINE",
"410 664 LINE",
"406 649 OFFCURVE",
"401 645 OFFCURVE",
"392 645 CURVE SMOOTH",
"368 645 OFFCURVE",
"336 672 OFFCURVE",
"258 672 CURVE SMOOTH",
"123 672 OFFCURVE",
"49 590 OFFCURVE",
"49 485 CURVE SMOOTH",
"49 369 OFFCURVE",
"137 321 OFFCURVE",
"230 283 CURVE SMOOTH",
"252 274 LINE SMOOTH",
"328 243 OFFCURVE",
"366 204 OFFCURVE",
"366 141 CURVE SMOOTH",
"366 70 OFFCURVE",
"319 29 OFFCURVE",
"248 29 CURVE SMOOTH",
"135 29 OFFCURVE",
"88 133 OFFCURVE",
"65 209 CURVE",
"40 209 LINE",
"54 0 LINE"
);
}
);
width = 523;
},
{
anchors = (
{
name = bottom;
position = "{267, 0}";
},
{
name = top;
position = "{267, 660}";
}
);
layerId = "C3F6A16D-5E1F-403C-905F-9502D4908E23";
paths = (
{
closed = 1;
nodes = (
"79 0 LINE",
"84 11 OFFCURVE",
"93 18 OFFCURVE",
"109 18 CURVE SMOOTH",
"139 18 OFFCURVE",
"192 -12 OFFCURVE",
"266 -12 CURVE SMOOTH",
"378 -12 OFFCURVE",
"501 57 OFFCURVE",
"501 212 CURVE SMOOTH",
"501 312 OFFCURVE",
"441 373 OFFCURVE",
"350 406 CURVE SMOOTH",
"261 438 LINE SMOOTH",
"222 452 OFFCURVE",
"142 474 OFFCURVE",
"142 545 CURVE SMOOTH",
"142 604 OFFCURVE",
"195 645 OFFCURVE",
"264 645 CURVE SMOOTH",
"346 645 OFFCURVE",
"413 586 OFFCURVE",
"433 493 CURVE",
"474 493 LINE",
"464 664 LINE",
"431 664 LINE",
"428 654 OFFCURVE",
"424 645 OFFCURVE",
"403 645 CURVE SMOOTH",
"366 645 OFFCURVE",
"336 672 OFFCURVE",
"268 672 CURVE SMOOTH",
"135 672 OFFCURVE",
"40 595 OFFCURVE",
"40 466 CURVE SMOOTH",
"40 360 OFFCURVE",
"99 304 OFFCURVE",
"210 265 CURVE SMOOTH",
"281 240 LINE SMOOTH",
"350 216 OFFCURVE",
"389 185 OFFCURVE",
"389 127 CURVE SMOOTH",
"389 46 OFFCURVE",
"323 15 OFFCURVE",
"261 15 CURVE SMOOTH",
"160 15 OFFCURVE",
"86 109 OFFCURVE",
"75 179 CURVE",
"34 179 LINE",
"46 0 LINE"
);
}
);
width = 530;
}
);
leftKerningGroup = S;
note = S;
rightKerningGroup = S;
unicode = 0053;
},
{
glyphname = T;
lastChange = "2015-12-10 09:00:39 +0000";
layers = (
{
anchors = (
{
name = bottom;
position = "{279, 0}";
},
{
name = center;
position = "{279, 330}";
},
{
name = top;
position = "{279, 660}";
}
);
layerId = "A270BFC0-E682-4EED-9FF7-BE35A5492496";
paths = (
{
closed = 1;
nodes = (
"417 0 LINE",
"417 27 LINE",
"324 27 OFFCURVE",
"322 35 OFFCURVE",
"322 89 CURVE SMOOTH",
"322 630 LINE",
"380 630 LINE SMOOTH",
"491 630 OFFCURVE",
"511 609 OFFCURVE",
"523 502 CURVE",
"550 502 LINE",
"550 660 LINE",
"20 660 LINE",
"20 502 LINE",
"47 502 LINE",
"58 609 OFFCURVE",
"78 630 OFFCURVE",
"190 630 CURVE SMOOTH",
"248 630 LINE",
"248 89 LINE SMOOTH",
"248 35 OFFCURVE",
"245 27 OFFCURVE",
"153 27 CURVE",
"153 0 LINE"
);
}
);
width = 570;
},
{
anchors = (
{
name = bottom;
position = "{294, 0}";
},
{
name = center;
position = "{294, 330}";
},
{
name = top;
position = "{294, 660}";
}
);
layerId = "705D5379-5CC9-457D-BF30-EC6EB9252852";
paths = (
{
closed = 1;
nodes = (
"450 0 LINE",
"450 33 LINE",
"367 33 OFFCURVE",
"354 38 OFFCURVE",
"354 88 CURVE SMOOTH",
"354 621 LINE",
"404 621 LINE SMOOTH",
"503 621 OFFCURVE",
"517 587 OFFCURVE",
"542 491 CURVE",
"567 491 LINE",
"567 660 LINE",
"20 660 LINE",
"20 491 LINE",
"45 491 LINE",
"69 587 OFFCURVE",
"84 621 OFFCURVE",
"184 621 CURVE SMOOTH",
"232 621 LINE",
"232 88 LINE SMOOTH",
"232 38 OFFCURVE",
"229 33 OFFCURVE",
"137 33 CURVE",
"137 0 LINE"
);
}
);
width = 587;
},
{
anchors = (
{
name = bottom;
position = "{324, 0}";
},
{
name = center;
position = "{324, 330}";
},
{
name = top;
position = "{324, 660}";
}
);
layerId = "C3F6A16D-5E1F-403C-905F-9502D4908E23";
paths = (
{
closed = 1;
nodes = (
"476 0 LINE",
"476 33 LINE",
"416 33 OFFCURVE",
"411 40 OFFCURVE",
"411 88 CURVE SMOOTH",
"411 628 LINE",
"448 628 LINE SMOOTH",
"511 628 OFFCURVE",
"571 598 OFFCURVE",
"587 481 CURVE",
"627 481 LINE",
"627 660 LINE",
"21 660 LINE",
"20 481 LINE",
"62 481 LINE",
"70 581 OFFCURVE",
"127 628 OFFCURVE",
"193 628 CURVE SMOOTH",
"238 628 LINE",
"238 88 LINE SMOOTH",
"238 40 OFFCURVE",
"233 33 OFFCURVE",
"172 33 CURVE",
"172 0 LINE"
);
}
);
width = 647;
}
);
leftKerningGroup = T;
note = T;
rightKerningGroup = T;
unicode = 0054;
},
{
glyphname = U;
lastChange = "2015-12-10 09:00:40 +0000";
layers = (
{
anchors = (
{
name = bottom;
position = "{361, 0}";
},
{
name = ogonek;
position = "{487, 10}";
},
{
name = top;
position = "{361, 660}";
},
{
name = topright;
position = "{684, 660}";
}
);
layerId = "A270BFC0-E682-4EED-9FF7-BE35A5492496";
paths = (
{
closed = 1;
nodes = (
"521 -12 OFFCURVE",
"600 68 OFFCURVE",
"600 235 CURVE SMOOTH",
"600 571 LINE SMOOTH",
"600 625 OFFCURVE",
"602 633 OFFCURVE",
"676 633 CURVE",
"676 660 LINE",
"450 660 LINE",
"450 633 LINE",
"523 633 OFFCURVE",
"526 625 OFFCURVE",
"526 571 CURVE SMOOTH",
"526 226 LINE SMOOTH",
"526 106 OFFCURVE",
"475 18 OFFCURVE",
"361 18 CURVE SMOOTH",
"247 18 OFFCURVE",
"196 106 OFFCURVE",
"196 226 CURVE SMOOTH",
"196 571 LINE SMOOTH",
"196 625 OFFCURVE",
"199 633 OFFCURVE",
"272 633 CURVE",
"272 660 LINE",
"46 660 LINE",
"46 633 LINE",
"120 633 OFFCURVE",
"122 625 OFFCURVE",
"122 571 CURVE SMOOTH",
"122 235 LINE SMOOTH",
"122 68 OFFCURVE",
"201 -12 OFFCURVE",
"361 -12 CURVE SMOOTH"
);
}
);
width = 719;
},
{
anchors = (
{
name = bottom;
position = "{382, 0}";
},
{
name = ogonek;
position = "{518, 10}";
},
{
name = top;
position = "{382, 660}";
},
{
name = topright;
position = "{734, 660}";
}
);
layerId = "705D5379-5CC9-457D-BF30-EC6EB9252852";
paths = (
{
closed = 1;
nodes = (
"562 -12 OFFCURVE",
"645 61 OFFCURVE",
"645 228 CURVE SMOOTH",
"645 570 LINE SMOOTH",
"645 618 OFFCURVE",
"650 627 OFFCURVE",
"724 627 CURVE",
"724 660 LINE",
"445 660 LINE",
"445 627 LINE",
"516 627 OFFCURVE",
"523 618 OFFCURVE",
"523 570 CURVE SMOOTH",
"523 226 LINE SMOOTH",
"523 96 OFFCURVE",
"476 29 OFFCURVE",
"382 29 CURVE SMOOTH",
"288 29 OFFCURVE",
"239 97 OFFCURVE",
"239 226 CURVE SMOOTH",
"239 570 LINE SMOOTH",
"239 618 OFFCURVE",
"245 627 OFFCURVE",
"318 627 CURVE",
"318 660 LINE",
"39 660 LINE",
"39 627 LINE",
"110 627 OFFCURVE",
"117 618 OFFCURVE",
"117 570 CURVE SMOOTH",
"117 228 LINE SMOOTH",
"117 59 OFFCURVE",
"195 -12 OFFCURVE",
"377 -12 CURVE SMOOTH"
);
}
);
width = 758;
},
{
anchors = (
{
name = bottom;
position = "{386, 0}";
},
{
name = ogonek;
position = "{688, 10}";
},
{
name = top;
position = "{386, 660}";
},
{
name = topright;
position = "{743, 660}";
}
);
layerId = "C3F6A16D-5E1F-403C-905F-9502D4908E23";
paths = (
{
closed = 1;
nodes = (
"590 -12 OFFCURVE",
"675 61 OFFCURVE",
"675 221 CURVE SMOOTH",
"675 570 LINE SMOOTH",
"675 620 OFFCURVE",
"679 627 OFFCURVE",
"743 627 CURVE",
"743 660 LINE",
"437 660 LINE",
"437 627 LINE",
"499 627 OFFCURVE",
"506 621 OFFCURVE",
"506 570 CURVE SMOOTH",
"506 215 LINE SMOOTH",
"506 91 OFFCURVE",
"476 33 OFFCURVE",
"386 33 CURVE SMOOTH",
"296 33 OFFCURVE",
"269 91 OFFCURVE",
"269 215 CURVE SMOOTH",
"269 570 LINE SMOOTH",
"269 621 OFFCURVE",
"276 627 OFFCURVE",
"338 627 CURVE",
"338 660 LINE",
"29 660 LINE",
"29 627 LINE",
"93 627 OFFCURVE",
"97 620 OFFCURVE",
"97 570 CURVE SMOOTH",
"97 221 LINE SMOOTH",
"97 61 OFFCURVE",
"182 -12 OFFCURVE",
"386 -12 CURVE SMOOTH"
);
}
);
width = 769;
}
);
leftKerningGroup = U;
note = U;
rightKerningGroup = U;
unicode = 0055;
},
{
glyphname = V;
lastChange = "2015-12-10 09:00:39 +0000";
layers = (
{
anchors = (
{
name = bottom;
position = "{305, 0}";
},
{
name = top;
position = "{305, 660}";
}
);
layerId = "A270BFC0-E682-4EED-9FF7-BE35A5492496";
paths = (
{
closed = 1;
nodes = (
"335 0 LINE",
"557 583 LINE SMOOTH",
"575 628 OFFCURVE",
"586 633 OFFCURVE",
"630 633 CURVE",
"630 660 LINE",
"449 660 LINE",
"449 633 LINE",
"496 633 LINE SMOOTH",
"521 633 OFFCURVE",
"522 621 OFFCURVE",
"517 603 CURVE SMOOTH",
"339 103 LINE",
"337 105 LINE",
"162 598 LINE SMOOTH",
"154 622 OFFCURVE",
"157 633 OFFCURVE",
"180 633 CURVE SMOOTH",
"232 633 LINE",
"232 660 LINE",
"6 660 LINE",
"6 633 LINE",
"59 633 OFFCURVE",
"71 627 OFFCURVE",
"90 576 CURVE SMOOTH",
"297 0 LINE"
);
}
);
width = 640;
},
{
anchors = (
{
name = bottom;
position = "{329, 0}";
},
{
name = top;
position = "{329, 660}";
}
);
layerId = "705D5379-5CC9-457D-BF30-EC6EB9252852";
paths = (
{
closed = 1;
nodes = (
"372 0 LINE",
"575 573 LINE SMOOTH",
"589 613 OFFCURVE",
"610 627 OFFCURVE",
"657 627 CURVE",
"657 660 LINE",
"450 660 LINE",
"450 627 LINE",
"498 627 LINE SMOOTH",
"523 627 OFFCURVE",
"528 615 OFFCURVE",
"517 580 CURVE SMOOTH",
"371 127 LINE",
"366 127 LINE",
"212 593 LINE SMOOTH",
"204 616 OFFCURVE",
"210 627 OFFCURVE",
"233 627 CURVE SMOOTH",
"277 627 LINE",
"277 660 LINE",
"15 660 LINE",
"15 627 LINE",
"68 627 OFFCURVE",
"77 614 OFFCURVE",
"90 577 CURVE SMOOTH",
"285 0 LINE"
);
}
);
width = 666;
},
{
anchors = (
{
name = bottom;
position = "{343, 0}";
},
{
name = top;
position = "{343, 660}";
}
);
layerId = "C3F6A16D-5E1F-403C-905F-9502D4908E23";
paths = (
{
closed = 1;
nodes = (
"394 0 LINE",
"600 561 LINE SMOOTH",
"618 611 OFFCURVE",
"637 627 OFFCURVE",
"677 627 CURVE",
"677 660 LINE",
"483 660 LINE",
"483 627 LINE",
"526 627 LINE SMOOTH",
"560 627 OFFCURVE",
"563 607 OFFCURVE",
"554 580 CURVE SMOOTH",
"414 166 LINE",
"412 166 LINE",
"263 578 LINE SMOOTH",
"251 611 OFFCURVE",
"263 627 OFFCURVE",
"291 627 CURVE SMOOTH",
"334 627 LINE",
"334 660 LINE",
"8 660 LINE",
"8 627 LINE",
"49 627 OFFCURVE",
"70 619 OFFCURVE",
"85 577 CURVE SMOOTH",
"293 0 LINE"
);
}
);
width = 679;
}
);
note = V;
unicode = 0056;
},
{
glyphname = W;
lastChange = "2015-12-10 09:00:40 +0000";
layers = (
{
anchors = (
{
name = bottom;
position = "{457, 0}";
},
{
name = top;
position = "{457, 660}";
}
);
layerId = "A270BFC0-E682-4EED-9FF7-BE35A5492496";
paths = (
{
closed = 1;
nodes = (
"294 0 LINE",
"443 529 LINE",
"445 529 LINE",
"605 0 LINE",
"647 0 LINE",
"808 569 LINE SMOOTH",
"827 624 OFFCURVE",
"838 633 OFFCURVE",
"897 633 CURVE",
"897 660 LINE",
"709 660 LINE",
"709 633 LINE",
"749 633 LINE SMOOTH",
"772 633 OFFCURVE",
"775 617 OFFCURVE",
"770 597 CURVE SMOOTH",
"648 114 LINE",
"645 114 LINE",
"483 643 LINE",
"442 643 LINE",
"296 114 LINE",
"294 114 LINE",
"162 594 LINE SMOOTH",
"154 625 OFFCURVE",
"159 633 OFFCURVE",
"182 633 CURVE SMOOTH",
"222 633 LINE",
"222 660 LINE",
"13 660 LINE",
"13 633 LINE",
"69 633 OFFCURVE",
"77 627 OFFCURVE",
"94 570 CURVE SMOOTH",
"250 0 LINE"
);
}
);
width = 907;
},
{
anchors = (
{
name = bottom;
position = "{458, 0}";
},
{
name = top;
position = "{458, 660}";
}
);
layerId = "705D5379-5CC9-457D-BF30-EC6EB9252852";
paths = (
{
closed = 1;
nodes = (
"328 0 LINE",
"452 478 LINE",
"456 478 LINE",
"587 0 LINE",
"676 0 LINE",
"823 544 LINE SMOOTH",
"839 606 OFFCURVE",
"855 627 OFFCURVE",
"912 627 CURVE",
"912 660 LINE",
"702 660 LINE",
"702 627 LINE",
"759 627 LINE SMOOTH",
"792 627 OFFCURVE",
"785 611 OFFCURVE",
"778 580 CURVE SMOOTH",
"669 136 LINE",
"664 136 LINE",
"527 646 LINE",
"448 646 LINE",
"321 137 LINE",
"317 137 LINE",
"200 593 LINE SMOOTH",
"193 621 OFFCURVE",
"198 627 OFFCURVE",
"221 627 CURVE SMOOTH",
"266 627 LINE",
"266 660 LINE",
"15 660 LINE",
"15 627 LINE",
"63 627 OFFCURVE",
"76 615 OFFCURVE",
"86 577 CURVE SMOOTH",
"239 0 LINE"
);
}
);
width = 921;
},
{
anchors = (
{
name = bottom;
position = "{472, 0}";
},
{
name = top;
position = "{472, 660}";
}
);
layerId = "C3F6A16D-5E1F-403C-905F-9502D4908E23";
paths = (
{
closed = 1;
nodes = (
"320 0 LINE",
"476 487 LINE",
"478 487 LINE",
"632 0 LINE",
"712 0 LINE",
"861 544 LINE SMOOTH",
"881 618 OFFCURVE",
"897 627 OFFCURVE",
"937 627 CURVE",
"937 660 LINE",
"753 660 LINE",
"753 627 LINE",
"789 627 LINE SMOOTH",
"825 627 OFFCURVE",
"834 614 OFFCURVE",
"825 580 CURVE SMOOTH",
"735 238 LINE",
"733 238 LINE",
"605 646 LINE",
"491 646 LINE",
"357 230 LINE",
"355 230 LINE",
"256 582 LINE SMOOTH",
"247 614 OFFCURVE",
"255 627 OFFCURVE",
"285 627 CURVE SMOOTH",
"323 627 LINE",
"323 660 LINE",
"8 660 LINE",
"8 627 LINE",
"54 627 OFFCURVE",
"66 613 OFFCURVE",
"77 577 CURVE SMOOTH",
"245 0 LINE"
);
}
);
width = 940;
}
);
note = W;
unicode = 0057;
},
{
glyphname = X;
lastChange = "2015-12-10 09:00:39 +0000";
layers = (
{
anchors = (
{
name = bottom;
position = "{331, 0}";
},
{
name = top;
position = "{331, 660}";
}
);
layerId = "A270BFC0-E682-4EED-9FF7-BE35A5492496";
paths = (
{
closed = 1;
nodes = (
"642 0 LINE",
"642 27 LINE",
"573 27 OFFCURVE",
"562 38 OFFCURVE",
"534 82 CURVE SMOOTH",
"350 369 LINE",
"350 389 LINE",
"336 389 LINE",
"202 600 LINE SMOOTH",
"190 619 OFFCURVE",
"192 633 OFFCURVE",
"210 633 CURVE SMOOTH",
"259 633 LINE",
"259 660 LINE",
"33 660 LINE",
"33 633 LINE",
"93 633 OFFCURVE",
"105 624 OFFCURVE",
"137 572 CURVE SMOOTH",
"291 327 LINE",
"291 304 LINE",
"308 304 LINE",
"459 61 LINE SMOOTH",
"470 43 OFFCURVE",
"466 27 OFFCURVE",
"443 27 CURVE SMOOTH",
"391 27 LINE",
"391 0 LINE"
);
},
{
closed = 1;
nodes = (
"229 0 LINE",
"229 27 LINE",
"168 27 LINE SMOOTH",
"149 27 OFFCURVE",
"148 45 OFFCURVE",
"157 60 CURVE SMOOTH",
"306 304 LINE",
"299 351 LINE",
"121 79 LINE SMOOTH",
"91 33 OFFCURVE",
"75 27 OFFCURVE",
"19 27 CURVE",
"19 0 LINE"
);
},
{
closed = 1;
nodes = (
"505 574 LINE SMOOTH",
"543 628 OFFCURVE",
"558 633 OFFCURVE",
"615 633 CURVE",
"615 660 LINE",
"422 660 LINE",
"422 633 LINE",
"470 633 LINE SMOOTH",
"491 633 OFFCURVE",
"491 620 OFFCURVE",
"479 601 CURVE SMOOTH",
"338 389 LINE",
"343 342 LINE"
);
}
);
width = 660;
},
{
anchors = (
{
name = bottom;
position = "{319, 0}";
},
{
name = top;
position = "{319, 660}";
}
);
layerId = "705D5379-5CC9-457D-BF30-EC6EB9252852";
paths = (
{
closed = 1;
nodes = (
"645 0 LINE",
"645 33 LINE",
"587 33 OFFCURVE",
"573 43 OFFCURVE",
"545 88 CURVE SMOOTH",
"358 389 LINE",
"349 420 LINE",
"336 420 LINE",
"233 595 LINE SMOOTH",
"220 617 OFFCURVE",
"225 627 OFFCURVE",
"246 627 CURVE SMOOTH",
"283 627 LINE",
"283 660 LINE",
"19 660 LINE",
"19 627 LINE",
"69 627 OFFCURVE",
"82 618 OFFCURVE",
"109 576 CURVE SMOOTH",
"272 310 LINE",
"273 273 LINE",
"293 273 LINE",
"415 68 LINE SMOOTH",
"430 48 OFFCURVE",
"420 33 OFFCURVE",
"399 33 CURVE SMOOTH",
"353 33 LINE",
"353 0 LINE"
);
},
{
closed = 1;
nodes = (
"240 0 LINE",
"240 33 LINE",
"192 33 LINE SMOOTH",
"174 33 OFFCURVE",
"160 45 OFFCURVE",
"170 69 CURVE SMOOTH",
"295 285 LINE",
"273 327 LINE",
"108 83 LINE SMOOTH",
"83 46 OFFCURVE",
"68 33 OFFCURVE",
"10 33 CURVE",
"10 0 LINE"
);
},
{
closed = 1;
nodes = (
"504 579 LINE SMOOTH",
"533 617 OFFCURVE",
"555 627 OFFCURVE",
"604 627 CURVE",
"604 660 LINE",
"395 660 LINE",
"395 627 LINE",
"434 627 LINE SMOOTH",
"456 627 OFFCURVE",
"458 617 OFFCURVE",
"445 598 CURVE SMOOTH",
"334 409 LINE",
"357 373 LINE"
);
}
);
width = 655;
},
{
anchors = (
{
name = bottom;
position = "{353, 0}";
},
{
name = top;
position = "{353, 660}";
}
);
layerId = "C3F6A16D-5E1F-403C-905F-9502D4908E23";
paths = (
{
closed = 1;
nodes = (
"692 0 LINE",
"692 33 LINE",
"638 33 OFFCURVE",
"615 51 OFFCURVE",
"572 122 CURVE SMOOTH",
"410 389 LINE",
"412 420 LINE",
"392 420 LINE",
"297 584 LINE SMOOTH",
"282 609 OFFCURVE",
"292 627 OFFCURVE",
"320 627 CURVE SMOOTH",
"346 627 LINE",
"346 660 LINE",
"18 660 LINE",
"18 627 LINE",
"64 627 OFFCURVE",
"71 621 OFFCURVE",
"98 576 CURVE SMOOTH",
"261 306 LINE",
"261 274 LINE",
"282 274 LINE",
"395 87 LINE SMOOTH",
"415 54 OFFCURVE",
"414 33 OFFCURVE",
"381 33 CURVE SMOOTH",
"346 33 LINE",
"346 0 LINE"
);
},
{
closed = 1;
nodes = (
"206 0 LINE",
"206 33 LINE",
"168 33 LINE SMOOTH",
"140 33 OFFCURVE",
"133 53 OFFCURVE",
"149 78 CURVE SMOOTH",
"304 310 LINE",
"287 341 LINE",
"107 89 LINE SMOOTH",
"79 50 OFFCURVE",
"63 33 OFFCURVE",
"13 33 CURVE",
"13 0 LINE"
);
},
{
closed = 1;
nodes = (
"529 560 LINE SMOOTH",
"566 614 OFFCURVE",
"583 627 OFFCURVE",
"638 627 CURVE",
"638 660 LINE",
"445 660 LINE",
"445 627 LINE",
"464 627 LINE SMOOTH",
"501 627 OFFCURVE",
"503 592 OFFCURVE",
"485 563 CURVE SMOOTH",
"387 409 LINE",
"382 345 LINE"
);
}
);
width = 704;
}
);
note = X;
unicode = 0058;
},
{
glyphname = Y;
lastChange = "2015-12-10 09:00:40 +0000";
layers = (
{
anchors = (
{
name = bottom;
position = "{309, 0}";
},
{
name = top;
position = "{309, 660}";
},
{
name = topleft;
position = "{47, 660}";
}
);
layerId = "A270BFC0-E682-4EED-9FF7-BE35A5492496";
paths = (
{
closed = 1;
nodes = (
"408 633 LINE",
"463 633 LINE SMOOTH",
"480 633 OFFCURVE",
"483 620 OFFCURVE",
"474 602 CURVE SMOOTH",
"332 310 LINE",
"330 310 LINE",
"180 604 LINE SMOOTH",
"171 621 OFFCURVE",
"176 633 OFFCURVE",
"190 633 CURVE SMOOTH",
"240 633 LINE",
"240 660 LINE",
"24 660 LINE",
"24 633 LINE",
"74 633 OFFCURVE",
"87 625 OFFCURVE",
"108 585 CURVE SMOOTH",
"279 257 LINE",
"279 89 LINE SMOOTH",
"279 36 OFFCURVE",
"276 27 OFFCURVE",
"188 27 CURVE",
"188 0 LINE",
"444 0 LINE",
"444 27 LINE",
"356 27 OFFCURVE",
"353 36 OFFCURVE",
"353 89 CURVE SMOOTH",
"353 271 LINE",
"500 570 LINE SMOOTH",
"529 622 OFFCURVE",
"534 633 OFFCURVE",
"592 633 CURVE",
"592 660 LINE",
"408 660 LINE"
);
}
);
width = 611;
},
{
anchors = (
{
name = bottom;
position = "{305, 0}";
},
{
name = top;
position = "{305, 660}";
},
{
name = topleft;
position = "{40, 660}";
}
);
layerId = "705D5379-5CC9-457D-BF30-EC6EB9252852";
paths = (
{
closed = 1;
nodes = (
"411 627 LINE",
"456 627 LINE SMOOTH",
"480 627 OFFCURVE",
"481 613 OFFCURVE",
"472 592 CURVE SMOOTH",
"352 322 LINE",
"349 322 LINE",
"223 596 LINE SMOOTH",
"215 614 OFFCURVE",
"214 627 OFFCURVE",
"239 627 CURVE SMOOTH",
"287 627 LINE",
"287 660 LINE",
"15 660 LINE",
"15 627 LINE",
"63 627 OFFCURVE",
"77 616 OFFCURVE",
"97 577 CURVE SMOOTH",
"257 259 LINE",
"257 90 LINE SMOOTH",
"257 43 OFFCURVE",
"252 33 OFFCURVE",
"165 33 CURVE",
"165 0 LINE",
"467 0 LINE",
"467 33 LINE",
"382 33 OFFCURVE",
"372 42 OFFCURVE",
"372 90 CURVE SMOOTH",
"372 269 LINE",
"529 578 LINE SMOOTH",
"550 619 OFFCURVE",
"568 627 OFFCURVE",
"623 627 CURVE",
"623 660 LINE",
"411 660 LINE"
);
}
);
width = 633;
},
{
anchors = (
{
name = bottom;
position = "{336, 0}";
},
{
name = top;
position = "{336, 660}";
},
{
name = topleft;
position = "{29, 660}";
}
);
layerId = "C3F6A16D-5E1F-403C-905F-9502D4908E23";
paths = (
{
closed = 1;
nodes = (
"465 627 LINE",
"497 627 LINE SMOOTH",
"521 627 OFFCURVE",
"552 607 OFFCURVE",
"526 552 CURVE SMOOTH",
"412 314 LINE",
"411 314 LINE",
"290 565 LINE SMOOTH",
"266 614 OFFCURVE",
"284 627 OFFCURVE",
"307 627 CURVE SMOOTH",
"346 627 LINE",
"346 660 LINE",
"8 660 LINE",
"8 627 LINE",
"65 627 OFFCURVE",
"74 613 OFFCURVE",
"92 577 CURVE SMOOTH",
"254 251 LINE",
"254 90 LINE SMOOTH",
"254 41 OFFCURVE",
"248 33 OFFCURVE",
"187 33 CURVE",
"187 0 LINE",
"497 0 LINE",
"497 33 LINE",
"435 33 OFFCURVE",
"426 39 OFFCURVE",
"426 90 CURVE SMOOTH",
"426 262 LINE",
"574 553 LINE SMOOTH",
"600 604 OFFCURVE",
"613 627 OFFCURVE",
"663 627 CURVE",
"663 660 LINE",
"465 660 LINE"
);
}
);
width = 665;
}
);
leftKerningGroup = Y;
note = Y;
rightKerningGroup = Y;
unicode = 0059;
},
{
glyphname = Z;
lastChange = "2015-12-10 09:00:40 +0000";
layers = (
{
anchors = (
{
name = bottom;
position = "{290, 0}";
},
{
name = top;
position = "{290, 660}";
}
);
layerId = "A270BFC0-E682-4EED-9FF7-BE35A5492496";
paths = (
{
closed = 1;
nodes = (
"530 0 LINE",
"540 170 LINE",
"512 170 LINE",
"495 48 OFFCURVE",
"450 30 OFFCURVE",
"303 30 CURVE SMOOTH",
"106 30 LINE",
"534 633 LINE",
"534 660 LINE",
"81 660 LINE",
"81 496 LINE",
"108 496 LINE",
"120 609 OFFCURVE",
"144 630 OFFCURVE",
"274 630 CURVE SMOOTH",
"454 630 LINE",
"26 27 LINE",
"26 0 LINE"
);
}
);
width = 566;
},
{
anchors = (
{
name = bottom;
position = "{291, 0}";
},
{
name = top;
position = "{291, 660}";
}
);
layerId = "705D5379-5CC9-457D-BF30-EC6EB9252852";
paths = (
{
closed = 1;
nodes = (
"553 0 LINE",
"565 187 LINE",
"539 187 LINE",
"509 77 OFFCURVE",
"477 39 OFFCURVE",
"332 39 CURVE SMOOTH",
"163 39 LINE",
"557 630 LINE",
"557 660 LINE",
"68 660 LINE",
"68 484 LINE",
"94 484 LINE",
"112 592 OFFCURVE",
"146 621 OFFCURVE",
"269 621 CURVE SMOOTH",
"408 621 LINE",
"20 32 LINE",
"20 0 LINE"
);
}
);
width = 585;
},
{
anchors = (
{
name = bottom;
position = "{302, 0}";
},
{
name = top;
position = "{302, 660}";
}
);
layerId = "C3F6A16D-5E1F-403C-905F-9502D4908E23";
paths = (
{
closed = 1;
nodes = (
"572 0 LINE",
"584 187 LINE",
"543 187 LINE",
"502 45 OFFCURVE",
"458 34 OFFCURVE",
"331 33 CURVE SMOOTH",
"214 32 LINE",
"562 627 LINE",
"563 660 LINE",
"47 660 LINE",
"47 484 LINE",
"88 484 LINE",
"100 586 OFFCURVE",
"139 627 OFFCURVE",
"253 627 CURVE SMOOTH",
"368 627 LINE",
"20 33 LINE",
"20 0 LINE"
);
}
);
width = 604;
}
);
leftKerningGroup = Z;
note = Z;
rightKerningGroup = Z;
unicode = 005A;
},
{
glyphname = a;
lastChange = "2015-12-10 09:00:39 +0000";
layers = (
{
anchors = (
{
name = bottom;
position = "{247, 0}";
},
{
name = ogonek;
position = "{469, 10}";
},
{
name = top;
position = "{247, 467}";
}
);
layerId = "A270BFC0-E682-4EED-9FF7-BE35A5492496";
paths = (
{
closed = 1;
nodes = (
"428 -10 OFFCURVE",
"451 6 OFFCURVE",
"463 13 CURVE",
"457 36 LINE",
"448 33 OFFCURVE",
"441 30 OFFCURVE",
"429 30 CURVE SMOOTH",
"404 30 OFFCURVE",
"393 44 OFFCURVE",
"393 98 CURVE SMOOTH",
"393 345 LINE SMOOTH",
"393 446 OFFCURVE",
"342 479 OFFCURVE",
"250 479 CURVE SMOOTH",
"126 479 OFFCURVE",
"78 419 OFFCURVE",
"78 364 CURVE SMOOTH",
"78 332 OFFCURVE",
"95 313 OFFCURVE",
"123 313 CURVE SMOOTH",
"150 313 OFFCURVE",
"164 330 OFFCURVE",
"164 355 CURVE SMOOTH",
"164 391 OFFCURVE",
"133 390 OFFCURVE",
"133 405 CURVE SMOOTH",
"133 423 OFFCURVE",
"181 452 OFFCURVE",
"237 452 CURVE SMOOTH",
"304 452 OFFCURVE",
"327 411 OFFCURVE",
"327 340 CURVE SMOOTH",
"327 77 LINE SMOOTH",
"327 -3 OFFCURVE",
"354 -10 OFFCURVE",
"383 -10 CURVE SMOOTH"
);
},
{
closed = 1;
nodes = (
"246 -12 OFFCURVE",
"291 18 OFFCURVE",
"353 74 CURVE",
"353 101 LINE",
"311 66 OFFCURVE",
"267 32 OFFCURVE",
"209 32 CURVE SMOOTH",
"160 32 OFFCURVE",
"129 55 OFFCURVE",
"129 106 CURVE SMOOTH",
"129 184 OFFCURVE",
"203 236 OFFCURVE",
"354 261 CURVE",
"354 287 LINE",
"152 264 OFFCURVE",
"53 185 OFFCURVE",
"53 89 CURVE SMOOTH",
"53 20 OFFCURVE",
"105 -12 OFFCURVE",
"177 -12 CURVE SMOOTH"
);
}
);
width = 477;
},
{
anchors = (
{
name = bottom;
position = "{257, 0}";
},
{
name = ogonek;
position = "{493, 10}";
},
{
name = top;
position = "{257, 470}";
}
);
layerId = "705D5379-5CC9-457D-BF30-EC6EB9252852";
paths = (
{
closed = 1;
nodes = (
"453 -10 OFFCURVE",
"486 9 OFFCURVE",
"506 21 CURVE",
"496 48 LINE",
"487 44 OFFCURVE",
"480 40 OFFCURVE",
"468 40 CURVE SMOOTH",
"443 40 OFFCURVE",
"432 54 OFFCURVE",
"432 108 CURVE SMOOTH",
"432 330 LINE SMOOTH",
"432 442 OFFCURVE",
"380 477 OFFCURVE",
"277 477 CURVE SMOOTH",
"145 477 OFFCURVE",
"72 416 OFFCURVE",
"72 351 CURVE SMOOTH",
"72 316 OFFCURVE",
"95 293 OFFCURVE",
"130 293 CURVE SMOOTH",
"164 293 OFFCURVE",
"185 314 OFFCURVE",
"185 347 CURVE SMOOTH",
"185 380 OFFCURVE",
"157 382 OFFCURVE",
"157 403 CURVE SMOOTH",
"157 414 OFFCURVE",
"187 429 OFFCURVE",
"226 429 CURVE SMOOTH",
"297 429 OFFCURVE",
"318 397 OFFCURVE",
"319 345 CURVE SMOOTH",
"319 57 LINE SMOOTH",
"319 -2 OFFCURVE",
"346 -10 OFFCURVE",
"395 -10 CURVE SMOOTH"
);
},
{
closed = 1;
nodes = (
"246 -10 OFFCURVE",
"299 38 OFFCURVE",
"338 74 CURVE",
"338 115 LINE",
"316 97 OFFCURVE",
"281 62 OFFCURVE",
"232 62 CURVE SMOOTH",
"181 62 OFFCURVE",
"158 85 OFFCURVE",
"158 125 CURVE SMOOTH",
"158 189 OFFCURVE",
"215 225 OFFCURVE",
"339 249 CURVE",
"339 287 LINE",
"156 259 OFFCURVE",
"45 184 OFFCURVE",
"45 90 CURVE SMOOTH",
"45 23 OFFCURVE",
"101 -10 OFFCURVE",
"169 -10 CURVE SMOOTH"
);
}
);
width = 512;
},
{
anchors = (
{
name = bottom;
position = "{271, 0}";
},
{
name = ogonek;
position = "{491, 10}";
},
{
name = top;
position = "{271, 470}";
}
);
layerId = "C3F6A16D-5E1F-403C-905F-9502D4908E23";
paths = (
{
closed = 1;
nodes = (
"458 -12 OFFCURVE",
"500 -6 OFFCURVE",
"541 21 CURVE",
"529 52 LINE",
"520 47 OFFCURVE",
"510 40 OFFCURVE",
"491 40 CURVE SMOOTH",
"476 40 OFFCURVE",
"469 48 OFFCURVE",
"469 95 CURVE SMOOTH",
"469 314 LINE SMOOTH",
"469 424 OFFCURVE",
"419 482 OFFCURVE",
"297 482 CURVE SMOOTH",
"121 482 OFFCURVE",
"64 411 OFFCURVE",
"64 360 CURVE SMOOTH",
"64 329 OFFCURVE",
"90 294 OFFCURVE",
"140 294 CURVE SMOOTH",
"190 294 OFFCURVE",
"218 330 OFFCURVE",
"218 363 CURVE SMOOTH",
"218 397 OFFCURVE",
"196 404 OFFCURVE",
"196 421 CURVE SMOOTH",
"196 439 OFFCURVE",
"219 447 OFFCURVE",
"246 447 CURVE SMOOTH",
"295 447 OFFCURVE",
"309 419 OFFCURVE",
"309 361 CURVE SMOOTH",
"309 60 LINE SMOOTH",
"309 33 OFFCURVE",
"339 -12 OFFCURVE",
"415 -12 CURVE SMOOTH"
);
},
{
closed = 1;
nodes = (
"279 -12 OFFCURVE",
"330 33 OFFCURVE",
"368 74 CURVE",
"349 101 LINE",
"330 81 OFFCURVE",
"289 41 OFFCURVE",
"248 41 CURVE SMOOTH",
"211 41 OFFCURVE",
"191 58 OFFCURVE",
"191 114 CURVE SMOOTH",
"191 183 OFFCURVE",
"243 225 OFFCURVE",
"369 249 CURVE",
"369 287 LINE",
"169 261 OFFCURVE",
"31 200 OFFCURVE",
"31 99 CURVE SMOOTH",
"31 27 OFFCURVE",
"78 -12 OFFCURVE",
"179 -12 CURVE SMOOTH"
);
}
);
width = 537;
}
);
leftKerningGroup = a;
note = a;
rightKerningGroup = a;
unicode = 0061;
},
{
glyphname = ae;
lastChange = "2015-12-10 09:00:40 +0000";
layers = (
{
anchors = (
{
name = bottom;
position = "{375, 0}";
},
{
name = top;
position = "{375, 467}";
}
);
layerId = "A270BFC0-E682-4EED-9FF7-BE35A5492496";
paths = (
{
closed = 1;
nodes = (
"627 -12 OFFCURVE",
"675 50 OFFCURVE",
"696 123 CURVE",
"671 131 LINE",
"656 78 OFFCURVE",
"614 15 OFFCURVE",
"534 15 CURVE SMOOTH",
"429 15 OFFCURVE",
"397 123 OFFCURVE",
"397 241 CURVE SMOOTH",
"397 363 OFFCURVE",
"431 452 OFFCURVE",
"519 452 CURVE SMOOTH",
"593 452 OFFCURVE",
"624 388 OFFCURVE",
"624 267 CURVE",
"390 267 LINE",
"389 240 LINE",
"700 240 LINE",
"700 247 LINE SMOOTH",
"700 339 OFFCURVE",
"680 479 OFFCURVE",
"521 479 CURVE SMOOTH",
"377 479 OFFCURVE",
"317 363 OFFCURVE",
"317 223 CURVE SMOOTH",
"317 84 OFFCURVE",
"376 -12 OFFCURVE",
"515 -12 CURVE SMOOTH"
);
},
{
closed = 1;
nodes = (
"246 -12 OFFCURVE",
"291 18 OFFCURVE",
"353 74 CURVE",
"353 101 LINE",
"311 66 OFFCURVE",
"267 32 OFFCURVE",
"209 32 CURVE SMOOTH",
"160 32 OFFCURVE",
"129 56 OFFCURVE",
"129 103 CURVE SMOOTH",
"129 174 OFFCURVE",
"199 218 OFFCURVE",
"354 241 CURVE",
"354 267 LINE",
"148 245 OFFCURVE",
"53 175 OFFCURVE",
"53 86 CURVE SMOOTH",
"53 21 OFFCURVE",
"105 -12 OFFCURVE",
"177 -12 CURVE SMOOTH"
);
},
{
closed = 1;
nodes = (
"383 250 LINE",
"383 345 LINE SMOOTH",
"383 445 OFFCURVE",
"332 479 OFFCURVE",
"242 479 CURVE SMOOTH",
"122 479 OFFCURVE",
"78 419 OFFCURVE",
"78 365 CURVE SMOOTH",
"78 331 OFFCURVE",
"95 313 OFFCURVE",
"123 313 CURVE SMOOTH",
"151 313 OFFCURVE",
"164 331 OFFCURVE",
"164 355 CURVE SMOOTH",
"164 391 OFFCURVE",
"133 390 OFFCURVE",
"133 405 CURVE SMOOTH",
"133 423 OFFCURVE",
"175 452 OFFCURVE",
"229 452 CURVE SMOOTH",
"294 452 OFFCURVE",
"317 410 OFFCURVE",
"317 340 CURVE SMOOTH",
"317 250 LINE"
);
}
);
width = 746;
},
{
anchors = (
{
name = bottom;
position = "{389, 0}";
},
{
name = top;
position = "{389, 470}";
}
);
layerId = "705D5379-5CC9-457D-BF30-EC6EB9252852";
paths = (
{
closed = 1;
nodes = (
"669 -10 OFFCURVE",
"711 70 OFFCURVE",
"736 125 CURVE",
"709 143 LINE",
"679 88 OFFCURVE",
"649 53 OFFCURVE",
"576 53 CURVE SMOOTH",
"466 53 OFFCURVE",
"440 134 OFFCURVE",
"440 257 CURVE SMOOTH",
"440 386 OFFCURVE",
"469 440 OFFCURVE",
"537 440 CURVE SMOOTH",
"598 440 OFFCURVE",
"619 398 OFFCURVE",
"619 269 CURVE",
"435 269 LINE",
"435 229 LINE",
"741 229 LINE",
"741 237 LINE SMOOTH",
"741 402 OFFCURVE",
"685 480 OFFCURVE",
"540 480 CURVE SMOOTH",
"393 480 OFFCURVE",
"318 400 OFFCURVE",
"318 237 CURVE SMOOTH",
"318 71 OFFCURVE",
"396 -10 OFFCURVE",
"533 -10 CURVE SMOOTH"
);
},
{
closed = 1;
nodes = (
"258 -10 OFFCURVE",
"324 36 OFFCURVE",
"368 70 CURVE",
"368 121 LINE",
"340 100 OFFCURVE",
"303 62 OFFCURVE",
"234 62 CURVE SMOOTH",
"181 62 OFFCURVE",
"158 84 OFFCURVE",
"158 125 CURVE SMOOTH",
"158 189 OFFCURVE",
"215 225 OFFCURVE",
"339 249 CURVE",
"339 287 LINE",
"151 258 OFFCURVE",
"45 182 OFFCURVE",
"45 90 CURVE SMOOTH",
"45 23 OFFCURVE",
"100 -10 OFFCURVE",
"172 -10 CURVE SMOOTH"
);
},
{
closed = 1;
nodes = (
"432 258 LINE",
"432 330 LINE SMOOTH",
"432 441 OFFCURVE",
"381 477 OFFCURVE",
"278 477 CURVE SMOOTH",
"145 477 OFFCURVE",
"72 416 OFFCURVE",
"72 352 CURVE SMOOTH",
"72 316 OFFCURVE",
"95 293 OFFCURVE",
"130 293 CURVE SMOOTH",
"164 293 OFFCURVE",
"185 314 OFFCURVE",
"185 347 CURVE SMOOTH",
"185 385 OFFCURVE",
"157 392 OFFCURVE",
"157 403 CURVE SMOOTH",
"157 414 OFFCURVE",
"181 429 OFFCURVE",
"227 429 CURVE SMOOTH",
"295 429 OFFCURVE",
"319 397 OFFCURVE",
"319 345 CURVE SMOOTH",
"319 258 LINE"
);
}
);
width = 787;
},
{
anchors = (
{
name = bottom;
position = "{401, 0}";
},
{
name = top;
position = "{401, 470}";
}
);
layerId = "C3F6A16D-5E1F-403C-905F-9502D4908E23";
paths = (
{
closed = 1;
nodes = (
"678 -12 OFFCURVE",
"724 64 OFFCURVE",
"752 127 CURVE",
"716 144 LINE",
"691 89 OFFCURVE",
"648 50 OFFCURVE",
"579 50 CURVE SMOOTH",
"499 50 OFFCURVE",
"469 103 OFFCURVE",
"469 265 CURVE SMOOTH",
"469 416 OFFCURVE",
"495 449 OFFCURVE",
"535 449 CURVE SMOOTH",
"585 449 OFFCURVE",
"600 398 OFFCURVE",
"600 266 CURVE",
"387 266 LINE",
"387 233 LINE",
"767 233 LINE",
"767 239 LINE SMOOTH",
"767 398 OFFCURVE",
"691 482 OFFCURVE",
"546 482 CURVE SMOOTH",
"385 482 OFFCURVE",
"309 378 OFFCURVE",
"309 225 CURVE SMOOTH",
"309 75 OFFCURVE",
"383 -12 OFFCURVE",
"535 -12 CURVE SMOOTH"
);
},
{
closed = 1;
nodes = (
"280 -12 OFFCURVE",
"341 33 OFFCURVE",
"388 74 CURVE",
"391 124 LINE",
"371 108 OFFCURVE",
"314 41 OFFCURVE",
"247 41 CURVE SMOOTH",
"214 41 OFFCURVE",
"191 57 OFFCURVE",
"191 109 CURVE SMOOTH",
"191 186 OFFCURVE",
"242 220 OFFCURVE",
"369 233 CURVE",
"369 266 LINE",
"182 262 OFFCURVE",
"31 205 OFFCURVE",
"31 93 CURVE SMOOTH",
"31 30 OFFCURVE",
"79 -12 OFFCURVE",
"178 -12 CURVE SMOOTH"
);
},
{
closed = 1;
nodes = (
"459 253 LINE",
"459 314 LINE SMOOTH",
"459 393 OFFCURVE",
"421 482 OFFCURVE",
"272 482 CURVE SMOOTH",
"151 482 OFFCURVE",
"64 423 OFFCURVE",
"64 362 CURVE SMOOTH",
"64 328 OFFCURVE",
"90 294 OFFCURVE",
"140 294 CURVE SMOOTH",
"190 294 OFFCURVE",
"218 329 OFFCURVE",
"218 365 CURVE SMOOTH",
"218 396 OFFCURVE",
"196 404 OFFCURVE",
"196 421 CURVE SMOOTH",
"196 439 OFFCURVE",
"219 447 OFFCURVE",
"246 447 CURVE SMOOTH",
"295 447 OFFCURVE",
"309 419 OFFCURVE",
"309 361 CURVE SMOOTH",
"309 253 LINE"
);
}
);
width = 795;
}
);
leftKerningGroup = a;
note = ae;
rightKerningGroup = e;
unicode = 00E6;
},
{
glyphname = b;
lastChange = "2015-12-10 09:00:39 +0000";
layers = (
{
anchors = (
{
name = bottom;
position = "{278, 0}";
},
{
name = top;
position = "{278, 470}";
}
);
layerId = "A270BFC0-E682-4EED-9FF7-BE35A5492496";
paths = (
{
closed = 1;
nodes = (
"421 -12 OFFCURVE",
"504 60 OFFCURVE",
"504 241 CURVE SMOOTH",
"504 398 OFFCURVE",
"442 479 OFFCURVE",
"323 479 CURVE SMOOTH",
"217 479 OFFCURVE",
"167 423 OFFCURVE",
"150 406 CURVE",
"150 370 LINE",
"171 391 OFFCURVE",
"226 452 OFFCURVE",
"305 452 CURVE SMOOTH",
"395 452 OFFCURVE",
"428 367 OFFCURVE",
"428 235 CURVE SMOOTH",
"428 75 OFFCURVE",
"379 14 OFFCURVE",
"296 14 CURVE SMOOTH",
"216 14 OFFCURVE",
"162 80 OFFCURVE",
"136 129 CURVE",
"136 81 LINE",
"158 53 OFFCURVE",
"204 -12 OFFCURVE",
"306 -12 CURVE SMOOTH"
);
},
{
closed = 1;
nodes = (
"136 0 LINE",
"170 41 LINE",
"175 41 LINE",
"175 693 LINE",
"148 693 LINE",
"39 672 LINE",
"39 645 LINE",
"78 645 LINE SMOOTH",
"103 645 OFFCURVE",
"109 638 OFFCURVE",
"109 601 CURVE SMOOTH",
"109 0 LINE"
);
},
{
closed = 1;
nodes = (
"182 418 LINE",
"182 431 LINE",
"173 431 LINE",
"173 418 LINE"
);
}
);
width = 554;
},
{
anchors = (
{
name = bottom;
position = "{293, 0}";
},
{
name = top;
position = "{293, 470}";
}
);
layerId = "705D5379-5CC9-457D-BF30-EC6EB9252852";
paths = (
{
closed = 1;
nodes = (
"444 -11 OFFCURVE",
"533 68 OFFCURVE",
"533 248 CURVE SMOOTH",
"533 404 OFFCURVE",
"466 480 OFFCURVE",
"352 480 CURVE SMOOTH",
"283 480 OFFCURVE",
"225 452 OFFCURVE",
"193 419 CURVE",
"185 365 LINE",
"232 401 OFFCURVE",
"254 415 OFFCURVE",
"290 415 CURVE SMOOTH",
"368 415 OFFCURVE",
"410 350 OFFCURVE",
"410 221 CURVE SMOOTH",
"410 91 OFFCURVE",
"367 29 OFFCURVE",
"287 29 CURVE SMOOTH",
"251 29 OFFCURVE",
"216 41 OFFCURVE",
"187 74 CURVE",
"131 32 LINE",
"183 11 OFFCURVE",
"228 -11 OFFCURVE",
"303 -11 CURVE SMOOTH"
);
},
{
closed = 1;
nodes = (
"123 0 LINE",
"145 26 LINE",
"200 26 LINE",
"200 690 LINE",
"172 690 LINE",
"25 668 LINE",
"25 634 LINE",
"43 634 LINE SMOOTH",
"80 634 OFFCURVE",
"85 627 OFFCURVE",
"85 584 CURVE SMOOTH",
"85 0 LINE"
);
},
{
closed = 1;
nodes = (
"206 414 LINE",
"206 427 LINE",
"197 427 LINE",
"197 414 LINE"
);
}
);
width = 578;
},
{
anchors = (
{
name = bottom;
position = "{309, 0}";
},
{
name = top;
position = "{309, 470}";
}
);
layerId = "C3F6A16D-5E1F-403C-905F-9502D4908E23";
paths = (
{
closed = 1;
nodes = (
"482 -12 OFFCURVE",
"577 80 OFFCURVE",
"577 246 CURVE SMOOTH",
"577 401 OFFCURVE",
"501 482 OFFCURVE",
"378 482 CURVE SMOOTH",
"297 482 OFFCURVE",
"257 447 OFFCURVE",
"217 406 CURVE",
"217 352 LINE",
"229 369 OFFCURVE",
"268 431 OFFCURVE",
"321 431 CURVE SMOOTH",
"386 431 OFFCURVE",
"410 355 OFFCURVE",
"410 233 CURVE SMOOTH",
"410 75 OFFCURVE",
"385 21 OFFCURVE",
"320 21 CURVE SMOOTH",
"241 21 OFFCURVE",
"199 113 OFFCURVE",
"173 161 CURVE",
"173 33 LINE",
"217 7 OFFCURVE",
"261 -12 OFFCURVE",
"325 -12 CURVE SMOOTH"
);
},
{
closed = 1;
nodes = (
"140 0 LINE",
"173 33 LINE",
"244 33 LINE",
"244 690 LINE",
"189 690 LINE",
"21 665 LINE",
"21 631 LINE",
"56 631 LINE SMOOTH",
"80 631 OFFCURVE",
"85 624 OFFCURVE",
"85 598 CURVE SMOOTH",
"85 0 LINE"
);
},
{
closed = 1;
nodes = (
"257 420 LINE",
"257 433 LINE",
"208 433 LINE",
"208 420 LINE"
);
}
);
width = 606;
}
);
leftKerningGroup = h;
note = b;
rightKerningGroup = b;
unicode = 0062;
},
{
glyphname = c;
lastChange = "2015-12-10 09:00:39 +0000";
layers = (
{
anchors = (
{
name = bottom;
position = "{230, 0}";
},
{
name = top;
position = "{230, 467}";
}
);
layerId = "A270BFC0-E682-4EED-9FF7-BE35A5492496";
paths = (
{
closed = 1;
nodes = (
"401 -12 OFFCURVE",
"435 86 OFFCURVE",
"437 89 CURVE",
"413 102 LINE",
"402 76 OFFCURVE",
"365 15 OFFCURVE",
"276 15 CURVE SMOOTH",
"191 15 OFFCURVE",
"126 70 OFFCURVE",
"126 233 CURVE SMOOTH",
"126 399 OFFCURVE",
"194 452 OFFCURVE",
"284 452 CURVE SMOOTH",
"323 452 OFFCURVE",
"359 442 OFFCURVE",
"359 424 CURVE SMOOTH",
"359 409 OFFCURVE",
"335 405 OFFCURVE",
"335 373 CURVE SMOOTH",
"335 346 OFFCURVE",
"352 328 OFFCURVE",
"383 328 CURVE SMOOTH",
"418 328 OFFCURVE",
"430 352 OFFCURVE",
"430 380 CURVE SMOOTH",
"430 452 OFFCURVE",
"347 479 OFFCURVE",
"272 479 CURVE SMOOTH",
"110 479 OFFCURVE",
"50 353 OFFCURVE",
"50 230 CURVE SMOOTH",
"50 95 OFFCURVE",
"122 -12 OFFCURVE",
"265 -12 CURVE SMOOTH"
);
}
);
width = 476;
},
{
anchors = (
{
name = bottom;
position = "{244, 0}";
},
{
name = top;
position = "{244, 470}";
}
);
layerId = "705D5379-5CC9-457D-BF30-EC6EB9252852";
paths = (
{
closed = 1;
nodes = (
"384 -10 OFFCURVE",
"436 44 OFFCURVE",
"464 129 CURVE",
"439 144 LINE",
"422 110 OFFCURVE",
"393 52 OFFCURVE",
"305 52 CURVE SMOOTH",
"212 52 OFFCURVE",
"170 118 OFFCURVE",
"170 255 CURVE SMOOTH",
"170 404 OFFCURVE",
"219 440 OFFCURVE",
"291 440 CURVE SMOOTH",
"339 440 OFFCURVE",
"361 424 OFFCURVE",
"361 404 CURVE SMOOTH",
"361 387 OFFCURVE",
"344 377 OFFCURVE",
"344 347 CURVE SMOOTH",
"344 316 OFFCURVE",
"362 290 OFFCURVE",
"400 290 CURVE SMOOTH",
"435 290 OFFCURVE",
"458 313 OFFCURVE",
"458 354 CURVE SMOOTH",
"458 416 OFFCURVE",
"406 480 OFFCURVE",
"276 480 CURVE SMOOTH",
"131 480 OFFCURVE",
"47 400 OFFCURVE",
"47 230 CURVE SMOOTH",
"47 65 OFFCURVE",
"127 -10 OFFCURVE",
"266 -10 CURVE SMOOTH"
);
}
);
width = 494;
},
{
anchors = (
{
name = bottom;
position = "{248, 0}";
},
{
name = top;
position = "{248, 470}";
}
);
layerId = "C3F6A16D-5E1F-403C-905F-9502D4908E23";
paths = (
{
closed = 1;
nodes = (
"407 -12 OFFCURVE",
"444 68 OFFCURVE",
"470 127 CURVE",
"434 144 LINE",
"408 88 OFFCURVE",
"379 50 OFFCURVE",
"307 50 CURVE SMOOTH",
"229 50 OFFCURVE",
"196 95 OFFCURVE",
"196 263 CURVE SMOOTH",
"196 412 OFFCURVE",
"222 449 OFFCURVE",
"273 449 CURVE SMOOTH",
"309 449 OFFCURVE",
"324 430 OFFCURVE",
"324 407 CURVE SMOOTH",
"324 386 OFFCURVE",
"310 377 OFFCURVE",
"310 349 CURVE SMOOTH",
"310 308 OFFCURVE",
"340 288 OFFCURVE",
"382 288 CURVE SMOOTH",
"435 288 OFFCURVE",
"456 320 OFFCURVE",
"456 360 CURVE SMOOTH",
"456 430 OFFCURVE",
"393 482 OFFCURVE",
"277 482 CURVE SMOOTH",
"128 482 OFFCURVE",
"29 395 OFFCURVE",
"29 229 CURVE SMOOTH",
"29 74 OFFCURVE",
"115 -12 OFFCURVE",
"264 -12 CURVE SMOOTH"
);
}
);
width = 497;
}
);
leftKerningGroup = o;
note = c;
rightKerningGroup = c;
unicode = 0063;
},
{
glyphname = d;
lastChange = "2015-12-10 09:00:39 +0000";
layers = (
{
anchors = (
{
name = bottom;
position = "{270, 0}";
},
{
name = center;
position = "{270, 234}";
},
{
name = top;
position = "{270, 467}";
},
{
name = topright;
position = "{522, 467}";
}
);
layerId = "A270BFC0-E682-4EED-9FF7-BE35A5492496";
paths = (
{
closed = 1;
nodes = (
"337 -12 OFFCURVE",
"387 55 OFFCURVE",
"404 71 CURVE",
"404 107 LINE",
"383 86 OFFCURVE",
"328 15 OFFCURVE",
"249 15 CURVE SMOOTH",
"159 15 OFFCURVE",
"126 100 OFFCURVE",
"126 232 CURVE SMOOTH",
"126 392 OFFCURVE",
"175 453 OFFCURVE",
"258 453 CURVE SMOOTH",
"338 453 OFFCURVE",
"392 387 OFFCURVE",
"418 338 CURVE",
"418 386 LINE",
"396 415 OFFCURVE",
"350 479 OFFCURVE",
"248 479 CURVE SMOOTH",
"133 479 OFFCURVE",
"50 407 OFFCURVE",
"50 226 CURVE SMOOTH",
"50 69 OFFCURVE",
"112 -12 OFFCURVE",
"231 -12 CURVE SMOOTH"
);
},
{
closed = 1;
nodes = (
"511 0 LINE",
"511 27 LINE",
"476 27 LINE SMOOTH",
"451 27 OFFCURVE",
"445 34 OFFCURVE",
"445 71 CURVE SMOOTH",
"445 693 LINE",
"418 693 LINE",
"309 672 LINE",
"309 645 LINE",
"348 645 LINE SMOOTH",
"373 645 OFFCURVE",
"379 638 OFFCURVE",
"379 601 CURVE SMOOTH",
"379 66 LINE",
"389 0 LINE"
);
},
{
closed = 1;
nodes = (
"387 417 LINE",
"387 432 LINE",
"376 432 LINE",
"376 417 LINE"
);
}
);
width = 534;
},
{
anchors = (
{
name = bottom;
position = "{294, 0}";
},
{
name = center;
position = "{294, 235}";
},
{
name = top;
position = "{294, 470}";
},
{
name = topright;
position = "{584, 470}";
}
);
layerId = "705D5379-5CC9-457D-BF30-EC6EB9252852";
paths = (
{
closed = 1;
nodes = (
"292 -11 OFFCURVE",
"353 19 OFFCURVE",
"390 50 CURVE",
"390 101 LINE",
"342 67 OFFCURVE",
"324 54 OFFCURVE",
"288 54 CURVE SMOOTH",
"210 54 OFFCURVE",
"168 117 OFFCURVE",
"168 248 CURVE SMOOTH",
"168 383 OFFCURVE",
"213 440 OFFCURVE",
"293 440 CURVE SMOOTH",
"326 440 OFFCURVE",
"361 430 OFFCURVE",
"390 405 CURVE",
"390 460 LINE",
"354 471 OFFCURVE",
"330 480 OFFCURVE",
"281 480 CURVE SMOOTH",
"134 480 OFFCURVE",
"45 399 OFFCURVE",
"45 225 CURVE SMOOTH",
"45 77 OFFCURVE",
"110 -11 OFFCURVE",
"225 -11 CURVE SMOOTH"
);
},
{
closed = 1;
nodes = (
"557 0 LINE",
"557 33 LINE",
"546 33 LINE SMOOTH",
"509 33 OFFCURVE",
"493 42 OFFCURVE",
"493 83 CURVE SMOOTH",
"493 690 LINE",
"464 690 LINE",
"319 666 LINE",
"319 634 LINE",
"349 634 LINE SMOOTH",
"373 634 OFFCURVE",
"378 622 OFFCURVE",
"378 587 CURVE SMOOTH",
"378 69 LINE",
"388 0 LINE"
);
},
{
closed = 1;
nodes = (
"386 449 LINE",
"386 464 LINE",
"375 464 LINE",
"375 449 LINE"
);
}
);
width = 573;
},
{
anchors = (
{
name = bottom;
position = "{296, 0}";
},
{
name = center;
position = "{296, 235}";
},
{
name = top;
position = "{296, 470}";
},
{
name = topright;
position = "{621, 470}";
}
);
layerId = "C3F6A16D-5E1F-403C-905F-9502D4908E23";
paths = (
{
closed = 1;
nodes = (
"289 -11 OFFCURVE",
"337 11 OFFCURVE",
"392 69 CURVE",
"384 118 LINE",
"366 95 OFFCURVE",
"334 40 OFFCURVE",
"283 40 CURVE SMOOTH",
"225 40 OFFCURVE",
"192 110 OFFCURVE",
"192 254 CURVE SMOOTH",
"192 379 OFFCURVE",
"217 449 OFFCURVE",
"286 449 CURVE SMOOTH",
"344 449 OFFCURVE",
"380 401 OFFCURVE",
"400 379 CURVE",
"400 453 LINE",
"365 467 OFFCURVE",
"333 482 OFFCURVE",
"274 482 CURVE SMOOTH",
"119 482 OFFCURVE",
"29 392 OFFCURVE",
"29 224 CURVE SMOOTH",
"29 74 OFFCURVE",
"103 -11 OFFCURVE",
"226 -11 CURVE SMOOTH"
);
},
{
closed = 1;
nodes = (
"581 0 LINE",
"581 33 LINE",
"550 33 LINE SMOOTH",
"523 33 OFFCURVE",
"517 38 OFFCURVE",
"517 83 CURVE SMOOTH",
"517 690 LINE",
"465 690 LINE",
"295 665 LINE",
"295 631 LINE",
"332 631 LINE SMOOTH",
"349 631 OFFCURVE",
"359 625 OFFCURVE",
"359 601 CURVE SMOOTH",
"359 77 LINE",
"372 0 LINE"
);
},
{
closed = 1;
nodes = (
"400 455 LINE",
"400 470 LINE",
"349 470 LINE",
"349 455 LINE"
);
}
);
width = 603;
}
);
leftKerningGroup = o;
note = d;
rightKerningGroup = l;
unicode = 0064;
},
{
glyphname = eth;
lastChange = "2015-12-10 09:00:40 +0000";
layers = (
{
layerId = "A270BFC0-E682-4EED-9FF7-BE35A5492496";
paths = (
{
closed = 1;
nodes = (
"393 -11 OFFCURVE",
"467 72 OFFCURVE",
"467 241 CURVE SMOOTH",
"467 352 OFFCURVE",
"435 448 OFFCURVE",
"371 529 CURVE SMOOTH",
"314 601 OFFCURVE",
"232 661 OFFCURVE",
"136 708 CURVE",
"115 692 LINE",
"209 627 OFFCURVE",
"281 572 OFFCURVE",
"333 476 CURVE",
"333 473 LINE",
"308 476 OFFCURVE",
"287 479 OFFCURVE",
"262 479 CURVE SMOOTH",
"119 479 OFFCURVE",
"50 386 OFFCURVE",
"50 233 CURVE SMOOTH",
"50 81 OFFCURVE",
"118 -11 OFFCURVE",
"259 -11 CURVE SMOOTH"
);
},
{
closed = 1;
nodes = (
"160 16 OFFCURVE",
"126 100 OFFCURVE",
"126 236 CURVE SMOOTH",
"126 371 OFFCURVE",
"160 452 OFFCURVE",
"263 452 CURVE SMOOTH",
"365 452 OFFCURVE",
"391 371 OFFCURVE",
"391 243 CURVE SMOOTH",
"391 102 OFFCURVE",
"359 16 OFFCURVE",
"259 16 CURVE SMOOTH"
);
},
{
closed = 1;
nodes = (
"387 641 LINE",
"370 666 LINE",
"84 542 LINE",
"101 517 LINE"
);
}
);
width = 520;
},
{
layerId = "705D5379-5CC9-457D-BF30-EC6EB9252852";
paths = (
{
closed = 1;
nodes = (
"443 -12 OFFCURVE",
"513 88 OFFCURVE",
"513 244 CURVE SMOOTH",
"513 352 OFFCURVE",
"479 431 OFFCURVE",
"411 507 CURVE SMOOTH",
"351 574 OFFCURVE",
"257 646 OFFCURVE",
"154 707 CURVE",
"111 673 LINE",
"193 609 OFFCURVE",
"258 549 OFFCURVE",
"315 477 CURVE",
"314 476 LINE",
"302 478 OFFCURVE",
"294 480 OFFCURVE",
"271 480 CURVE SMOOTH",
"125 480 OFFCURVE",
"45 398 OFFCURVE",
"45 234 CURVE SMOOTH",
"45 71 OFFCURVE",
"124 -12 OFFCURVE",
"276 -12 CURVE SMOOTH"
);
},
{
closed = 1;
nodes = (
"206 28 OFFCURVE",
"169 97 OFFCURVE",
"169 239 CURVE SMOOTH",
"169 375 OFFCURVE",
"203 440 OFFCURVE",
"281 440 CURVE SMOOTH",
"357 440 OFFCURVE",
"389 379 OFFCURVE",
"389 238 CURVE SMOOTH",
"389 93 OFFCURVE",
"355 28 OFFCURVE",
"282 28 CURVE SMOOTH"
);
},
{
closed = 1;
nodes = (
"441 646 LINE",
"418 679 LINE",
"98 540 LINE",
"121 507 LINE"
);
}
);
width = 564;
},
{
layerId = "C3F6A16D-5E1F-403C-905F-9502D4908E23";
paths = (
{
closed = 1;
nodes = (
"453 -12 OFFCURVE",
"543 74 OFFCURVE",
"543 247 CURVE SMOOTH",
"543 355 OFFCURVE",
"508 423 OFFCURVE",
"433 507 CURVE SMOOTH",
"357 591 OFFCURVE",
"291 640 OFFCURVE",
"149 707 CURVE",
"106 673 LINE",
"204 619 OFFCURVE",
"270 560 OFFCURVE",
"325 477 CURVE",
"324 476 LINE",
"318 477 OFFCURVE",
"308 480 OFFCURVE",
"278 480 CURVE SMOOTH",
"117 480 OFFCURVE",
"29 396 OFFCURVE",
"29 234 CURVE SMOOTH",
"29 71 OFFCURVE",
"117 -12 OFFCURVE",
"284 -12 CURVE SMOOTH"
);
},
{
closed = 1;
nodes = (
"217 21 OFFCURVE",
"196 103 OFFCURVE",
"196 235 CURVE SMOOTH",
"196 373 OFFCURVE",
"219 447 OFFCURVE",
"288 447 CURVE SMOOTH",
"357 447 OFFCURVE",
"376 374 OFFCURVE",
"376 228 CURVE SMOOTH",
"376 99 OFFCURVE",
"361 21 OFFCURVE",
"290 21 CURVE SMOOTH"
);
},
{
closed = 1;
nodes = (
"465 645 LINE",
"436 687 LINE",
"91 537 LINE",
"120 495 LINE"
);
}
);
width = 573;
}
);
leftKerningGroup = o;
note = eth;
unicode = 00F0;
},
{
glyphname = dcroat;
lastChange = "2015-12-10 09:00:39 +0000";
layers = (
{
components = (
{
name = d;
}
);
layerId = "A270BFC0-E682-4EED-9FF7-BE35A5492496";
paths = (
{
closed = 1;
nodes = (
"513 550 LINE",
"513 577 LINE",
"244 577 LINE",
"244 550 LINE"
);
}
);
width = 536;
},
{
components = (
{
name = d;
}
);
layerId = "705D5379-5CC9-457D-BF30-EC6EB9252852";
paths = (
{
closed = 1;
nodes = (
"567 550 LINE",
"567 590 LINE",
"244 590 LINE",
"244 550 LINE"
);
}
);
width = 583;
},
{
components = (
{
name = d;
}
);
layerId = "C3F6A16D-5E1F-403C-905F-9502D4908E23";
paths = (
{
closed = 1;
nodes = (
"569 551 LINE",
"569 594 LINE",
"234 594 LINE",
"234 551 LINE"
);
}
);
width = 603;
}
);
leftKerningGroup = o;
rightKerningGroup = l;
unicode = 0111;
},
{
glyphname = e;
lastChange = "2015-12-10 09:00:39 +0000";
layers = (
{
anchors = (
{
name = bottom;
position = "{248, 0}";
},
{
name = ogonek;
position = "{372, 10}";
},
{
name = top;
position = "{248, 467}";
}
);
layerId = "A270BFC0-E682-4EED-9FF7-BE35A5492496";
paths = (
{
closed = 1;
nodes = (
"383 -12 OFFCURVE",
"430 53 OFFCURVE",
"450 123 CURVE",
"425 131 LINE",
"411 82 OFFCURVE",
"372 15 OFFCURVE",
"276 15 CURVE SMOOTH",
"147 15 OFFCURVE",
"124 133 OFFCURVE",
"126 242 CURVE SMOOTH",
"129 372 OFFCURVE",
"167 452 OFFCURVE",
"261 452 CURVE SMOOTH",
"345 452 OFFCURVE",
"378 387 OFFCURVE",
"378 257 CURVE",
"120 257 LINE",
"119 230 LINE",
"454 230 LINE",
"454 237 LINE SMOOTH",
"454 333 OFFCURVE",
"436 479 OFFCURVE",
"262 479 CURVE SMOOTH",
"117 479 OFFCURVE",
"50 377 OFFCURVE",
"50 227 CURVE SMOOTH",
"50 82 OFFCURVE",
"112 -12 OFFCURVE",
"260 -12 CURVE SMOOTH"
);
}
);
width = 500;
},
{
anchors = (
{
name = bottom;
position = "{262, 0}";
},
{
name = ogonek;
position = "{368, 10}";
},
{
name = top;
position = "{262, 470}";
}
);
layerId = "705D5379-5CC9-457D-BF30-EC6EB9252852";
paths = (
{
closed = 1;
nodes = (
"396 -10 OFFCURVE",
"441 61 OFFCURVE",
"467 125 CURVE",
"436 143 LINE",
"411 85 OFFCURVE",
"371 53 OFFCURVE",
"304 53 CURVE SMOOTH",
"195 53 OFFCURVE",
"169 136 OFFCURVE",
"169 257 CURVE SMOOTH",
"169 385 OFFCURVE",
"198 440 OFFCURVE",
"265 440 CURVE SMOOTH",
"339 440 OFFCURVE",
"348 373 OFFCURVE",
"348 269 CURVE",
"132 269 LINE",
"132 229 LINE",
"470 229 LINE",
"470 242 LINE SMOOTH",
"470 377 OFFCURVE",
"417 480 OFFCURVE",
"261 480 CURVE SMOOTH",
"123 480 OFFCURVE",
"47 399 OFFCURVE",
"47 233 CURVE SMOOTH",
"47 72 OFFCURVE",
"119 -10 OFFCURVE",
"262 -10 CURVE SMOOTH"
);
}
);
width = 517;
},
{
anchors = (
{
name = bottom;
position = "{260, 0}";
},
{
name = ogonek;
position = "{473, 10}";
},
{
name = top;
position = "{260, 470}";
}
);
layerId = "C3F6A16D-5E1F-403C-905F-9502D4908E23";
paths = (
{
closed = 1;
nodes = (
"406 -12 OFFCURVE",
"451 64 OFFCURVE",
"479 127 CURVE",
"443 144 LINE",
"418 89 OFFCURVE",
"375 50 OFFCURVE",
"306 50 CURVE SMOOTH",
"226 50 OFFCURVE",
"196 103 OFFCURVE",
"196 265 CURVE SMOOTH",
"196 416 OFFCURVE",
"222 449 OFFCURVE",
"262 449 CURVE SMOOTH",
"312 449 OFFCURVE",
"327 398 OFFCURVE",
"327 266 CURVE",
"114 266 LINE",
"114 233 LINE",
"494 233 LINE",
"494 239 LINE SMOOTH",
"494 398 OFFCURVE",
"421 482 OFFCURVE",
"266 482 CURVE SMOOTH",
"112 482 OFFCURVE",
"29 399 OFFCURVE",
"29 234 CURVE SMOOTH",
"29 71 OFFCURVE",
"110 -12 OFFCURVE",
"261 -12 CURVE SMOOTH"
);
}
);
width = 522;
}
);
leftKerningGroup = o;
note = e;
rightKerningGroup = e;
unicode = 0065;
},
{
glyphname = f;
lastChange = "2015-12-10 09:00:39 +0000";
layers = (
{
anchors = (
{
name = bottom;
position = "{176, 0}";
},
{
name = top;
position = "{176, 500}";
}
);
layerId = "A270BFC0-E682-4EED-9FF7-BE35A5492496";
paths = (
{
closed = 1;
nodes = (
"263 0 LINE",
"263 27 LINE",
"177 27 OFFCURVE",
"173 32 OFFCURVE",
"173 82 CURVE SMOOTH",
"173 434 LINE",
"284 434 LINE",
"284 467 LINE",
"173 467 LINE",
"173 567 LINE SMOOTH",
"173 642 OFFCURVE",
"206 678 OFFCURVE",
"251 678 CURVE SMOOTH",
"272 678 OFFCURVE",
"291 669 OFFCURVE",
"291 659 CURVE SMOOTH",
"291 643 OFFCURVE",
"270 641 OFFCURVE",
"270 613 CURVE SMOOTH",
"270 587 OFFCURVE",
"287 572 OFFCURVE",
"312 572 CURVE SMOOTH",
"337 572 OFFCURVE",
"355 593 OFFCURVE",
"355 621 CURVE SMOOTH",
"355 667 OFFCURVE",
"322 705 OFFCURVE",
"246 705 CURVE SMOOTH",
"143 705 OFFCURVE",
"107 632 OFFCURVE",
"107 532 CURVE SMOOTH",
"107 467 LINE",
"34 467 LINE",
"34 434 LINE",
"107 434 LINE",
"107 83 LINE SMOOTH",
"107 33 OFFCURVE",
"104 27 OFFCURVE",
"36 27 CURVE",
"36 0 LINE"
);
}
);
width = 301;
},
{
anchors = (
{
name = bottom;
position = "{175, 0}";
},
{
name = top;
position = "{175, 500}";
}
);
layerId = "705D5379-5CC9-457D-BF30-EC6EB9252852";
paths = (
{
closed = 1;
nodes = (
"295 0 LINE",
"295 33 LINE",
"221 33 OFFCURVE",
"215 40 OFFCURVE",
"215 83 CURVE SMOOTH",
"215 430 LINE",
"328 430 LINE",
"328 470 LINE",
"215 470 LINE",
"215 581 LINE SMOOTH",
"215 640 OFFCURVE",
"232 671 OFFCURVE",
"271 671 CURVE SMOOTH",
"291 671 OFFCURVE",
"304 660 OFFCURVE",
"304 651 CURVE SMOOTH",
"304 638 OFFCURVE",
"291 632 OFFCURVE",
"291 607 CURVE SMOOTH",
"291 576 OFFCURVE",
"310 558 OFFCURVE",
"343 558 CURVE SMOOTH",
"379 558 OFFCURVE",
"395 579 OFFCURVE",
"395 610 CURVE SMOOTH",
"395 660 OFFCURVE",
"353 704 OFFCURVE",
"268 704 CURVE SMOOTH",
"165 704 OFFCURVE",
"98 639 OFFCURVE",
"98 531 CURVE SMOOTH",
"98 470 LINE",
"34 470 LINE",
"34 430 LINE",
"98 430 LINE",
"98 83 LINE SMOOTH",
"98 43 OFFCURVE",
"93 33 OFFCURVE",
"34 33 CURVE",
"34 0 LINE"
);
}
);
width = 323;
},
{
anchors = (
{
name = bottom;
position = "{187, 0}";
},
{
name = top;
position = "{187, 470}";
}
);
layerId = "C3F6A16D-5E1F-403C-905F-9502D4908E23";
paths = (
{
closed = 1;
nodes = (
"332 0 LINE",
"332 33 LINE",
"259 33 OFFCURVE",
"245 39 OFFCURVE",
"245 83 CURVE SMOOTH",
"245 437 LINE",
"332 437 LINE",
"332 470 LINE",
"245 470 LINE",
"245 565 LINE SMOOTH",
"245 622 OFFCURVE",
"254 679 OFFCURVE",
"301 679 CURVE SMOOTH",
"318 679 OFFCURVE",
"331 671 OFFCURVE",
"331 653 CURVE SMOOTH",
"331 628 OFFCURVE",
"304 628 OFFCURVE",
"304 590 CURVE SMOOTH",
"304 553 OFFCURVE",
"331 527 OFFCURVE",
"374 527 CURVE SMOOTH",
"420 527 OFFCURVE",
"444 556 OFFCURVE",
"444 598 CURVE SMOOTH",
"444 669 OFFCURVE",
"377 704 OFFCURVE",
"293 704 CURVE SMOOTH",
"166 704 OFFCURVE",
"86 626 OFFCURVE",
"86 518 CURVE SMOOTH",
"86 470 LINE",
"22 470 LINE",
"22 437 LINE",
"86 437 LINE",
"86 83 LINE SMOOTH",
"86 39 OFFCURVE",
"78 33 OFFCURVE",
"22 33 CURVE",
"22 0 LINE"
);
}
);
width = 347;
}
);
leftKerningGroup = f;
note = f;
rightKerningGroup = f;
unicode = 0066;
},
{
glyphname = g;
lastChange = "2015-12-10 09:00:39 +0000";
layers = (
{
anchors = (
{
name = bottom;
position = "{259, 0}";
},
{
name = top;
position = "{247, 467}";
}
);
layerId = "A270BFC0-E682-4EED-9FF7-BE35A5492496";
paths = (
{
closed = 1;
nodes = (
"360 -212 OFFCURVE",
"464 -170 OFFCURVE",
"464 -60 CURVE SMOOTH",
"464 14 OFFCURVE",
"417 56 OFFCURVE",
"283 56 CURVE SMOOTH",
"222 56 LINE SMOOTH",
"137 56 OFFCURVE",
"117 80 OFFCURVE",
"117 105 CURVE SMOOTH",
"117 156 OFFCURVE",
"201 183 OFFCURVE",
"222 188 CURVE",
"187 200 LINE",
"102 171 OFFCURVE",
"61 126 OFFCURVE",
"61 84 CURVE SMOOTH",
"61 43 OFFCURVE",
"99 0 OFFCURVE",
"165 0 CURVE SMOOTH",
"279 0 LINE SMOOTH",
"373 0 OFFCURVE",
"400 -23 OFFCURVE",
"400 -71 CURVE SMOOTH",
"400 -144 OFFCURVE",
"339 -185 OFFCURVE",
"245 -185 CURVE SMOOTH",
"157 -185 OFFCURVE",
"104 -149 OFFCURVE",
"104 -87 CURVE SMOOTH",
"104 -52 OFFCURVE",
"121 -4 OFFCURVE",
"203 9 CURVE",
"150 16 LINE",
"69 -9 OFFCURVE",
"40 -45 OFFCURVE",
"40 -94 CURVE SMOOTH",
"40 -178 OFFCURVE",
"128 -212 OFFCURVE",
"238 -212 CURVE SMOOTH"
);
},
{
closed = 1;
nodes = (
"336 167 OFFCURVE",
"429 208 OFFCURVE",
"429 322 CURVE SMOOTH",
"429 435 OFFCURVE",
"341 479 OFFCURVE",
"247 479 CURVE SMOOTH",
"158 479 OFFCURVE",
"65 435 OFFCURVE",
"65 322 CURVE SMOOTH",
"65 208 OFFCURVE",
"158 167 OFFCURVE",
"247 167 CURVE SMOOTH"
);
},
{
closed = 1;
nodes = (
"165 194 OFFCURVE",
"139 249 OFFCURVE",
"139 320 CURVE SMOOTH",
"139 401 OFFCURVE",
"171 452 OFFCURVE",
"247 452 CURVE SMOOTH",
"325 452 OFFCURVE",
"355 401 OFFCURVE",
"355 328 CURVE SMOOTH",
"355 243 OFFCURVE",
"331 194 OFFCURVE",
"242 194 CURVE SMOOTH"
);
},
{
closed = 1;
nodes = (
"527 371 OFFCURVE",
"542 390 OFFCURVE",
"542 416 CURVE SMOOTH",
"542 449 OFFCURVE",
"517 479 OFFCURVE",
"472 479 CURVE SMOOTH",
"434 479 OFFCURVE",
"401 452 OFFCURVE",
"378 415 CURVE",
"397 400 LINE",
"417 427 OFFCURVE",
"434 447 OFFCURVE",
"447 447 CURVE SMOOTH",
"457 447 OFFCURVE",
"468 441 OFFCURVE",
"468 429 CURVE SMOOTH",
"468 422 OFFCURVE",
"464 416 OFFCURVE",
"464 406 CURVE SMOOTH",
"464 386 OFFCURVE",
"481 371 OFFCURVE",
"503 371 CURVE SMOOTH"
);
}
);
width = 567;
},
{
anchors = (
{
name = bottom;
position = "{263, 0}";
},
{
name = top;
position = "{245, 470}";
}
);
layerId = "705D5379-5CC9-457D-BF30-EC6EB9252852";
paths = (
{
closed = 1;
nodes = (
"375 -212 OFFCURVE",
"487 -159 OFFCURVE",
"487 -36 CURVE SMOOTH",
"487 58 OFFCURVE",
"422 109 OFFCURVE",
"306 109 CURVE SMOOTH",
"215 109 LINE SMOOTH",
"166 109 OFFCURVE",
"150 127 OFFCURVE",
"150 140 CURVE SMOOTH",
"150 168 OFFCURVE",
"216 200 OFFCURVE",
"228 202 CURVE",
"190 210 LINE",
"104 177 OFFCURVE",
"54 141 OFFCURVE",
"54 92 CURVE SMOOTH",
"54 43 OFFCURVE",
"106 7 OFFCURVE",
"181 7 CURVE SMOOTH",
"254 7 LINE SMOOTH",
"349 7 OFFCURVE",
"393 -18 OFFCURVE",
"393 -74 CURVE SMOOTH",
"393 -140 OFFCURVE",
"331 -173 OFFCURVE",
"265 -173 CURVE SMOOTH",
"190 -173 OFFCURVE",
"135 -130 OFFCURVE",
"135 -69 CURVE SMOOTH",
"135 -35 OFFCURVE",
"152 6 OFFCURVE",
"226 16 CURVE",
"143 23 LINE",
"58 1 OFFCURVE",
"30 -29 OFFCURVE",
"30 -79 CURVE SMOOTH",
"30 -170 OFFCURVE",
"125 -212 OFFCURVE",
"243 -212 CURVE SMOOTH"
);
},
{
closed = 1;
nodes = (
"341 166 OFFCURVE",
"439 206 OFFCURVE",
"439 321 CURVE SMOOTH",
"439 433 OFFCURVE",
"345 478 OFFCURVE",
"244 478 CURVE SMOOTH",
"148 478 OFFCURVE",
"39 438 OFFCURVE",
"39 319 CURVE SMOOTH",
"39 206 OFFCURVE",
"138 166 OFFCURVE",
"240 166 CURVE SMOOTH"
);
},
{
closed = 1;
nodes = (
"174 206 OFFCURVE",
"160 252 OFFCURVE",
"160 321 CURVE SMOOTH",
"160 390 OFFCURVE",
"174 437 OFFCURVE",
"246 437 CURVE SMOOTH",
"317 437 OFFCURVE",
"329 391 OFFCURVE",
"329 326 CURVE SMOOTH",
"329 251 OFFCURVE",
"300 206 OFFCURVE",
"242 206 CURVE SMOOTH"
);
},
{
closed = 1;
nodes = (
"536 362 OFFCURVE",
"550 383 OFFCURVE",
"550 413 CURVE SMOOTH",
"550 460 OFFCURVE",
"513 480 OFFCURVE",
"473 480 CURVE SMOOTH",
"431 480 OFFCURVE",
"399 459 OFFCURVE",
"374 414 CURVE",
"396 388 LINE",
"416 434 OFFCURVE",
"438 435 OFFCURVE",
"449 435 CURVE SMOOTH",
"467 435 OFFCURVE",
"469 426 OFFCURVE",
"469 423 CURVE SMOOTH",
"469 416 OFFCURVE",
"465 412 OFFCURVE",
"465 396 CURVE SMOOTH",
"465 380 OFFCURVE",
"477 362 OFFCURVE",
"506 362 CURVE SMOOTH"
);
}
);
width = 565;
},
{
anchors = (
{
name = bottom;
position = "{272, 0}";
},
{
name = top;
position = "{272, 470}";
}
);
layerId = "C3F6A16D-5E1F-403C-905F-9502D4908E23";
paths = (
{
closed = 1;
nodes = (
"415 -212 OFFCURVE",
"504 -151 OFFCURVE",
"504 -36 CURVE SMOOTH",
"504 54 OFFCURVE",
"450 108 OFFCURVE",
"324 108 CURVE SMOOTH",
"213 108 LINE SMOOTH",
"160 108 OFFCURVE",
"147 122 OFFCURVE",
"147 136 CURVE SMOOTH",
"147 160 OFFCURVE",
"187 172 OFFCURVE",
"221 181 CURVE",
"212 204 LINE",
"133 188 OFFCURVE",
"70 144 OFFCURVE",
"70 79 CURVE SMOOTH",
"70 23 OFFCURVE",
"116 -19 OFFCURVE",
"153 -19 CURVE SMOOTH",
"272 -19 LINE SMOOTH",
"368 -19 OFFCURVE",
"417 -37 OFFCURVE",
"417 -92 CURVE SMOOTH",
"417 -155 OFFCURVE",
"352 -185 OFFCURVE",
"257 -185 CURVE SMOOTH",
"153 -185 OFFCURVE",
"116 -149 OFFCURVE",
"116 -95 CURVE SMOOTH",
"116 -42 OFFCURVE",
"152 8 OFFCURVE",
"246 16 CURVE",
"163 23 LINE",
"64 1 OFFCURVE",
"15 -46 OFFCURVE",
"15 -104 CURVE SMOOTH",
"15 -179 OFFCURVE",
"100 -212 OFFCURVE",
"233 -212 CURVE SMOOTH"
);
},
{
closed = 1;
nodes = (
"374 166 OFFCURVE",
"469 217 OFFCURVE",
"469 321 CURVE SMOOTH",
"469 424 OFFCURVE",
"376 482 OFFCURVE",
"249 482 CURVE SMOOTH",
"125 482 OFFCURVE",
"35 426 OFFCURVE",
"35 321 CURVE SMOOTH",
"35 219 OFFCURVE",
"120 166 OFFCURVE",
"248 166 CURVE SMOOTH"
);
},
{
closed = 1;
nodes = (
"212 193 OFFCURVE",
"195 219 OFFCURVE",
"195 321 CURVE SMOOTH",
"195 428 OFFCURVE",
"214 455 OFFCURVE",
"252 455 CURVE SMOOTH",
"290 455 OFFCURVE",
"309 429 OFFCURVE",
"309 327 CURVE SMOOTH",
"309 220 OFFCURVE",
"288 193 OFFCURVE",
"250 193 CURVE SMOOTH"
);
},
{
closed = 1;
nodes = (
"550 386 OFFCURVE",
"563 405 OFFCURVE",
"563 429 CURVE SMOOTH",
"563 459 OFFCURVE",
"543 482 OFFCURVE",
"495 482 CURVE SMOOTH",
"460 482 OFFCURVE",
"425 470 OFFCURVE",
"405 435 CURVE",
"424 408 LINE",
"439 432 OFFCURVE",
"456 443 OFFCURVE",
"471 443 CURVE SMOOTH",
"479 443 OFFCURVE",
"485 440 OFFCURVE",
"485 434 CURVE SMOOTH",
"485 430 OFFCURVE",
"482 423 OFFCURVE",
"482 414 CURVE SMOOTH",
"482 395 OFFCURVE",
"497 386 OFFCURVE",
"519 386 CURVE SMOOTH"
);
}
);
width = 573;
}
);
leftKerningGroup = g;
note = g;
rightKerningGroup = g;
unicode = 0067;
},
{
glyphname = h;
lastChange = "2015-12-10 09:00:40 +0000";
layers = (
{
anchors = (
{
name = bottom;
position = "{277, 0}";
},
{
name = center;
position = "{277, 234}";
},
{
name = top;
position = "{277, 467}";
}
);
layerId = "A270BFC0-E682-4EED-9FF7-BE35A5492496";
paths = (
{
closed = 1;
nodes = (
"528 0 LINE",
"528 27 LINE",
"460 27 OFFCURVE",
"457 33 OFFCURVE",
"457 83 CURVE SMOOTH",
"457 336 LINE SMOOTH",
"457 434 OFFCURVE",
"416 479 OFFCURVE",
"321 479 CURVE SMOOTH",
"238 479 OFFCURVE",
"196 445 OFFCURVE",
"156 381 CURVE",
"156 338 LINE",
"191 394 OFFCURVE",
"225 441 OFFCURVE",
"294 441 CURVE SMOOTH",
"370 441 OFFCURVE",
"391 384 OFFCURVE",
"391 327 CURVE SMOOTH",
"391 83 LINE SMOOTH",
"391 33 OFFCURVE",
"387 27 OFFCURVE",
"320 27 CURVE",
"320 0 LINE"
);
},
{
closed = 1;
nodes = (
"238 0 LINE",
"238 27 LINE",
"171 27 OFFCURVE",
"167 33 OFFCURVE",
"167 83 CURVE SMOOTH",
"167 693 LINE",
"140 693 LINE",
"34 675 LINE",
"34 648 LINE",
"71 648 LINE SMOOTH",
"95 648 OFFCURVE",
"101 640 OFFCURVE",
"101 606 CURVE SMOOTH",
"101 83 LINE SMOOTH",
"101 33 OFFCURVE",
"98 27 OFFCURVE",
"30 27 CURVE",
"30 0 LINE"
);
},
{
closed = 1;
nodes = (
"172 390 LINE",
"172 400 LINE",
"164 400 LINE",
"164 390 LINE"
);
}
);
width = 563;
},
{
anchors = (
{
name = bottom;
position = "{304, 0}";
},
{
name = center;
position = "{304, 235}";
},
{
name = top;
position = "{304, 470}";
}
);
layerId = "705D5379-5CC9-457D-BF30-EC6EB9252852";
paths = (
{
closed = 1;
nodes = (
"576 0 LINE",
"576 33 LINE",
"518 33 OFFCURVE",
"510 43 OFFCURVE",
"510 83 CURVE SMOOTH",
"510 333 LINE SMOOTH",
"510 427 OFFCURVE",
"459 480 OFFCURVE",
"376 480 CURVE SMOOTH",
"315 480 OFFCURVE",
"252 452 OFFCURVE",
"201 407 CURVE",
"201 357 LINE",
"229 397 OFFCURVE",
"266 415 OFFCURVE",
"307 415 CURVE SMOOTH",
"365 415 OFFCURVE",
"395 381 OFFCURVE",
"395 318 CURVE SMOOTH",
"395 78 LINE SMOOTH",
"395 43 OFFCURVE",
"389 33 OFFCURVE",
"337 33 CURVE",
"337 0 LINE"
);
},
{
closed = 1;
nodes = (
"261 0 LINE",
"261 33 LINE",
"210 33 OFFCURVE",
"205 43 OFFCURVE",
"205 78 CURVE SMOOTH",
"205 690 LINE",
"176 690 LINE",
"31 667 LINE",
"31 633 LINE",
"61 633 LINE SMOOTH",
"83 633 OFFCURVE",
"89 623 OFFCURVE",
"89 587 CURVE SMOOTH",
"89 83 LINE SMOOTH",
"89 43 OFFCURVE",
"84 33 OFFCURVE",
"25 33 CURVE",
"25 0 LINE"
);
},
{
closed = 1;
nodes = (
"210 401 LINE",
"210 411 LINE",
"202 411 LINE",
"202 401 LINE"
);
}
);
width = 606;
},
{
anchors = (
{
name = bottom;
position = "{315, 0}";
},
{
name = center;
position = "{315, 235}";
},
{
name = top;
position = "{315, 470}";
}
);
layerId = "C3F6A16D-5E1F-403C-905F-9502D4908E23";
paths = (
{
closed = 1;
nodes = (
"609 0 LINE",
"609 33 LINE",
"558 33 OFFCURVE",
"551 41 OFFCURVE",
"551 83 CURVE SMOOTH",
"551 318 LINE SMOOTH",
"551 436 OFFCURVE",
"492 482 OFFCURVE",
"400 482 CURVE SMOOTH",
"300 482 OFFCURVE",
"253 427 OFFCURVE",
"226 392 CURVE",
"232 364 LINE",
"273 405 OFFCURVE",
"293 423 OFFCURVE",
"327 423 CURVE SMOOTH",
"368 423 OFFCURVE",
"392 398 OFFCURVE",
"392 318 CURVE SMOOTH",
"392 78 LINE SMOOTH",
"392 41 OFFCURVE",
"387 33 OFFCURVE",
"344 33 CURVE",
"344 0 LINE"
);
},
{
closed = 1;
nodes = (
"298 0 LINE",
"298 33 LINE",
"252 33 OFFCURVE",
"244 41 OFFCURVE",
"244 83 CURVE SMOOTH",
"244 690 LINE",
"191 690 LINE",
"21 664 LINE",
"21 631 LINE",
"56 631 LINE SMOOTH",
"80 631 OFFCURVE",
"85 624 OFFCURVE",
"85 598 CURVE SMOOTH",
"85 83 LINE SMOOTH",
"85 39 OFFCURVE",
"77 33 OFFCURVE",
"21 33 CURVE",
"21 0 LINE"
);
},
{
closed = 1;
nodes = (
"197 407 LINE",
"250 407 LINE",
"250 415 LINE",
"197 415 LINE"
);
}
);
width = 630;
}
);
leftKerningGroup = h;
note = n;
rightKerningGroup = h;
unicode = 0068;
},
{
glyphname = i;
lastChange = "2015-12-10 09:00:39 +0000";
layers = (
{
anchors = (
{
name = bottom;
position = "{137, 0}";
}
);
layerId = "A270BFC0-E682-4EED-9FF7-BE35A5492496";
paths = (
{
closed = 1;
nodes = (
"246 0 LINE",
"246 27 LINE",
"179 27 OFFCURVE",
"175 33 OFFCURVE",
"175 83 CURVE SMOOTH",
"175 473 LINE",
"148 473 LINE",
"42 455 LINE",
"42 428 LINE",
"79 428 LINE SMOOTH",
"103 428 OFFCURVE",
"109 420 OFFCURVE",
"109 386 CURVE SMOOTH",
"109 83 LINE SMOOTH",
"109 33 OFFCURVE",
"106 27 OFFCURVE",
"38 27 CURVE",
"38 0 LINE"
);
},
{
closed = 1;
nodes = (
"169 574 OFFCURVE",
"188 595 OFFCURVE",
"189 622 CURVE SMOOTH",
"189 651 OFFCURVE",
"169 672 OFFCURVE",
"140 672 CURVE SMOOTH",
"111 672 OFFCURVE",
"91 651 OFFCURVE",
"91 622 CURVE SMOOTH",
"91 595 OFFCURVE",
"111 574 OFFCURVE",
"140 574 CURVE SMOOTH"
);
}
);
width = 290;
},
{
anchors = (
{
name = bottom;
position = "{144, 0}";
}
);
layerId = "705D5379-5CC9-457D-BF30-EC6EB9252852";
paths = (
{
closed = 1;
nodes = (
"274 0 LINE",
"274 33 LINE",
"216 33 OFFCURVE",
"210 42 OFFCURVE",
"210 83 CURVE SMOOTH",
"210 475 LINE",
"182 475 LINE",
"35 452 LINE",
"35 418 LINE",
"65 418 LINE SMOOTH",
"88 418 OFFCURVE",
"93 409 OFFCURVE",
"93 372 CURVE SMOOTH",
"93 83 LINE SMOOTH",
"93 44 OFFCURVE",
"88 33 OFFCURVE",
"29 33 CURVE",
"29 0 LINE"
);
},
{
closed = 1;
nodes = (
"186 542 OFFCURVE",
"214 570 OFFCURVE",
"214 607 CURVE SMOOTH",
"214 644 OFFCURVE",
"189 673 OFFCURVE",
"148 673 CURVE SMOOTH",
"109 673 OFFCURVE",
"83 644 OFFCURVE",
"83 607 CURVE SMOOTH",
"83 570 OFFCURVE",
"109 542 OFFCURVE",
"148 542 CURVE SMOOTH"
);
}
);
width = 305;
},
{
anchors = (
{
name = bottom;
position = "{160, 0}";
}
);
layerId = "C3F6A16D-5E1F-403C-905F-9502D4908E23";
paths = (
{
closed = 1;
nodes = (
"298 0 LINE",
"298 33 LINE",
"252 33 OFFCURVE",
"244 41 OFFCURVE",
"244 83 CURVE SMOOTH",
"244 475 LINE",
"189 475 LINE",
"21 449 LINE",
"21 416 LINE",
"56 416 LINE SMOOTH",
"80 416 OFFCURVE",
"85 409 OFFCURVE",
"85 383 CURVE SMOOTH",
"85 83 LINE SMOOTH",
"85 39 OFFCURVE",
"77 33 OFFCURVE",
"21 33 CURVE",
"21 0 LINE"
);
},
{
closed = 1;
nodes = (
"208 523 OFFCURVE",
"253 563 OFFCURVE",
"253 612 CURVE SMOOTH",
"253 661 OFFCURVE",
"207 701 OFFCURVE",
"160 701 CURVE SMOOTH",
"112 701 OFFCURVE",
"66 661 OFFCURVE",
"66 612 CURVE SMOOTH",
"66 562 OFFCURVE",
"112 523 OFFCURVE",
"160 523 CURVE SMOOTH"
);
}
);
width = 319;
}
);
leftKerningGroup = i;
note = i;
rightKerningGroup = i;
unicode = 0069;
},
{
glyphname = idotless;
lastChange = "2015-12-10 09:00:39 +0000";
layers = (
{
anchors = (
{
name = bottom;
position = "{126, 0}";
},
{
name = ogonek;
position = "{226, 10}";
},
{
name = top;
position = "{126, 467}";
}
);
layerId = "A270BFC0-E682-4EED-9FF7-BE35A5492496";
paths = (
{
closed = 1;
nodes = (
"235 0 LINE",
"235 27 LINE",
"168 27 OFFCURVE",
"164 33 OFFCURVE",
"164 83 CURVE SMOOTH",
"164 473 LINE",
"141 473 LINE",
"31 455 LINE",
"31 428 LINE",
"68 428 LINE SMOOTH",
"92 428 OFFCURVE",
"98 420 OFFCURVE",
"98 386 CURVE SMOOTH",
"98 83 LINE SMOOTH",
"98 33 OFFCURVE",
"95 27 OFFCURVE",
"27 27 CURVE",
"27 0 LINE"
);
}
);
width = 251;
},
{
anchors = (
{
name = bottom;
position = "{145, 0}";
},
{
name = ogonek;
position = "{260, 10}";
},
{
name = top;
position = "{145, 470}";
}
);
layerId = "705D5379-5CC9-457D-BF30-EC6EB9252852";
paths = (
{
closed = 1;
nodes = (
"275 0 LINE",
"275 33 LINE",
"217 33 OFFCURVE",
"211 42 OFFCURVE",
"211 83 CURVE SMOOTH",
"211 475 LINE",
"182 475 LINE",
"36 452 LINE",
"36 418 LINE",
"66 418 LINE SMOOTH",
"89 418 OFFCURVE",
"94 409 OFFCURVE",
"94 372 CURVE SMOOTH",
"94 83 LINE SMOOTH",
"94 44 OFFCURVE",
"89 33 OFFCURVE",
"30 33 CURVE",
"30 0 LINE"
);
}
);
width = 289;
},
{
anchors = (
{
name = bottom;
position = "{155, 0}";
},
{
name = ogonek;
position = "{278, 10}";
},
{
name = top;
position = "{155, 470}";
}
);
layerId = "C3F6A16D-5E1F-403C-905F-9502D4908E23";
paths = (
{
closed = 1;
nodes = (
"293 0 LINE",
"293 33 LINE",
"247 33 OFFCURVE",
"239 41 OFFCURVE",
"239 83 CURVE SMOOTH",
"239 475 LINE",
"184 475 LINE",
"16 449 LINE",
"16 416 LINE",
"51 416 LINE SMOOTH",
"75 416 OFFCURVE",
"80 409 OFFCURVE",
"80 383 CURVE SMOOTH",
"80 83 LINE SMOOTH",
"80 39 OFFCURVE",
"72 33 OFFCURVE",
"16 33 CURVE",
"16 0 LINE"
);
}
);
width = 309;
}
);
note = dotlessi;
unicode = 0131;
},
{
glyphname = j;
lastChange = "2015-12-10 09:00:39 +0000";
layers = (
{
layerId = "A270BFC0-E682-4EED-9FF7-BE35A5492496";
paths = (
{
closed = 1;
nodes = (
"129 -212 OFFCURVE",
"144 -129 OFFCURVE",
"144 -27 CURVE SMOOTH",
"144 473 LINE",
"121 473 LINE",
"11 455 LINE",
"11 428 LINE",
"48 428 LINE SMOOTH",
"72 428 OFFCURVE",
"78 420 OFFCURVE",
"78 386 CURVE SMOOTH",
"78 -115 LINE SMOOTH",
"78 -160 OFFCURVE",
"65 -185 OFFCURVE",
"36 -185 CURVE SMOOTH",
"22 -185 OFFCURVE",
"9 -179 OFFCURVE",
"9 -166 CURVE SMOOTH",
"9 -152 OFFCURVE",
"22 -148 OFFCURVE",
"22 -127 CURVE SMOOTH",
"22 -101 OFFCURVE",
"2 -85 OFFCURVE",
"-21 -85 CURVE SMOOTH",
"-44 -85 OFFCURVE",
"-66 -102 OFFCURVE",
"-66 -136 CURVE SMOOTH",
"-66 -180 OFFCURVE",
"-28 -212 OFFCURVE",
"32 -212 CURVE SMOOTH"
);
},
{
closed = 1;
nodes = (
"138 574 OFFCURVE",
"158 596 OFFCURVE",
"158 623 CURVE SMOOTH",
"158 650 OFFCURVE",
"138 672 OFFCURVE",
"109 672 CURVE SMOOTH",
"80 672 OFFCURVE",
"60 651 OFFCURVE",
"60 623 CURVE SMOOTH",
"60 595 OFFCURVE",
"80 574 OFFCURVE",
"109 574 CURVE SMOOTH"
);
}
);
width = 243;
},
{
layerId = "705D5379-5CC9-457D-BF30-EC6EB9252852";
paths = (
{
closed = 1;
nodes = (
"128 -212 OFFCURVE",
"173 -104 OFFCURVE",
"173 50 CURVE SMOOTH",
"173 475 LINE",
"144 475 LINE",
"-2 452 LINE",
"-2 418 LINE",
"28 418 LINE SMOOTH",
"51 418 OFFCURVE",
"56 409 OFFCURVE",
"56 372 CURVE SMOOTH",
"56 -96 LINE SMOOTH",
"56 -156 OFFCURVE",
"49 -175 OFFCURVE",
"26 -175 CURVE SMOOTH",
"19 -175 OFFCURVE",
"7 -173 OFFCURVE",
"7 -160 CURVE SMOOTH",
"7 -153 OFFCURVE",
"10 -150 OFFCURVE",
"10 -142 CURVE SMOOTH",
"8 -111 OFFCURVE",
"-16 -101 OFFCURVE",
"-35 -101 CURVE SMOOTH",
"-63 -101 OFFCURVE",
"-83 -122 OFFCURVE",
"-83 -154 CURVE SMOOTH",
"-83 -187 OFFCURVE",
"-61 -212 OFFCURVE",
"0 -212 CURVE SMOOTH"
);
},
{
closed = 1;
nodes = (
"149 540 OFFCURVE",
"177 568 OFFCURVE",
"177 606 CURVE SMOOTH",
"177 642 OFFCURVE",
"151 671 OFFCURVE",
"112 671 CURVE SMOOTH",
"72 671 OFFCURVE",
"46 642 OFFCURVE",
"46 605 CURVE SMOOTH",
"46 568 OFFCURVE",
"72 540 OFFCURVE",
"111 540 CURVE SMOOTH"
);
}
);
width = 234;
},
{
layerId = "C3F6A16D-5E1F-403C-905F-9502D4908E23";
paths = (
{
closed = 1;
nodes = (
"151 -212 OFFCURVE",
"216 -127 OFFCURVE",
"216 2 CURVE SMOOTH",
"216 475 LINE",
"161 475 LINE",
"-7 449 LINE",
"-7 416 LINE",
"28 416 LINE SMOOTH",
"52 416 OFFCURVE",
"57 409 OFFCURVE",
"57 383 CURVE SMOOTH",
"57 -60 LINE SMOOTH",
"57 -167 OFFCURVE",
"56 -185 OFFCURVE",
"20 -185 CURVE SMOOTH",
"9 -185 OFFCURVE",
"-8 -177 OFFCURVE",
"-8 -164 CURVE SMOOTH",
"-8 -138 OFFCURVE",
"21 -134 OFFCURVE",
"21 -94 CURVE SMOOTH",
"21 -53 OFFCURVE",
"-13 -34 OFFCURVE",
"-50 -34 CURVE SMOOTH",
"-89 -34 OFFCURVE",
"-118 -68 OFFCURVE",
"-118 -105 CURVE SMOOTH",
"-118 -182 OFFCURVE",
"-30 -212 OFFCURVE",
"33 -212 CURVE SMOOTH"
);
},
{
closed = 1;
nodes = (
"180 523 OFFCURVE",
"225 563 OFFCURVE",
"225 612 CURVE SMOOTH",
"225 661 OFFCURVE",
"179 701 OFFCURVE",
"132 701 CURVE SMOOTH",
"84 701 OFFCURVE",
"38 661 OFFCURVE",
"38 612 CURVE SMOOTH",
"38 562 OFFCURVE",
"84 523 OFFCURVE",
"132 523 CURVE SMOOTH"
);
}
);
width = 287;
}
);
note = j;
unicode = 006A;
},
{
glyphname = k;
lastChange = "2015-12-10 09:00:40 +0000";
layers = (
{
anchors = (
{
name = bottom;
position = "{264, 0}";
},
{
name = top;
position = "{264, 467}";
}
);
layerId = "A270BFC0-E682-4EED-9FF7-BE35A5492496";
paths = (
{
closed = 1;
nodes = (
"247 0 LINE",
"247 27 LINE",
"180 27 OFFCURVE",
"176 33 OFFCURVE",
"176 83 CURVE SMOOTH",
"176 693 LINE",
"149 693 LINE",
"43 675 LINE",
"43 648 LINE",
"80 648 LINE SMOOTH",
"104 648 OFFCURVE",
"110 640 OFFCURVE",
"110 606 CURVE SMOOTH",
"110 83 LINE SMOOTH",
"110 33 OFFCURVE",
"107 27 OFFCURVE",
"39 27 CURVE",
"39 0 LINE"
);
},
{
closed = 1;
nodes = (
"499 0 LINE",
"499 27 LINE",
"489 27 LINE SMOOTH",
"465 27 OFFCURVE",
"448 39 OFFCURVE",
"397 107 CURVE SMOOTH",
"253 297 LINE",
"213 245 LINE",
"341 74 LINE SMOOTH",
"352 58 OFFCURVE",
"361 45 OFFCURVE",
"361 38 CURVE SMOOTH",
"361 31 OFFCURVE",
"352 27 OFFCURVE",
"336 27 CURVE SMOOTH",
"316 27 LINE",
"316 0 LINE"
);
},
{
closed = 1;
nodes = (
"339 364 LINE SMOOTH",
"379 404 OFFCURVE",
"408 440 OFFCURVE",
"465 440 CURVE SMOOTH",
"480 440 LINE",
"480 467 LINE",
"322 467 LINE",
"322 440 LINE",
"338 440 LINE SMOOTH",
"363 440 OFFCURVE",
"365 423 OFFCURVE",
"337 396 CURVE SMOOTH",
"155 215 LINE",
"155 175 LINE"
);
}
);
width = 502;
},
{
anchors = (
{
name = bottom;
position = "{271, 0}";
},
{
name = top;
position = "{271, 470}";
}
);
layerId = "705D5379-5CC9-457D-BF30-EC6EB9252852";
paths = (
{
closed = 1;
nodes = (
"270 0 LINE",
"270 33 LINE",
"214 33 OFFCURVE",
"206 43 OFFCURVE",
"206 83 CURVE SMOOTH",
"206 690 LINE",
"178 690 LINE",
"31 667 LINE",
"31 633 LINE",
"61 633 LINE SMOOTH",
"84 633 OFFCURVE",
"90 623 OFFCURVE",
"90 586 CURVE SMOOTH",
"90 83 LINE SMOOTH",
"90 44 OFFCURVE",
"85 33 OFFCURVE",
"25 33 CURVE",
"25 0 LINE"
);
},
{
closed = 1;
nodes = (
"545 0 LINE",
"545 33 LINE",
"535 33 LINE SMOOTH",
"510 33 OFFCURVE",
"488 53 OFFCURVE",
"443 115 CURVE SMOOTH",
"292 322 LINE",
"225 239 LINE",
"341 78 LINE SMOOTH",
"352 63 OFFCURVE",
"361 51 OFFCURVE",
"361 44 CURVE SMOOTH",
"361 37 OFFCURVE",
"352 33 OFFCURVE",
"341 33 CURVE SMOOTH",
"332 33 LINE",
"332 0 LINE"
);
},
{
closed = 1;
nodes = (
"354 354 LINE SMOOTH",
"403 412 OFFCURVE",
"449 437 OFFCURVE",
"506 437 CURVE SMOOTH",
"520 437 LINE",
"520 470 LINE",
"297 470 LINE",
"297 437 LINE",
"320 437 LINE SMOOTH",
"344 437 OFFCURVE",
"347 416 OFFCURVE",
"308 364 CURVE SMOOTH",
"146 150 LINE",
"146 110 LINE"
);
}
);
width = 545;
},
{
anchors = (
{
name = bottom;
position = "{306, 0}";
},
{
name = top;
position = "{306, 470}";
}
);
layerId = "C3F6A16D-5E1F-403C-905F-9502D4908E23";
paths = (
{
closed = 1;
nodes = (
"291 0 LINE",
"291 33 LINE",
"245 33 OFFCURVE",
"244 41 OFFCURVE",
"244 83 CURVE SMOOTH",
"244 690 LINE",
"191 690 LINE",
"21 664 LINE",
"21 631 LINE",
"56 631 LINE SMOOTH",
"80 631 OFFCURVE",
"85 624 OFFCURVE",
"85 598 CURVE SMOOTH",
"85 83 LINE SMOOTH",
"85 39 OFFCURVE",
"77 33 OFFCURVE",
"21 33 CURVE",
"21 0 LINE"
);
},
{
closed = 1;
nodes = (
"605 0 LINE",
"605 33 LINE",
"595 33 LINE SMOOTH",
"573 33 OFFCURVE",
"545 64 OFFCURVE",
"501 127 CURVE SMOOTH",
"351 341 LINE",
"245 238 LINE",
"341 83 LINE SMOOTH",
"352 65 OFFCURVE",
"363 50 OFFCURVE",
"363 43 CURVE SMOOTH",
"363 36 OFFCURVE",
"359 33 OFFCURVE",
"346 33 CURVE SMOOTH",
"328 33 LINE",
"328 0 LINE"
);
},
{
closed = 1;
nodes = (
"392 341 LINE SMOOTH",
"453 394 OFFCURVE",
"493 437 OFFCURVE",
"552 437 CURVE SMOOTH",
"556 437 LINE",
"556 470 LINE",
"361 471 LINE",
"361 438 LINE",
"387 438 LINE SMOOTH",
"416 438 OFFCURVE",
"421 414 OFFCURVE",
"372 370 CURVE SMOOTH",
"135 161 LINE",
"135 115 LINE"
);
}
);
width = 606;
}
);
leftKerningGroup = h;
note = k;
rightKerningGroup = k;
unicode = 006B;
},
{
glyphname = l;
lastChange = "2015-12-10 09:00:39 +0000";
layers = (
{
anchors = (
{
name = bottom;
position = "{132, 0}";
},
{
name = center;
position = "{132, 234}";
},
{
name = top;
position = "{132, 633}";
},
{
name = topright;
position = "{256, 503}";
}
);
layerId = "A270BFC0-E682-4EED-9FF7-BE35A5492496";
paths = (
{
closed = 1;
nodes = (
"241 0 LINE",
"241 27 LINE",
"174 27 OFFCURVE",
"170 33 OFFCURVE",
"170 83 CURVE SMOOTH",
"170 693 LINE",
"143 693 LINE",
"37 675 LINE",
"37 648 LINE",
"74 648 LINE SMOOTH",
"98 648 OFFCURVE",
"104 640 OFFCURVE",
"104 606 CURVE SMOOTH",
"104 83 LINE SMOOTH",
"104 33 OFFCURVE",
"101 27 OFFCURVE",
"33 27 CURVE",
"33 0 LINE"
);
}
);
width = 273;
},
{
anchors = (
{
name = bottom;
position = "{145, 0}";
},
{
name = center;
position = "{145, 235}";
},
{
name = top;
position = "{145, 660}";
},
{
name = topright;
position = "{301, 531}";
}
);
layerId = "705D5379-5CC9-457D-BF30-EC6EB9252852";
paths = (
{
closed = 1;
nodes = (
"270 0 LINE",
"270 33 LINE",
"214 33 OFFCURVE",
"206 43 OFFCURVE",
"206 83 CURVE SMOOTH",
"206 690 LINE",
"178 690 LINE",
"31 667 LINE",
"31 633 LINE",
"61 633 LINE SMOOTH",
"84 633 OFFCURVE",
"90 623 OFFCURVE",
"90 586 CURVE SMOOTH",
"90 83 LINE SMOOTH",
"90 44 OFFCURVE",
"85 33 OFFCURVE",
"25 33 CURVE",
"25 0 LINE"
);
}
);
width = 295;
},
{
anchors = (
{
name = bottom;
position = "{160, 0}";
},
{
name = center;
position = "{160, 235}";
},
{
name = top;
position = "{160, 660}";
},
{
name = topright;
position = "{344, 470}";
}
);
layerId = "C3F6A16D-5E1F-403C-905F-9502D4908E23";
paths = (
{
closed = 1;
nodes = (
"298 0 LINE",
"298 33 LINE",
"252 33 OFFCURVE",
"244 41 OFFCURVE",
"244 83 CURVE SMOOTH",
"244 690 LINE",
"191 690 LINE",
"21 664 LINE",
"21 631 LINE",
"56 631 LINE SMOOTH",
"80 631 OFFCURVE",
"85 624 OFFCURVE",
"85 598 CURVE SMOOTH",
"85 83 LINE SMOOTH",
"85 39 OFFCURVE",
"77 33 OFFCURVE",
"21 33 CURVE",
"21 0 LINE"
);
}
);
width = 321;
}
);
leftKerningGroup = h;
note = l;
rightKerningGroup = l;
unicode = 006C;
},
{
glyphname = lslash;
lastChange = "2015-12-10 09:00:39 +0000";
layers = (
{
components = (
{
name = l;
transform = "{1, 0, 0, 1, 11, 0}";
}
);
layerId = "A270BFC0-E682-4EED-9FF7-BE35A5492496";
paths = (
{
closed = 1;
nodes = (
"280 446 LINE",
"280 488 LINE",
"31 316 LINE",
"31 274 LINE"
);
}
);
width = 312;
},
{
components = (
{
name = l;
transform = "{1, 0, 0, 1, 5, 0}";
}
);
layerId = "705D5379-5CC9-457D-BF30-EC6EB9252852";
paths = (
{
closed = 1;
nodes = (
"274 436 LINE",
"274 488 LINE",
"25 316 LINE",
"25 264 LINE"
);
}
);
width = 300;
},
{
components = (
{
name = l;
transform = "{1, 0, 0, 1, 8, 0}";
}
);
layerId = "C3F6A16D-5E1F-403C-905F-9502D4908E23";
paths = (
{
closed = 1;
nodes = (
"296 436 LINE",
"296 498 LINE",
"19 326 LINE",
"19 264 LINE"
);
}
);
width = 320;
}
);
leftKerningGroup = h;
rightKerningGroup = l;
unicode = 0142;
},
{
glyphname = m;
lastChange = "2015-12-10 09:00:39 +0000";
layers = (
{
anchors = (
{
name = bottom;
position = "{412, 0}";
},
{
name = top;
position = "{412, 467}";
}
);
layerId = "A270BFC0-E682-4EED-9FF7-BE35A5492496";
paths = (
{
closed = 1;
nodes = (
"791 0 LINE",
"791 27 LINE",
"723 27 OFFCURVE",
"720 33 OFFCURVE",
"720 83 CURVE SMOOTH",
"720 336 LINE SMOOTH",
"720 436 OFFCURVE",
"684 479 OFFCURVE",
"598 479 CURVE SMOOTH",
"517 479 OFFCURVE",
"473 441 OFFCURVE",
"436 381 CURVE",
"436 338 LINE",
"466 386 OFFCURVE",
"503 441 OFFCURVE",
"570 441 CURVE SMOOTH",
"637 441 OFFCURVE",
"654 387 OFFCURVE",
"654 327 CURVE SMOOTH",
"654 83 LINE SMOOTH",
"654 33 OFFCURVE",
"651 27 OFFCURVE",
"583 27 CURVE",
"583 0 LINE"
);
},
{
closed = 1;
nodes = (
"245 0 LINE",
"245 27 LINE",
"178 27 OFFCURVE",
"174 33 OFFCURVE",
"174 83 CURVE SMOOTH",
"174 395 LINE",
"171 395 LINE",
"171 473 LINE",
"144 473 LINE",
"41 455 LINE",
"41 428 LINE",
"78 428 LINE SMOOTH",
"102 428 OFFCURVE",
"108 420 OFFCURVE",
"108 386 CURVE SMOOTH",
"108 83 LINE SMOOTH",
"108 33 OFFCURVE",
"105 27 OFFCURVE",
"37 27 CURVE",
"37 0 LINE"
);
},
{
closed = 1;
nodes = (
"518 0 LINE",
"518 27 LINE",
"450 27 OFFCURVE",
"447 33 OFFCURVE",
"447 83 CURVE SMOOTH",
"447 361 LINE SMOOTH",
"447 439 OFFCURVE",
"407 479 OFFCURVE",
"325 479 CURVE SMOOTH",
"244 479 OFFCURVE",
"200 441 OFFCURVE",
"163 381 CURVE",
"163 338 LINE",
"193 386 OFFCURVE",
"230 441 OFFCURVE",
"297 441 CURVE SMOOTH",
"364 441 OFFCURVE",
"381 387 OFFCURVE",
"381 327 CURVE SMOOTH",
"381 83 LINE SMOOTH",
"381 33 OFFCURVE",
"378 27 OFFCURVE",
"310 27 CURVE",
"310 0 LINE"
);
}
);
width = 825;
},
{
anchors = (
{
name = bottom;
position = "{448, 0}";
},
{
name = top;
position = "{448, 500}";
}
);
layerId = "705D5379-5CC9-457D-BF30-EC6EB9252852";
paths = (
{
closed = 1;
nodes = (
"878 0 LINE",
"878 33 LINE",
"820 33 OFFCURVE",
"813 42 OFFCURVE",
"813 83 CURVE SMOOTH",
"813 333 LINE SMOOTH",
"813 427 OFFCURVE",
"763 480 OFFCURVE",
"680 480 CURVE SMOOTH",
"615 480 OFFCURVE",
"545 448 OFFCURVE",
"504 401 CURVE",
"504 348 LINE",
"536 393 OFFCURVE",
"568 415 OFFCURVE",
"612 415 CURVE SMOOTH",
"667 415 OFFCURVE",
"698 381 OFFCURVE",
"698 318 CURVE SMOOTH",
"698 78 LINE SMOOTH",
"698 36 OFFCURVE",
"690 33 OFFCURVE",
"641 33 CURVE",
"641 0 LINE"
);
},
{
closed = 1;
nodes = (
"271 0 LINE",
"271 33 LINE",
"227 33 OFFCURVE",
"215 34 OFFCURVE",
"215 78 CURVE SMOOTH",
"215 413 LINE",
"212 413 LINE",
"212 475 LINE",
"184 475 LINE",
"40 452 LINE",
"40 418 LINE",
"70 418 LINE SMOOTH",
"92 418 OFFCURVE",
"98 408 OFFCURVE",
"98 372 CURVE SMOOTH",
"98 83 LINE SMOOTH",
"98 43 OFFCURVE",
"93 33 OFFCURVE",
"34 33 CURVE",
"34 0 LINE"
);
},
{
closed = 1;
nodes = (
"571 0 LINE",
"571 33 LINE",
"521 33 OFFCURVE",
"514 43 OFFCURVE",
"514 83 CURVE SMOOTH",
"514 369 LINE SMOOTH",
"514 416 OFFCURVE",
"467 480 OFFCURVE",
"379 480 CURVE SMOOTH",
"324 480 OFFCURVE",
"259 455 OFFCURVE",
"205 407 CURVE",
"205 357 LINE",
"233 397 OFFCURVE",
"270 415 OFFCURVE",
"311 415 CURVE SMOOTH",
"369 415 OFFCURVE",
"399 381 OFFCURVE",
"399 318 CURVE SMOOTH",
"399 78 LINE SMOOTH",
"399 36 OFFCURVE",
"390 33 OFFCURVE",
"341 33 CURVE",
"341 0 LINE"
);
}
);
width = 907;
},
{
anchors = (
{
name = bottom;
position = "{467, 0}";
},
{
name = top;
position = "{467, 470}";
}
);
layerId = "C3F6A16D-5E1F-403C-905F-9502D4908E23";
paths = (
{
closed = 1;
nodes = (
"914 0 LINE",
"914 33 LINE",
"863 33 OFFCURVE",
"856 41 OFFCURVE",
"856 83 CURVE SMOOTH",
"856 318 LINE SMOOTH",
"856 438 OFFCURVE",
"794 482 OFFCURVE",
"693 482 CURVE SMOOTH",
"594 482 OFFCURVE",
"541 439 OFFCURVE",
"516 354 CURVE",
"549 343 LINE",
"558 390 OFFCURVE",
"583 423 OFFCURVE",
"628 423 CURVE SMOOTH",
"670 423 OFFCURVE",
"697 396 OFFCURVE",
"697 318 CURVE SMOOTH",
"697 78 LINE SMOOTH",
"697 41 OFFCURVE",
"690 33 OFFCURVE",
"647 33 CURVE",
"647 0 LINE"
);
},
{
closed = 1;
nodes = (
"296 0 LINE",
"296 33 LINE",
"250 33 OFFCURVE",
"242 41 OFFCURVE",
"242 83 CURVE SMOOTH",
"242 409 LINE",
"237 409 LINE",
"237 475 LINE",
"184 475 LINE",
"19 449 LINE",
"19 416 LINE",
"54 416 LINE SMOOTH",
"78 416 OFFCURVE",
"83 409 OFFCURVE",
"83 383 CURVE SMOOTH",
"83 83 LINE SMOOTH",
"83 39 OFFCURVE",
"75 33 OFFCURVE",
"19 33 CURVE",
"19 0 LINE"
);
},
{
closed = 1;
nodes = (
"601 0 LINE",
"601 33 LINE",
"555 33 OFFCURVE",
"549 41 OFFCURVE",
"549 83 CURVE SMOOTH",
"549 350 LINE SMOOTH",
"549 425 OFFCURVE",
"500 482 OFFCURVE",
"398 482 CURVE SMOOTH",
"301 482 OFFCURVE",
"255 431 OFFCURVE",
"224 392 CURVE",
"230 364 LINE",
"271 405 OFFCURVE",
"291 423 OFFCURVE",
"325 423 CURVE SMOOTH",
"366 423 OFFCURVE",
"390 398 OFFCURVE",
"390 318 CURVE SMOOTH",
"390 78 LINE SMOOTH",
"390 41 OFFCURVE",
"385 33 OFFCURVE",
"342 33 CURVE",
"342 0 LINE"
);
}
);
width = 934;
}
);
leftKerningGroup = m;
note = m;
rightKerningGroup = h;
unicode = 006D;
},
{
glyphname = n;
lastChange = "2015-12-10 09:00:39 +0000";
layers = (
{
anchors = (
{
name = bottom;
position = "{284, 0}";
},
{
name = top;
position = "{284, 467}";
}
);
layerId = "A270BFC0-E682-4EED-9FF7-BE35A5492496";
paths = (
{
closed = 1;
nodes = (
"535 0 LINE",
"535 27 LINE",
"467 27 OFFCURVE",
"464 33 OFFCURVE",
"464 83 CURVE SMOOTH",
"464 336 LINE SMOOTH",
"464 434 OFFCURVE",
"423 479 OFFCURVE",
"328 479 CURVE SMOOTH",
"245 479 OFFCURVE",
"203 445 OFFCURVE",
"163 381 CURVE",
"163 338 LINE",
"198 394 OFFCURVE",
"232 441 OFFCURVE",
"301 441 CURVE SMOOTH",
"377 441 OFFCURVE",
"398 384 OFFCURVE",
"398 327 CURVE SMOOTH",
"398 83 LINE SMOOTH",
"398 33 OFFCURVE",
"394 27 OFFCURVE",
"327 27 CURVE",
"327 0 LINE"
);
},
{
closed = 1;
nodes = (
"245 0 LINE",
"245 27 LINE",
"178 27 OFFCURVE",
"174 33 OFFCURVE",
"174 83 CURVE SMOOTH",
"174 395 LINE",
"171 395 LINE",
"171 473 LINE",
"144 473 LINE",
"41 455 LINE",
"41 428 LINE",
"78 428 LINE SMOOTH",
"102 428 OFFCURVE",
"108 420 OFFCURVE",
"108 386 CURVE SMOOTH",
"108 83 LINE SMOOTH",
"108 33 OFFCURVE",
"105 27 OFFCURVE",
"37 27 CURVE",
"37 0 LINE"
);
}
);
width = 569;
},
{
anchors = (
{
name = bottom;
position = "{302, 0}";
},
{
name = top;
position = "{302, 470}";
}
);
layerId = "705D5379-5CC9-457D-BF30-EC6EB9252852";
paths = (
{
closed = 1;
nodes = (
"586 0 LINE",
"586 33 LINE",
"528 33 OFFCURVE",
"520 43 OFFCURVE",
"520 83 CURVE SMOOTH",
"520 333 LINE SMOOTH",
"520 427 OFFCURVE",
"469 480 OFFCURVE",
"386 480 CURVE SMOOTH",
"332 480 OFFCURVE",
"269 457 OFFCURVE",
"211 407 CURVE",
"211 364 LINE",
"236 389 OFFCURVE",
"270 415 OFFCURVE",
"319 415 CURVE SMOOTH",
"374 415 OFFCURVE",
"405 381 OFFCURVE",
"405 318 CURVE SMOOTH",
"405 78 LINE SMOOTH",
"405 36 OFFCURVE",
"396 33 OFFCURVE",
"347 33 CURVE",
"347 0 LINE"
);
},
{
closed = 1;
nodes = (
"271 0 LINE",
"271 33 LINE",
"227 33 OFFCURVE",
"215 34 OFFCURVE",
"215 78 CURVE SMOOTH",
"215 409 LINE",
"212 409 LINE",
"212 475 LINE",
"184 475 LINE",
"40 452 LINE",
"40 418 LINE",
"70 418 LINE SMOOTH",
"92 418 OFFCURVE",
"98 408 OFFCURVE",
"98 372 CURVE SMOOTH",
"98 83 LINE SMOOTH",
"98 43 OFFCURVE",
"93 33 OFFCURVE",
"34 33 CURVE",
"34 0 LINE"
);
}
);
width = 616;
},
{
anchors = (
{
name = bottom;
position = "{313, 0}";
},
{
name = top;
position = "{313, 470}";
}
);
layerId = "C3F6A16D-5E1F-403C-905F-9502D4908E23";
paths = (
{
closed = 1;
nodes = (
"607 0 LINE",
"607 33 LINE",
"556 33 OFFCURVE",
"549 41 OFFCURVE",
"549 83 CURVE SMOOTH",
"549 318 LINE SMOOTH",
"549 436 OFFCURVE",
"490 482 OFFCURVE",
"398 482 CURVE SMOOTH",
"298 482 OFFCURVE",
"252 427 OFFCURVE",
"224 392 CURVE",
"230 364 LINE",
"271 405 OFFCURVE",
"291 423 OFFCURVE",
"325 423 CURVE SMOOTH",
"366 423 OFFCURVE",
"390 398 OFFCURVE",
"390 318 CURVE SMOOTH",
"390 78 LINE SMOOTH",
"390 41 OFFCURVE",
"385 33 OFFCURVE",
"342 33 CURVE",
"342 0 LINE"
);
},
{
closed = 1;
nodes = (
"296 0 LINE",
"296 33 LINE",
"250 33 OFFCURVE",
"242 41 OFFCURVE",
"242 83 CURVE SMOOTH",
"242 409 LINE",
"237 409 LINE",
"237 475 LINE",
"184 475 LINE",
"19 449 LINE",
"19 416 LINE",
"54 416 LINE SMOOTH",
"78 416 OFFCURVE",
"83 409 OFFCURVE",
"83 383 CURVE SMOOTH",
"83 83 LINE SMOOTH",
"83 39 OFFCURVE",
"75 33 OFFCURVE",
"19 33 CURVE",
"19 0 LINE"
);
}
);
width = 628;
}
);
leftKerningGroup = m;
note = n;
rightKerningGroup = h;
unicode = 006E;
},
{
glyphname = o;
lastChange = "2015-12-10 09:00:39 +0000";
layers = (
{
anchors = (
{
name = bottom;
position = "{258, 0}";
},
{
name = center;
position = "{258, 234}";
},
{
name = ogonek;
position = "{466, 10}";
},
{
name = top;
position = "{258, 467}";
},
{
name = topright;
position = "{498, 467}";
}
);
layerId = "A270BFC0-E682-4EED-9FF7-BE35A5492496";
paths = (
{
closed = 1;
nodes = (
"399 -12 OFFCURVE",
"467 78 OFFCURVE",
"467 234 CURVE SMOOTH",
"467 388 OFFCURVE",
"399 479 OFFCURVE",
"258 479 CURVE SMOOTH",
"118 479 OFFCURVE",
"50 388 OFFCURVE",
"50 234 CURVE SMOOTH",
"50 78 OFFCURVE",
"118 -12 OFFCURVE",
"258 -12 CURVE SMOOTH"
);
},
{
closed = 1;
nodes = (
"168 15 OFFCURVE",
"125 97 OFFCURVE",
"125 234 CURVE SMOOTH",
"125 369 OFFCURVE",
"168 452 OFFCURVE",
"258 452 CURVE SMOOTH",
"349 452 OFFCURVE",
"391 369 OFFCURVE",
"391 234 CURVE SMOOTH",
"391 97 OFFCURVE",
"349 15 OFFCURVE",
"258 15 CURVE SMOOTH"
);
}
);
width = 516;
},
{
anchors = (
{
name = bottom;
position = "{278, 0}";
},
{
name = center;
position = "{278, 235}";
},
{
name = ogonek;
position = "{496, 10}";
},
{
name = top;
position = "{278, 470}";
},
{
name = topright;
position = "{531, 470}";
}
);
layerId = "705D5379-5CC9-457D-BF30-EC6EB9252852";
paths = (
{
closed = 1;
nodes = (
"438 -10 OFFCURVE",
"511 66 OFFCURVE",
"511 236 CURVE SMOOTH",
"511 405 OFFCURVE",
"438 481 OFFCURVE",
"280 481 CURVE SMOOTH",
"118 481 OFFCURVE",
"45 402 OFFCURVE",
"45 234 CURVE SMOOTH",
"45 66 OFFCURVE",
"118 -10 OFFCURVE",
"278 -10 CURVE SMOOTH"
);
},
{
closed = 1;
nodes = (
"201 30 OFFCURVE",
"167 93 OFFCURVE",
"167 235 CURVE SMOOTH",
"167 377 OFFCURVE",
"201 441 OFFCURVE",
"277 441 CURVE SMOOTH",
"351 441 OFFCURVE",
"387 379 OFFCURVE",
"388 236 CURVE SMOOTH",
"389 98 OFFCURVE",
"358 30 OFFCURVE",
"278 30 CURVE SMOOTH"
);
}
);
width = 556;
},
{
anchors = (
{
name = bottom;
position = "{287, 0}";
},
{
name = center;
position = "{287, 235}";
},
{
name = ogonek;
position = "{520, 10}";
},
{
name = top;
position = "{287, 470}";
},
{
name = topright;
position = "{559, 470}";
}
);
layerId = "C3F6A16D-5E1F-403C-905F-9502D4908E23";
paths = (
{
closed = 1;
nodes = (
"461 -12 OFFCURVE",
"544 68 OFFCURVE",
"544 236 CURVE SMOOTH",
"544 403 OFFCURVE",
"461 482 OFFCURVE",
"289 482 CURVE SMOOTH",
"115 482 OFFCURVE",
"29 402 OFFCURVE",
"29 234 CURVE SMOOTH",
"29 68 OFFCURVE",
"113 -12 OFFCURVE",
"287 -12 CURVE SMOOTH"
);
},
{
closed = 1;
nodes = (
"218 20 OFFCURVE",
"196 83 OFFCURVE",
"196 231 CURVE SMOOTH",
"196 370 OFFCURVE",
"218 450 OFFCURVE",
"286 450 CURVE SMOOTH",
"353 450 OFFCURVE",
"376 382 OFFCURVE",
"377 236 CURVE SMOOTH",
"379 86 OFFCURVE",
"353 20 OFFCURVE",
"288 20 CURVE SMOOTH"
);
}
);
width = 572;
}
);
leftKerningGroup = o;
note = o;
rightKerningGroup = b;
unicode = 006F;
},
{
glyphname = oslash;
lastChange = "2015-12-10 09:00:40 +0000";
layers = (
{
anchors = (
{
name = top;
position = "{275, 500}";
}
);
components = (
{
name = o;
transform = "{1, 0, 0, 1, 1, 0}";
}
);
layerId = "A270BFC0-E682-4EED-9FF7-BE35A5492496";
paths = (
{
closed = 1;
nodes = (
"84 -6 LINE",
"473 473 LINE",
"439 473 LINE",
"50 -6 LINE"
);
}
);
width = 522;
},
{
anchors = (
{
name = top;
position = "{282, 500}";
}
);
components = (
{
name = o;
transform = "{1, 0, 0, 1, 8, 0}";
}
);
layerId = "705D5379-5CC9-457D-BF30-EC6EB9252852";
paths = (
{
closed = 1;
nodes = (
"93 -6 LINE",
"493 476 LINE",
"446 476 LINE",
"45 -6 LINE"
);
}
);
width = 564;
},
{
anchors = (
{
name = top;
position = "{291, 470}";
}
);
components = (
{
name = o;
}
);
layerId = "C3F6A16D-5E1F-403C-905F-9502D4908E23";
paths = (
{
closed = 1;
nodes = (
"89 -6 LINE",
"496 476 LINE",
"439 476 LINE",
"31 -6 LINE"
);
}
);
width = 572;
}
);
leftKerningGroup = o;
note = oslash;
rightKerningGroup = b;
unicode = 00F8;
},
{
glyphname = oe;
lastChange = "2015-12-10 09:00:40 +0000";
layers = (
{
anchors = (
{
name = bottom;
position = "{418, 0}";
},
{
name = top;
position = "{418, 467}";
}
);
layerId = "A270BFC0-E682-4EED-9FF7-BE35A5492496";
paths = (
{
closed = 1;
nodes = (
"399 -12 OFFCURVE",
"467 79 OFFCURVE",
"467 234 CURVE SMOOTH",
"467 388 OFFCURVE",
"399 479 OFFCURVE",
"258 479 CURVE SMOOTH",
"118 479 OFFCURVE",
"50 389 OFFCURVE",
"50 234 CURVE SMOOTH",
"50 78 OFFCURVE",
"118 -12 OFFCURVE",
"258 -12 CURVE SMOOTH"
);
},
{
closed = 1;
nodes = (
"168 15 OFFCURVE",
"125 97 OFFCURVE",
"125 234 CURVE SMOOTH",
"125 370 OFFCURVE",
"168 452 OFFCURVE",
"258 452 CURVE SMOOTH",
"349 452 OFFCURVE",
"391 369 OFFCURVE",
"391 234 CURVE SMOOTH",
"391 98 OFFCURVE",
"349 15 OFFCURVE",
"258 15 CURVE SMOOTH"
);
},
{
closed = 1;
nodes = (
"724 -12 OFFCURVE",
"771 53 OFFCURVE",
"791 123 CURVE",
"766 131 LINE",
"752 82 OFFCURVE",
"713 15 OFFCURVE",
"617 15 CURVE SMOOTH",
"488 15 OFFCURVE",
"465 133 OFFCURVE",
"467 242 CURVE SMOOTH",
"470 372 OFFCURVE",
"508 452 OFFCURVE",
"602 452 CURVE SMOOTH",
"686 452 OFFCURVE",
"719 387 OFFCURVE",
"719 257 CURVE",
"461 257 LINE",
"460 230 LINE",
"795 230 LINE",
"795 237 LINE SMOOTH",
"795 339 OFFCURVE",
"776 479 OFFCURVE",
"605 479 CURVE SMOOTH",
"457 479 OFFCURVE",
"391 375 OFFCURVE",
"391 226 CURVE SMOOTH",
"391 82 OFFCURVE",
"453 -12 OFFCURVE",
"601 -12 CURVE SMOOTH"
);
}
);
width = 842;
},
{
anchors = (
{
name = bottom;
position = "{424, 0}";
},
{
name = top;
position = "{424, 470}";
}
);
layerId = "705D5379-5CC9-457D-BF30-EC6EB9252852";
paths = (
{
closed = 1;
nodes = (
"438 -10 OFFCURVE",
"507 66 OFFCURVE",
"507 235 CURVE SMOOTH",
"507 404 OFFCURVE",
"438 480 OFFCURVE",
"279 480 CURVE SMOOTH",
"118 480 OFFCURVE",
"45 402 OFFCURVE",
"45 234 CURVE SMOOTH",
"45 66 OFFCURVE",
"118 -10 OFFCURVE",
"278 -10 CURVE SMOOTH"
);
},
{
closed = 1;
nodes = (
"201 30 OFFCURVE",
"167 93 OFFCURVE",
"167 235 CURVE SMOOTH",
"167 376 OFFCURVE",
"201 440 OFFCURVE",
"277 440 CURVE SMOOTH",
"353 440 OFFCURVE",
"387 375 OFFCURVE",
"388 236 CURVE SMOOTH",
"389 98 OFFCURVE",
"358 30 OFFCURVE",
"278 30 CURVE SMOOTH"
);
},
{
closed = 1;
nodes = (
"740 -10 OFFCURVE",
"779 66 OFFCURVE",
"804 125 CURVE",
"775 143 LINE",
"752 83 OFFCURVE",
"714 53 OFFCURVE",
"647 53 CURVE SMOOTH",
"537 53 OFFCURVE",
"510 133 OFFCURVE",
"510 256 CURVE SMOOTH",
"510 383 OFFCURVE",
"539 440 OFFCURVE",
"607 440 CURVE SMOOTH",
"668 440 OFFCURVE",
"689 394 OFFCURVE",
"689 269 CURVE",
"473 269 LINE",
"473 229 LINE",
"811 229 LINE",
"811 234 LINE SMOOTH",
"811 383 OFFCURVE",
"756 480 OFFCURVE",
"605 480 CURVE SMOOTH",
"464 480 OFFCURVE",
"388 395 OFFCURVE",
"388 231 CURVE SMOOTH",
"388 72 OFFCURVE",
"459 -10 OFFCURVE",
"602 -10 CURVE SMOOTH"
);
}
);
width = 857;
},
{
anchors = (
{
name = bottom;
position = "{433, 0}";
},
{
name = top;
position = "{433, 470}";
}
);
layerId = "C3F6A16D-5E1F-403C-905F-9502D4908E23";
paths = (
{
closed = 1;
nodes = (
"472 -12 OFFCURVE",
"544 130 OFFCURVE",
"544 241 CURVE SMOOTH",
"544 354 OFFCURVE",
"470 482 OFFCURVE",
"276 482 CURVE SMOOTH",
"122 482 OFFCURVE",
"29 402 OFFCURVE",
"29 234 CURVE SMOOTH",
"29 68 OFFCURVE",
"121 -12 OFFCURVE",
"271 -12 CURVE SMOOTH"
);
},
{
closed = 1;
nodes = (
"218 20 OFFCURVE",
"196 86 OFFCURVE",
"196 229 CURVE SMOOTH",
"196 372 OFFCURVE",
"218 450 OFFCURVE",
"287 450 CURVE SMOOTH",
"354 450 OFFCURVE",
"376 378 OFFCURVE",
"377 236 CURVE SMOOTH",
"378 86 OFFCURVE",
"354 20 OFFCURVE",
"286 20 CURVE SMOOTH"
);
},
{
closed = 1;
nodes = (
"759 -12 OFFCURVE",
"804 72 OFFCURVE",
"827 127 CURVE",
"791 144 LINE",
"766 89 OFFCURVE",
"723 50 OFFCURVE",
"654 50 CURVE SMOOTH",
"574 50 OFFCURVE",
"544 103 OFFCURVE",
"544 264 CURVE SMOOTH",
"544 414 OFFCURVE",
"570 449 OFFCURVE",
"613 449 CURVE SMOOTH",
"660 449 OFFCURVE",
"675 407 OFFCURVE",
"675 266 CURVE",
"462 266 LINE",
"462 233 LINE",
"842 233 LINE",
"842 242 LINE SMOOTH",
"842 388 OFFCURVE",
"764 482 OFFCURVE",
"623 482 CURVE SMOOTH",
"456 482 OFFCURVE",
"376 356 OFFCURVE",
"377 234 CURVE SMOOTH",
"378 115 OFFCURVE",
"458 -12 OFFCURVE",
"624 -12 CURVE SMOOTH"
);
}
);
width = 870;
}
);
leftKerningGroup = o;
note = oe;
rightKerningGroup = e;
},
{
glyphname = p;
lastChange = "2015-12-10 09:00:39 +0000";
layers = (
{
anchors = (
{
name = bottom;
position = "{279, 0}";
},
{
name = top;
position = "{279, 467}";
}
);
layerId = "A270BFC0-E682-4EED-9FF7-BE35A5492496";
paths = (
{
closed = 1;
nodes = (
"415 -12 OFFCURVE",
"499 59 OFFCURVE",
"499 242 CURVE SMOOTH",
"499 398 OFFCURVE",
"438 479 OFFCURVE",
"316 479 CURVE SMOOTH",
"210 479 OFFCURVE",
"157 418 OFFCURVE",
"145 406 CURVE",
"145 370 LINE",
"163 388 OFFCURVE",
"220 452 OFFCURVE",
"299 452 CURVE SMOOTH",
"390 452 OFFCURVE",
"423 367 OFFCURVE",
"423 236 CURVE SMOOTH",
"423 76 OFFCURVE",
"374 14 OFFCURVE",
"293 14 CURVE SMOOTH",
"210 14 OFFCURVE",
"158 79 OFFCURVE",
"131 129 CURVE",
"131 81 LINE",
"159 45 OFFCURVE",
"203 -12 OFFCURVE",
"303 -12 CURVE SMOOTH"
);
},
{
closed = 1;
nodes = (
"241 -200 LINE",
"241 -173 LINE",
"174 -173 OFFCURVE",
"170 -167 OFFCURVE",
"170 -117 CURVE SMOOTH",
"170 429 LINE",
"168 429 LINE",
"168 473 LINE",
"141 473 LINE",
"37 455 LINE",
"37 428 LINE",
"74 428 LINE SMOOTH",
"98 428 OFFCURVE",
"104 420 OFFCURVE",
"104 386 CURVE SMOOTH",
"104 -117 LINE SMOOTH",
"104 -167 OFFCURVE",
"101 -173 OFFCURVE",
"33 -173 CURVE",
"33 -200 LINE"
);
}
);
width = 548;
},
{
anchors = (
{
name = bottom;
position = "{297, 0}";
},
{
name = top;
position = "{297, 470}";
}
);
layerId = "705D5379-5CC9-457D-BF30-EC6EB9252852";
paths = (
{
closed = 1;
nodes = (
"457 -11 OFFCURVE",
"542 78 OFFCURVE",
"542 250 CURVE SMOOTH",
"542 403 OFFCURVE",
"474 480 OFFCURVE",
"361 480 CURVE SMOOTH",
"301 480 OFFCURVE",
"238 458 OFFCURVE",
"207 419 CURVE",
"207 377 LINE",
"222 389 OFFCURVE",
"254 415 OFFCURVE",
"301 415 CURVE SMOOTH",
"377 415 OFFCURVE",
"419 348 OFFCURVE",
"419 224 CURVE SMOOTH",
"419 100 OFFCURVE",
"377 29 OFFCURVE",
"293 29 CURVE SMOOTH",
"259 29 OFFCURVE",
"228 41 OFFCURVE",
"203 67 CURVE",
"203 9 LINE",
"243 -6 OFFCURVE",
"270 -11 OFFCURVE",
"306 -11 CURVE SMOOTH"
);
},
{
closed = 1;
nodes = (
"289 -200 LINE",
"289 -167 LINE",
"218 -167 OFFCURVE",
"209 -158 OFFCURVE",
"209 -118 CURVE SMOOTH",
"209 419 LINE",
"206 419 LINE",
"206 475 LINE",
"178 475 LINE",
"34 453 LINE",
"34 419 LINE",
"52 419 LINE SMOOTH",
"89 419 OFFCURVE",
"94 412 OFFCURVE",
"94 384 CURVE SMOOTH",
"94 -118 LINE SMOOTH",
"94 -158 OFFCURVE",
"89 -167 OFFCURVE",
"30 -167 CURVE",
"30 -200 LINE"
);
}
);
width = 587;
},
{
anchors = (
{
name = bottom;
position = "{308, 0}";
},
{
name = top;
position = "{308, 470}";
}
);
layerId = "C3F6A16D-5E1F-403C-905F-9502D4908E23";
paths = (
{
closed = 1;
nodes = (
"484 -12 OFFCURVE",
"579 80 OFFCURVE",
"579 246 CURVE SMOOTH",
"579 401 OFFCURVE",
"503 482 OFFCURVE",
"380 482 CURVE SMOOTH",
"299 482 OFFCURVE",
"259 447 OFFCURVE",
"219 406 CURVE",
"219 352 LINE",
"231 369 OFFCURVE",
"270 431 OFFCURVE",
"323 431 CURVE SMOOTH",
"388 431 OFFCURVE",
"412 355 OFFCURVE",
"412 233 CURVE SMOOTH",
"412 75 OFFCURVE",
"387 21 OFFCURVE",
"322 21 CURVE SMOOTH",
"243 21 OFFCURVE",
"201 113 OFFCURVE",
"175 161 CURVE",
"175 33 LINE",
"219 7 OFFCURVE",
"263 -12 OFFCURVE",
"327 -12 CURVE SMOOTH"
);
},
{
closed = 1;
nodes = (
"295 -200 LINE",
"295 -167 LINE",
"249 -167 OFFCURVE",
"241 -159 OFFCURVE",
"241 -117 CURVE SMOOTH",
"241 424 LINE",
"236 424 LINE",
"236 475 LINE",
"183 475 LINE",
"18 449 LINE",
"18 416 LINE",
"53 416 LINE SMOOTH",
"77 416 OFFCURVE",
"82 409 OFFCURVE",
"82 383 CURVE SMOOTH",
"82 -117 LINE SMOOTH",
"82 -161 OFFCURVE",
"74 -167 OFFCURVE",
"18 -167 CURVE",
"18 -200 LINE"
);
}
);
width = 607;
}
);
note = p;
rightKerningGroup = b;
unicode = 0070;
},
{
glyphname = thorn;
lastChange = "2015-12-10 09:00:39 +0000";
layers = (
{
anchors = (
{
name = bottom;
position = "{276, 0}";
},
{
name = top;
position = "{276, 467}";
}
);
layerId = "A270BFC0-E682-4EED-9FF7-BE35A5492496";
paths = (
{
closed = 1;
nodes = (
"238 -200 LINE",
"238 -173 LINE",
"171 -173 OFFCURVE",
"167 -167 OFFCURVE",
"167 -117 CURVE SMOOTH",
"167 693 LINE",
"140 693 LINE",
"34 675 LINE",
"34 648 LINE",
"71 648 LINE SMOOTH",
"95 648 OFFCURVE",
"101 640 OFFCURVE",
"101 606 CURVE SMOOTH",
"101 -117 LINE SMOOTH",
"101 -167 OFFCURVE",
"98 -173 OFFCURVE",
"30 -173 CURVE",
"30 -200 LINE"
);
},
{
closed = 1;
nodes = (
"412 -12 OFFCURVE",
"496 59 OFFCURVE",
"496 242 CURVE SMOOTH",
"496 398 OFFCURVE",
"435 479 OFFCURVE",
"313 479 CURVE SMOOTH",
"207 479 OFFCURVE",
"154 418 OFFCURVE",
"142 406 CURVE",
"142 370 LINE",
"160 388 OFFCURVE",
"217 452 OFFCURVE",
"296 452 CURVE SMOOTH",
"387 452 OFFCURVE",
"420 367 OFFCURVE",
"420 236 CURVE SMOOTH",
"420 76 OFFCURVE",
"371 14 OFFCURVE",
"290 14 CURVE SMOOTH",
"207 14 OFFCURVE",
"155 79 OFFCURVE",
"128 129 CURVE",
"128 81 LINE",
"156 45 OFFCURVE",
"200 -12 OFFCURVE",
"300 -12 CURVE SMOOTH"
);
}
);
width = 545;
},
{
anchors = (
{
name = bottom;
position = "{273, 0}";
},
{
name = top;
position = "{273, 470}";
}
);
layerId = "705D5379-5CC9-457D-BF30-EC6EB9252852";
paths = (
{
closed = 1;
nodes = (
"265 -200 LINE",
"265 -167 LINE",
"194 -167 OFFCURVE",
"185 -158 OFFCURVE",
"185 -118 CURVE SMOOTH",
"185 690 LINE",
"157 690 LINE",
"10 668 LINE",
"10 634 LINE",
"28 634 LINE SMOOTH",
"65 634 OFFCURVE",
"70 627 OFFCURVE",
"70 599 CURVE SMOOTH",
"70 -118 LINE SMOOTH",
"70 -158 OFFCURVE",
"65 -167 OFFCURVE",
"6 -167 CURVE",
"6 -200 LINE"
);
},
{
closed = 1;
nodes = (
"433 -11 OFFCURVE",
"518 78 OFFCURVE",
"518 250 CURVE SMOOTH",
"518 403 OFFCURVE",
"450 480 OFFCURVE",
"337 480 CURVE SMOOTH",
"277 480 OFFCURVE",
"214 458 OFFCURVE",
"183 419 CURVE",
"183 377 LINE",
"198 389 OFFCURVE",
"230 415 OFFCURVE",
"277 415 CURVE SMOOTH",
"353 415 OFFCURVE",
"395 348 OFFCURVE",
"395 224 CURVE SMOOTH",
"395 100 OFFCURVE",
"353 29 OFFCURVE",
"269 29 CURVE SMOOTH",
"235 29 OFFCURVE",
"204 41 OFFCURVE",
"179 67 CURVE",
"179 9 LINE",
"219 -6 OFFCURVE",
"246 -11 OFFCURVE",
"282 -11 CURVE SMOOTH"
);
}
);
width = 563;
},
{
anchors = (
{
name = bottom;
position = "{306, 0}";
},
{
name = top;
position = "{306, 470}";
}
);
layerId = "C3F6A16D-5E1F-403C-905F-9502D4908E23";
paths = (
{
closed = 1;
nodes = (
"293 -200 LINE",
"293 -167 LINE",
"247 -167 OFFCURVE",
"239 -159 OFFCURVE",
"239 -117 CURVE SMOOTH",
"239 690 LINE",
"186 690 LINE",
"16 664 LINE",
"16 631 LINE",
"51 631 LINE SMOOTH",
"75 631 OFFCURVE",
"80 624 OFFCURVE",
"80 598 CURVE SMOOTH",
"80 -117 LINE SMOOTH",
"80 -161 OFFCURVE",
"72 -167 OFFCURVE",
"16 -167 CURVE",
"16 -200 LINE"
);
},
{
closed = 1;
nodes = (
"482 -12 OFFCURVE",
"577 80 OFFCURVE",
"577 246 CURVE SMOOTH",
"577 401 OFFCURVE",
"501 482 OFFCURVE",
"378 482 CURVE SMOOTH",
"297 482 OFFCURVE",
"257 447 OFFCURVE",
"217 406 CURVE",
"217 352 LINE",
"229 369 OFFCURVE",
"268 431 OFFCURVE",
"321 431 CURVE SMOOTH",
"386 431 OFFCURVE",
"410 355 OFFCURVE",
"410 233 CURVE SMOOTH",
"410 75 OFFCURVE",
"385 21 OFFCURVE",
"320 21 CURVE SMOOTH",
"241 21 OFFCURVE",
"199 113 OFFCURVE",
"173 161 CURVE",
"173 33 LINE",
"217 7 OFFCURVE",
"261 -12 OFFCURVE",
"325 -12 CURVE SMOOTH"
);
}
);
width = 606;
}
);
note = p;
rightKerningGroup = b;
unicode = 00FE;
},
{
glyphname = q;
lastChange = "2015-12-10 09:00:39 +0000";
layers = (
{
anchors = (
{
name = bottom;
position = "{271, 0}";
},
{
name = top;
position = "{271, 467}";
}
);
layerId = "A270BFC0-E682-4EED-9FF7-BE35A5492496";
paths = (
{
closed = 1;
nodes = (
"337 -12 OFFCURVE",
"387 44 OFFCURVE",
"404 61 CURVE",
"404 97 LINE",
"383 76 OFFCURVE",
"328 15 OFFCURVE",
"249 15 CURVE SMOOTH",
"159 15 OFFCURVE",
"126 100 OFFCURVE",
"126 232 CURVE SMOOTH",
"126 392 OFFCURVE",
"175 453 OFFCURVE",
"258 453 CURVE SMOOTH",
"338 453 OFFCURVE",
"392 387 OFFCURVE",
"418 338 CURVE",
"418 386 LINE",
"396 414 OFFCURVE",
"350 479 OFFCURVE",
"248 479 CURVE SMOOTH",
"133 479 OFFCURVE",
"50 407 OFFCURVE",
"50 226 CURVE SMOOTH",
"50 69 OFFCURVE",
"112 -12 OFFCURVE",
"231 -12 CURVE SMOOTH"
);
},
{
closed = 1;
nodes = (
"381 36 LINE",
"381 49 LINE",
"372 49 LINE",
"372 36 LINE"
);
},
{
closed = 1;
nodes = (
"516 -200 LINE",
"516 -173 LINE",
"449 -173 OFFCURVE",
"445 -167 OFFCURVE",
"445 -117 CURVE SMOOTH",
"445 473 LINE",
"418 473 LINE",
"379 430 LINE",
"379 -117 LINE SMOOTH",
"379 -167 OFFCURVE",
"376 -173 OFFCURVE",
"308 -173 CURVE",
"308 -200 LINE"
);
}
);
width = 524;
},
{
anchors = (
{
name = bottom;
position = "{290, 0}";
},
{
name = top;
position = "{290, 470}";
}
);
layerId = "705D5379-5CC9-457D-BF30-EC6EB9252852";
paths = (
{
closed = 1;
nodes = (
"292 -11 OFFCURVE",
"353 19 OFFCURVE",
"385 49 CURVE",
"393 104 LINE",
"346 68 OFFCURVE",
"324 54 OFFCURVE",
"288 54 CURVE SMOOTH",
"209 54 OFFCURVE",
"168 122 OFFCURVE",
"168 245 CURVE SMOOTH",
"168 370 OFFCURVE",
"211 440 OFFCURVE",
"292 440 CURVE SMOOTH",
"326 440 OFFCURVE",
"363 428 OFFCURVE",
"391 395 CURVE",
"449 435 LINE",
"388 463 OFFCURVE",
"353 480 OFFCURVE",
"287 480 CURVE SMOOTH",
"130 480 OFFCURVE",
"45 386 OFFCURVE",
"45 224 CURVE SMOOTH",
"45 81 OFFCURVE",
"111 -11 OFFCURVE",
"226 -11 CURVE SMOOTH"
);
},
{
closed = 1;
nodes = (
"383 42 LINE",
"383 55 LINE",
"374 55 LINE",
"374 42 LINE"
);
},
{
closed = 1;
nodes = (
"557 -200 LINE",
"557 -167 LINE",
"502 -167 OFFCURVE",
"494 -157 OFFCURVE",
"494 -118 CURVE SMOOTH",
"494 475 LINE",
"467 475 LINE",
"378 411 LINE",
"378 -118 LINE SMOOTH",
"378 -157 OFFCURVE",
"371 -167 OFFCURVE",
"305 -167 CURVE",
"305 -200 LINE"
);
}
);
width = 558;
},
{
anchors = (
{
name = bottom;
position = "{300, 0}";
},
{
name = top;
position = "{300, 470}";
}
);
layerId = "C3F6A16D-5E1F-403C-905F-9502D4908E23";
paths = (
{
closed = 1;
nodes = (
"294 -11 OFFCURVE",
"337 11 OFFCURVE",
"392 69 CURVE",
"384 118 LINE",
"369 94 OFFCURVE",
"334 40 OFFCURVE",
"283 40 CURVE SMOOTH",
"225 40 OFFCURVE",
"192 110 OFFCURVE",
"192 254 CURVE SMOOTH",
"192 379 OFFCURVE",
"217 449 OFFCURVE",
"286 449 CURVE SMOOTH",
"367 449 OFFCURVE",
"405 374 OFFCURVE",
"430 339 CURVE",
"430 413 LINE",
"404 439 OFFCURVE",
"372 482 OFFCURVE",
"274 482 CURVE SMOOTH",
"119 482 OFFCURVE",
"29 392 OFFCURVE",
"29 224 CURVE SMOOTH",
"29 74 OFFCURVE",
"103 -11 OFFCURVE",
"226 -11 CURVE SMOOTH"
);
},
{
closed = 1;
nodes = (
"406 42 LINE",
"406 55 LINE",
"357 55 LINE",
"357 42 LINE"
);
},
{
closed = 1;
nodes = (
"590 -200 LINE",
"590 -167 LINE",
"536 -167 OFFCURVE",
"526 -159 OFFCURVE",
"526 -117 CURVE SMOOTH",
"526 475 LINE",
"473 475 LINE",
"367 419 LINE",
"367 -117 LINE SMOOTH",
"367 -161 OFFCURVE",
"359 -167 OFFCURVE",
"303 -167 CURVE",
"303 -200 LINE"
);
}
);
width = 605;
}
);
leftKerningGroup = o;
note = q;
unicode = 0071;
},
{
glyphname = r;
lastChange = "2015-12-20 13:14:48 +0000";
layers = (
{
anchors = (
{
name = bottom;
position = "{145, 0}";
},
{
name = top;
position = "{206, 467}";
}
);
background = {
paths = (
{
closed = 1;
nodes = (
"174 289 LINE",
"174 363 OFFCURVE",
"225 444 OFFCURVE",
"277 444 CURVE SMOOTH",
"284 444 OFFCURVE",
"289 442 OFFCURVE",
"289 438 CURVE SMOOTH",
"289 432 OFFCURVE",
"280 425 OFFCURVE",
"280 407 CURVE SMOOTH",
"280 382 OFFCURVE",
"298 367 OFFCURVE",
"321 367 CURVE SMOOTH",
"345 367 OFFCURVE",
"365 384 OFFCURVE",
"365 416 CURVE SMOOTH",
"365 449 OFFCURVE",
"344 479 OFFCURVE",
"298 479 CURVE SMOOTH",
"227 479 OFFCURVE",
"190 409 OFFCURVE",
"170 370 CURVE",
"170 289 LINE"
);
}
);
};
layerId = "A270BFC0-E682-4EED-9FF7-BE35A5492496";
paths = (
{
closed = 1;
nodes = (
"245 0 LINE",
"245 27 LINE",
"178 27 OFFCURVE",
"174 33 OFFCURVE",
"174 83 CURVE SMOOTH",
"174 375 LINE",
"171 375 LINE",
"171 473 LINE",
"144 473 LINE",
"41 455 LINE",
"41 428 LINE",
"78 428 LINE SMOOTH",
"102 428 OFFCURVE",
"108 420 OFFCURVE",
"108 386 CURVE SMOOTH",
"108 83 LINE SMOOTH",
"108 33 OFFCURVE",
"105 27 OFFCURVE",
"37 27 CURVE",
"37 0 LINE"
);
},
{
closed = 1;
nodes = (
"174 288 LINE",
"174 372 OFFCURVE",
"231 445 OFFCURVE",
"275 445 CURVE SMOOTH",
"284 445 OFFCURVE",
"289 442 OFFCURVE",
"289 436 CURVE SMOOTH",
"289 424 OFFCURVE",
"265 414 OFFCURVE",
"265 386 CURVE SMOOTH",
"265 364 OFFCURVE",
"279 343 OFFCURVE",
"313 343 CURVE SMOOTH",
"351 343 OFFCURVE",
"365 369 OFFCURVE",
"365 404 CURVE SMOOTH",
"365 456 OFFCURVE",
"335 479 OFFCURVE",
"295 479 CURVE SMOOTH",
"224 479 OFFCURVE",
"189 405 OFFCURVE",
"170 371 CURVE",
"170 288 LINE"
);
}
);
width = 372;
},
{
anchors = (
{
name = bottom;
position = "{157, 0}";
},
{
name = top;
position = "{198, 470}";
}
);
layerId = "705D5379-5CC9-457D-BF30-EC6EB9252852";
paths = (
{
closed = 1;
nodes = (
"298 0 LINE",
"298 33 LINE",
"224 33 OFFCURVE",
"215 42 OFFCURVE",
"215 83 CURVE SMOOTH",
"215 388 LINE",
"212 388 LINE",
"212 475 LINE",
"184 475 LINE",
"40 452 LINE",
"40 418 LINE",
"70 418 LINE SMOOTH",
"92 418 OFFCURVE",
"98 408 OFFCURVE",
"98 372 CURVE SMOOTH",
"98 83 LINE SMOOTH",
"98 44 OFFCURVE",
"93 33 OFFCURVE",
"34 33 CURVE",
"34 0 LINE"
);
},
{
closed = 1;
nodes = (
"215 275 LINE",
"215 369 OFFCURVE",
"275 442 OFFCURVE",
"309 442 CURVE SMOOTH",
"319 442 OFFCURVE",
"322 436 OFFCURVE",
"322 432 CURVE SMOOTH",
"322 422 OFFCURVE",
"298 415 OFFCURVE",
"298 380 CURVE SMOOTH",
"298 347 OFFCURVE",
"320 327 OFFCURVE",
"356 327 CURVE SMOOTH",
"398 327 OFFCURVE",
"421 354 OFFCURVE",
"421 397 CURVE SMOOTH",
"421 439 OFFCURVE",
"398 481 OFFCURVE",
"337 481 CURVE SMOOTH",
"261 481 OFFCURVE",
"226 415 OFFCURVE",
"210 380 CURVE",
"210 272 LINE"
);
}
);
width = 432;
},
{
anchors = (
{
name = bottom;
position = "{169, 0}";
},
{
name = top;
position = "{244, 470}";
}
);
layerId = "C3F6A16D-5E1F-403C-905F-9502D4908E23";
paths = (
{
closed = 1;
nodes = (
"314 0 LINE",
"314 33 LINE",
"253 33 OFFCURVE",
"242 41 OFFCURVE",
"242 83 CURVE SMOOTH",
"242 380 LINE",
"237 380 LINE",
"237 475 LINE",
"184 475 LINE",
"19 449 LINE",
"19 416 LINE",
"54 416 LINE SMOOTH",
"78 416 OFFCURVE",
"83 409 OFFCURVE",
"83 383 CURVE SMOOTH",
"83 83 LINE SMOOTH",
"83 39 OFFCURVE",
"75 33 OFFCURVE",
"19 33 CURVE",
"19 0 LINE"
);
},
{
closed = 1;
nodes = (
"242 268 LINE",
"242 324 OFFCURVE",
"280 418 OFFCURVE",
"313 418 CURVE SMOOTH",
"318 418 OFFCURVE",
"323 416 OFFCURVE",
"323 412 CURVE SMOOTH",
"323 405 OFFCURVE",
"310 400 OFFCURVE",
"310 373 CURVE SMOOTH",
"310 332 OFFCURVE",
"340 309 OFFCURVE",
"382 309 CURVE SMOOTH",
"438 309 OFFCURVE",
"458 351 OFFCURVE",
"458 391 CURVE SMOOTH",
"458 446 OFFCURVE",
"420 479 OFFCURVE",
"367 479 CURVE SMOOTH",
"256 479 OFFCURVE",
"220 335 OFFCURVE",
"211 304 CURVE",
"211 268 LINE"
);
}
);
width = 468;
}
);
leftKerningGroup = m;
note = r;
rightKerningGroup = r;
unicode = 0072;
},
{
glyphname = s;
lastChange = "2015-12-10 09:00:39 +0000";
layers = (
{
anchors = (
{
name = bottom;
position = "{216, 0}";
},
{
name = top;
position = "{216, 467}";
}
);
layerId = "A270BFC0-E682-4EED-9FF7-BE35A5492496";
paths = (
{
closed = 1;
nodes = (
"316 -14 OFFCURVE",
"390 43 OFFCURVE",
"390 131 CURVE SMOOTH",
"390 204 OFFCURVE",
"339 240 OFFCURVE",
"240 269 CURVE SMOOTH",
"216 276 LINE SMOOTH",
"175 288 OFFCURVE",
"118 316 OFFCURVE",
"118 370 CURVE SMOOTH",
"118 419 OFFCURVE",
"163 452 OFFCURVE",
"225 452 CURVE SMOOTH",
"304 452 OFFCURVE",
"328 398 OFFCURVE",
"342 332 CURVE",
"359 332 LINE",
"352 479 LINE",
"336 479 LINE",
"334 473 OFFCURVE",
"333 461 OFFCURVE",
"316 461 CURVE SMOOTH",
"295 461 OFFCURVE",
"279 479 OFFCURVE",
"223 479 CURVE SMOOTH",
"128 479 OFFCURVE",
"61 426 OFFCURVE",
"61 344 CURVE SMOOTH",
"61 273 OFFCURVE",
"112 245 OFFCURVE",
"177 224 CURVE SMOOTH",
"205 215 LINE SMOOTH",
"256 199 OFFCURVE",
"329 176 OFFCURVE",
"329 104 CURVE SMOOTH",
"329 47 OFFCURVE",
"281 16 OFFCURVE",
"219 16 CURVE SMOOTH",
"147 16 OFFCURVE",
"95 57 OFFCURVE",
"69 162 CURVE",
"52 162 LINE",
"63 -3 LINE",
"82 -3 LINE",
"87 9 OFFCURVE",
"90 16 OFFCURVE",
"105 16 CURVE SMOOTH",
"132 16 OFFCURVE",
"152 -9 OFFCURVE",
"217 -11 CURVE SMOOTH"
);
}
);
width = 439;
},
{
anchors = (
{
name = bottom;
position = "{226, 0}";
},
{
name = top;
position = "{226, 470}";
}
);
layerId = "705D5379-5CC9-457D-BF30-EC6EB9252852";
paths = (
{
closed = 1;
nodes = (
"334 -11 OFFCURVE",
"403 49 OFFCURVE",
"403 140 CURVE SMOOTH",
"403 224 OFFCURVE",
"345 258 OFFCURVE",
"263 295 CURVE SMOOTH",
"232 309 LINE SMOOTH",
"197 325 OFFCURVE",
"164 350 OFFCURVE",
"164 385 CURVE SMOOTH",
"164 419 OFFCURVE",
"195 440 OFFCURVE",
"236 440 CURVE SMOOTH",
"295 440 OFFCURVE",
"345 396 OFFCURVE",
"361 332 CURVE",
"386 332 LINE",
"378 479 LINE",
"357 479 LINE",
"355 473 OFFCURVE",
"355 461 OFFCURVE",
"335 461 CURVE SMOOTH",
"310 461 OFFCURVE",
"289 480 OFFCURVE",
"227 480 CURVE SMOOTH",
"128 480 OFFCURVE",
"63 431 OFFCURVE",
"63 340 CURVE SMOOTH",
"63 277 OFFCURVE",
"94 245 OFFCURVE",
"185 200 CURVE SMOOTH",
"205 190 LINE SMOOTH",
"274 156 OFFCURVE",
"300 143 OFFCURVE",
"300 100 CURVE SMOOTH",
"300 56 OFFCURVE",
"272 28 OFFCURVE",
"224 28 CURVE SMOOTH",
"157 28 OFFCURVE",
"97 82 OFFCURVE",
"72 162 CURVE",
"47 162 LINE",
"56 -3 LINE",
"75 -3 LINE",
"82 9 OFFCURVE",
"89 16 OFFCURVE",
"106 16 CURVE SMOOTH",
"138 16 OFFCURVE",
"161 -11 OFFCURVE",
"230 -11 CURVE SMOOTH"
);
}
);
width = 443;
},
{
anchors = (
{
name = bottom;
position = "{228, 0}";
},
{
name = top;
position = "{228, 470}";
}
);
layerId = "C3F6A16D-5E1F-403C-905F-9502D4908E23";
paths = (
{
closed = 1;
nodes = (
"355 -12 OFFCURVE",
"425 60 OFFCURVE",
"425 159 CURVE SMOOTH",
"425 229 OFFCURVE",
"390 276 OFFCURVE",
"287 303 CURVE SMOOTH",
"230 318 LINE SMOOTH",
"193 328 OFFCURVE",
"142 341 OFFCURVE",
"142 385 CURVE SMOOTH",
"142 421 OFFCURVE",
"176 450 OFFCURVE",
"229 450 CURVE SMOOTH",
"294 450 OFFCURVE",
"336 408 OFFCURVE",
"357 333 CURVE",
"390 333 LINE",
"383 479 LINE",
"356 479 LINE",
"352 468 OFFCURVE",
"347 461 OFFCURVE",
"333 461 CURVE SMOOTH",
"308 461 OFFCURVE",
"287 482 OFFCURVE",
"220 482 CURVE SMOOTH",
"101 482 OFFCURVE",
"30 417 OFFCURVE",
"30 324 CURVE SMOOTH",
"30 255 OFFCURVE",
"69 206 OFFCURVE",
"165 182 CURVE SMOOTH",
"241 163 LINE SMOOTH",
"293 150 OFFCURVE",
"314 130 OFFCURVE",
"314 95 CURVE SMOOTH",
"314 40 OFFCURVE",
"264 21 OFFCURVE",
"215 21 CURVE SMOOTH",
"135 21 OFFCURVE",
"81 72 OFFCURVE",
"70 162 CURVE",
"34 162 LINE",
"43 0 LINE",
"70 0 LINE",
"75 5 OFFCURVE",
"82 11 OFFCURVE",
"95 11 CURVE SMOOTH",
"122 11 OFFCURVE",
"145 -12 OFFCURVE",
"221 -12 CURVE SMOOTH"
);
}
);
width = 450;
}
);
leftKerningGroup = s;
note = s;
rightKerningGroup = s;
unicode = 0073;
},
{
glyphname = germandbls;
lastChange = "2015-12-10 09:00:39 +0000";
layers = (
{
anchors = (
{
name = bottom;
position = "{288, 0}";
},
{
name = top;
position = "{288, 500}";
}
);
layerId = "A270BFC0-E682-4EED-9FF7-BE35A5492496";
paths = (
{
closed = 1;
nodes = (
"470 -11 OFFCURVE",
"533 42 OFFCURVE",
"533 123 CURVE SMOOTH",
"533 196 OFFCURVE",
"483 240 OFFCURVE",
"436 275 CURVE SMOOTH",
"385 313 OFFCURVE",
"340 334 OFFCURVE",
"340 388 CURVE SMOOTH",
"340 440 OFFCURVE",
"383 471 OFFCURVE",
"452 481 CURVE",
"468 502 OFFCURVE",
"477 529 OFFCURVE",
"477 556 CURVE SMOOTH",
"477 605 OFFCURVE",
"446 705 OFFCURVE",
"301 705 CURVE SMOOTH",
"156 705 OFFCURVE",
"102 610 OFFCURVE",
"102 451 CURVE SMOOTH",
"102 83 LINE SMOOTH",
"102 34 OFFCURVE",
"99 27 OFFCURVE",
"30 27 CURVE",
"30 0 LINE",
"240 0 LINE",
"240 27 LINE",
"172 27 OFFCURVE",
"168 34 OFFCURVE",
"168 83 CURVE SMOOTH",
"168 424 LINE SMOOTH",
"168 555 OFFCURVE",
"183 678 OFFCURVE",
"290 678 CURVE SMOOTH",
"360 678 OFFCURVE",
"415 626 OFFCURVE",
"415 560 CURVE SMOOTH",
"415 532 OFFCURVE",
"405 504 OFFCURVE",
"394 487 CURVE",
"309 468 OFFCURVE",
"283 424 OFFCURVE",
"283 360 CURVE SMOOTH",
"283 322 OFFCURVE",
"309 281 OFFCURVE",
"388 229 CURVE SMOOTH",
"443 193 OFFCURVE",
"475 157 OFFCURVE",
"475 95 CURVE SMOOTH",
"475 38 OFFCURVE",
"427 16 OFFCURVE",
"394 16 CURVE SMOOTH",
"376 16 OFFCURVE",
"369 23 OFFCURVE",
"369 28 CURVE SMOOTH",
"369 33 OFFCURVE",
"374 38 OFFCURVE",
"374 51 CURVE SMOOTH",
"374 71 OFFCURVE",
"361 83 OFFCURVE",
"340 83 CURVE SMOOTH",
"313 83 OFFCURVE",
"300 65 OFFCURVE",
"300 44 CURVE SMOOTH",
"300 12 OFFCURVE",
"329 -11 OFFCURVE",
"385 -11 CURVE SMOOTH"
);
},
{
closed = 1;
nodes = (
"126 440 LINE",
"126 467 LINE",
"30 467 LINE",
"30 440 LINE"
);
}
);
width = 569;
},
{
anchors = (
{
name = bottom;
position = "{303, 0}";
},
{
name = top;
position = "{303, 500}";
}
);
layerId = "705D5379-5CC9-457D-BF30-EC6EB9252852";
paths = (
{
closed = 1;
nodes = (
"517 -11 OFFCURVE",
"578 43 OFFCURVE",
"578 129 CURVE SMOOTH",
"578 209 OFFCURVE",
"515 255 OFFCURVE",
"472 286 CURVE SMOOTH",
"432 313 OFFCURVE",
"389 345 OFFCURVE",
"389 390 CURVE SMOOTH",
"389 435 OFFCURVE",
"438 466 OFFCURVE",
"492 475 CURVE",
"503 489 OFFCURVE",
"515 520 OFFCURVE",
"515 552 CURVE SMOOTH",
"515 602 OFFCURVE",
"492 704 OFFCURVE",
"312 704 CURVE SMOOTH",
"160 704 OFFCURVE",
"88 625 OFFCURVE",
"88 452 CURVE SMOOTH",
"88 67 LINE SMOOTH",
"88 43 OFFCURVE",
"81 33 OFFCURVE",
"25 33 CURVE",
"25 0 LINE",
"267 0 LINE",
"267 33 LINE",
"212 33 OFFCURVE",
"204 43 OFFCURVE",
"204 82 CURVE SMOOTH",
"204 460 LINE SMOOTH",
"204 595 OFFCURVE",
"240 663 OFFCURVE",
"312 663 CURVE SMOOTH",
"369 663 OFFCURVE",
"409 617 OFFCURVE",
"409 554 CURVE SMOOTH",
"409 532 OFFCURVE",
"405 499 OFFCURVE",
"386 475 CURVE",
"323 458 OFFCURVE",
"288 409 OFFCURVE",
"288 348 CURVE SMOOTH",
"288 295 OFFCURVE",
"321 245 OFFCURVE",
"386 203 CURVE SMOOTH",
"454 160 OFFCURVE",
"482 129 OFFCURVE",
"482 83 CURVE SMOOTH",
"482 50 OFFCURVE",
"461 28 OFFCURVE",
"429 28 CURVE SMOOTH",
"408 28 OFFCURVE",
"392 34 OFFCURVE",
"392 43 CURVE SMOOTH",
"392 49 OFFCURVE",
"399 62 OFFCURVE",
"399 71 CURVE SMOOTH",
"399 89 OFFCURVE",
"384 104 OFFCURVE",
"359 104 CURVE SMOOTH",
"326 104 OFFCURVE",
"311 79 OFFCURVE",
"311 53 CURVE SMOOTH",
"311 16 OFFCURVE",
"350 -11 OFFCURVE",
"416 -11 CURVE SMOOTH"
);
},
{
closed = 1;
nodes = (
"114 427 LINE",
"114 470 LINE",
"25 470 LINE",
"25 427 LINE"
);
}
);
width = 599;
},
{
anchors = (
{
name = bottom;
position = "{334, 0}";
},
{
name = top;
position = "{334, 470}";
}
);
layerId = "C3F6A16D-5E1F-403C-905F-9502D4908E23";
paths = (
{
closed = 1;
nodes = (
"550 -12 OFFCURVE",
"621 44 OFFCURVE",
"621 126 CURVE SMOOTH",
"621 192 OFFCURVE",
"577 233 OFFCURVE",
"506 286 CURVE SMOOTH",
"465 316 OFFCURVE",
"432 342 OFFCURVE",
"432 387 CURVE SMOOTH",
"432 442 OFFCURVE",
"482 476 OFFCURVE",
"531 475 CURVE",
"541 492 OFFCURVE",
"550 514 OFFCURVE",
"550 551 CURVE SMOOTH",
"550 661 OFFCURVE",
"468 704 OFFCURVE",
"340 704 CURVE SMOOTH",
"168 704 OFFCURVE",
"91 626 OFFCURVE",
"91 452 CURVE SMOOTH",
"91 83 LINE SMOOTH",
"91 39 OFFCURVE",
"83 33 OFFCURVE",
"27 33 CURVE",
"27 0 LINE",
"294 0 LINE",
"294 33 LINE",
"257 33 OFFCURVE",
"250 41 OFFCURVE",
"250 83 CURVE SMOOTH",
"250 513 LINE SMOOTH",
"250 641 OFFCURVE",
"286 671 OFFCURVE",
"336 671 CURVE SMOOTH",
"389 671 OFFCURVE",
"415 638 OFFCURVE",
"415 555 CURVE SMOOTH",
"415 523 OFFCURVE",
"411 500 OFFCURVE",
"401 475 CURVE",
"336 450 OFFCURVE",
"301 410 OFFCURVE",
"301 350 CURVE SMOOTH",
"301 303 OFFCURVE",
"322 257 OFFCURVE",
"398 203 CURVE SMOOTH",
"441 172 OFFCURVE",
"488 148 OFFCURVE",
"488 84 CURVE SMOOTH",
"488 49 OFFCURVE",
"476 21 OFFCURVE",
"449 21 CURVE SMOOTH",
"436 21 OFFCURVE",
"417 27 OFFCURVE",
"417 43 CURVE SMOOTH",
"417 58 OFFCURVE",
"436 59 OFFCURVE",
"436 89 CURVE SMOOTH",
"436 124 OFFCURVE",
"411 141 OFFCURVE",
"382 141 CURVE SMOOTH",
"344 141 OFFCURVE",
"323 111 OFFCURVE",
"323 79 CURVE SMOOTH",
"323 29 OFFCURVE",
"369 -12 OFFCURVE",
"447 -12 CURVE SMOOTH"
);
},
{
closed = 1;
nodes = (
"157 437 LINE",
"157 470 LINE",
"27 470 LINE",
"27 437 LINE"
);
}
);
width = 634;
}
);
leftKerningGroup = f;
note = germandbls;
unicode = 00DF;
},
{
glyphname = t;
lastChange = "2015-12-10 09:00:39 +0000";
layers = (
{
anchors = (
{
name = bottom;
position = "{141, 0}";
},
{
name = center;
position = "{141, 234}";
},
{
name = top;
position = "{141, 467}";
},
{
name = topright;
position = "{269, 467}";
}
);
layerId = "A270BFC0-E682-4EED-9FF7-BE35A5492496";
paths = (
{
closed = 1;
nodes = (
"231 -11 OFFCURVE",
"258 14 OFFCURVE",
"279 31 CURVE",
"268 54 LINE",
"256 42 OFFCURVE",
"226 21 OFFCURVE",
"200 21 CURVE SMOOTH",
"178 21 OFFCURVE",
"161 35 OFFCURVE",
"161 89 CURVE SMOOTH",
"161 440 LINE",
"274 440 LINE",
"274 467 LINE",
"161 467 LINE",
"161 616 LINE",
"140 616 LINE",
"130 535 OFFCURVE",
"90 467 OFFCURVE",
"13 467 CURVE",
"13 440 LINE",
"95 440 LINE",
"95 86 LINE SMOOTH",
"95 -2 OFFCURVE",
"151 -11 OFFCURVE",
"181 -11 CURVE SMOOTH"
);
}
);
width = 295;
},
{
anchors = (
{
name = bottom;
position = "{178, 0}";
},
{
name = center;
position = "{146, 235}";
},
{
name = top;
position = "{146, 470}";
},
{
name = topright;
position = "{291, 503}";
}
);
layerId = "705D5379-5CC9-457D-BF30-EC6EB9252852";
paths = (
{
closed = 1;
nodes = (
"244 -11 OFFCURVE",
"283 17 OFFCURVE",
"314 37 CURVE",
"303 62 LINE",
"289 56 OFFCURVE",
"269 52 OFFCURVE",
"253 52 CURVE SMOOTH",
"205 52 OFFCURVE",
"183 81 OFFCURVE",
"183 141 CURVE SMOOTH",
"183 430 LINE",
"290 430 LINE",
"290 470 LINE",
"183 470 LINE",
"183 627 LINE",
"141 627 LINE",
"118 536 OFFCURVE",
"80 485 OFFCURVE",
"9 463 CURVE",
"9 430 LINE",
"68 430 LINE",
"68 106 LINE SMOOTH",
"68 31 OFFCURVE",
"112 -11 OFFCURVE",
"185 -11 CURVE SMOOTH"
);
}
);
width = 316;
},
{
anchors = (
{
name = bottom;
position = "{185, 0}";
},
{
name = center;
position = "{185, 235}";
},
{
name = top;
position = "{185, 470}";
},
{
name = topright;
position = "{386, 470}";
}
);
layerId = "C3F6A16D-5E1F-403C-905F-9502D4908E23";
paths = (
{
closed = 1;
nodes = (
"300 -12 OFFCURVE",
"336 23 OFFCURVE",
"359 40 CURVE",
"338 71 LINE",
"332 66 OFFCURVE",
"308 46 OFFCURVE",
"279 46 CURVE SMOOTH",
"242 46 OFFCURVE",
"231 78 OFFCURVE",
"231 141 CURVE SMOOTH",
"231 437 LINE",
"323 437 LINE",
"323 470 LINE",
"231 470 LINE",
"231 660 LINE",
"204 660 LINE",
"180 574 OFFCURVE",
"96 479 OFFCURVE",
"11 470 CURVE",
"11 437 LINE",
"72 437 LINE",
"72 154 LINE SMOOTH",
"72 27 OFFCURVE",
"123 -12 OFFCURVE",
"214 -12 CURVE SMOOTH"
);
}
);
width = 352;
}
);
leftKerningGroup = t;
note = t;
rightKerningGroup = t;
unicode = 0074;
},
{
glyphname = u;
lastChange = "2015-12-10 09:00:40 +0000";
layers = (
{
anchors = (
{
name = bottom;
position = "{270, 0}";
},
{
name = ogonek;
position = "{481, 10}";
},
{
name = top;
position = "{270, 467}";
},
{
name = topright;
position = "{514, 467}";
}
);
layerId = "A270BFC0-E682-4EED-9FF7-BE35A5492496";
paths = (
{
closed = 1;
nodes = (
"326 -12 OFFCURVE",
"371 36 OFFCURVE",
"411 106 CURVE",
"411 149 LINE",
"376 88 OFFCURVE",
"338 26 OFFCURVE",
"261 26 CURVE SMOOTH",
"188 26 OFFCURVE",
"166 82 OFFCURVE",
"166 140 CURVE SMOOTH",
"166 473 LINE",
"139 473 LINE",
"33 455 LINE",
"33 428 LINE",
"70 428 LINE SMOOTH",
"94 428 OFFCURVE",
"100 420 OFFCURVE",
"100 386 CURVE SMOOTH",
"100 131 LINE SMOOTH",
"100 35 OFFCURVE",
"141 -12 OFFCURVE",
"233 -12 CURVE SMOOTH"
);
},
{
closed = 1;
nodes = (
"527 0 LINE",
"527 27 LINE",
"459 27 OFFCURVE",
"456 33 OFFCURVE",
"456 83 CURVE SMOOTH",
"456 473 LINE",
"429 473 LINE",
"323 455 LINE",
"323 428 LINE",
"360 428 LINE SMOOTH",
"384 428 OFFCURVE",
"390 420 OFFCURVE",
"390 386 CURVE SMOOTH",
"389 71 LINE",
"391 71 LINE",
"391 0 LINE"
);
}
);
width = 571;
},
{
anchors = (
{
name = bottom;
position = "{292, 0}";
},
{
name = ogonek;
position = "{526, 10}";
},
{
name = top;
position = "{292, 470}";
},
{
name = topright;
position = "{565, 470}";
}
);
layerId = "705D5379-5CC9-457D-BF30-EC6EB9252852";
paths = (
{
closed = 1;
nodes = (
"301 -11 OFFCURVE",
"372 52 OFFCURVE",
"392 70 CURVE",
"392 112 LINE",
"370 88 OFFCURVE",
"328 54 OFFCURVE",
"287 54 CURVE SMOOTH",
"231 54 OFFCURVE",
"200 92 OFFCURVE",
"200 159 CURVE SMOOTH",
"200 475 LINE",
"171 475 LINE",
"25 457 LINE",
"25 424 LINE",
"55 424 LINE SMOOTH",
"79 424 OFFCURVE",
"85 415 OFFCURVE",
"85 378 CURVE SMOOTH",
"85 130 LINE SMOOTH",
"85 38 OFFCURVE",
"130 -11 OFFCURVE",
"216 -11 CURVE SMOOTH"
);
},
{
closed = 1;
nodes = (
"569 0 LINE",
"569 33 LINE",
"513 33 OFFCURVE",
"505 43 OFFCURVE",
"505 83 CURVE SMOOTH",
"505 475 LINE",
"476 475 LINE",
"330 457 LINE",
"330 424 LINE",
"360 424 LINE SMOOTH",
"384 424 OFFCURVE",
"389 415 OFFCURVE",
"389 378 CURVE SMOOTH",
"389 69 LINE",
"392 69 LINE",
"392 0 LINE"
);
}
);
width = 603;
},
{
anchors = (
{
name = bottom;
position = "{313, 0}";
},
{
name = ogonek;
position = "{561, 10}";
},
{
name = top;
position = "{313, 470}";
},
{
name = topright;
position = "{603, 470}";
}
);
layerId = "C3F6A16D-5E1F-403C-905F-9502D4908E23";
paths = (
{
closed = 1;
nodes = (
"334 -12 OFFCURVE",
"380 43 OFFCURVE",
"408 78 CURVE",
"402 106 LINE",
"361 65 OFFCURVE",
"341 47 OFFCURVE",
"307 47 CURVE SMOOTH",
"266 47 OFFCURVE",
"242 72 OFFCURVE",
"242 152 CURVE SMOOTH",
"242 475 LINE",
"187 475 LINE",
"19 449 LINE",
"19 416 LINE",
"54 416 LINE SMOOTH",
"78 416 OFFCURVE",
"83 409 OFFCURVE",
"83 383 CURVE SMOOTH",
"83 152 LINE SMOOTH",
"83 34 OFFCURVE",
"142 -12 OFFCURVE",
"234 -12 CURVE SMOOTH"
);
},
{
closed = 1;
nodes = (
"607 0 LINE",
"607 33 LINE",
"556 33 OFFCURVE",
"549 35 OFFCURVE",
"549 64 CURVE SMOOTH",
"549 475 LINE",
"494 475 LINE",
"326 449 LINE",
"326 416 LINE",
"361 416 LINE SMOOTH",
"385 416 OFFCURVE",
"390 409 OFFCURVE",
"390 383 CURVE SMOOTH",
"390 61 LINE",
"395 61 LINE",
"395 0 LINE"
);
}
);
width = 627;
}
);
leftKerningGroup = u;
note = u;
rightKerningGroup = u;
unicode = 0075;
},
{
glyphname = v;
lastChange = "2015-12-10 09:00:39 +0000";
layers = (
{
anchors = (
{
name = bottom;
position = "{229, 0}";
},
{
name = top;
position = "{229, 467}";
}
);
layerId = "A270BFC0-E682-4EED-9FF7-BE35A5492496";
paths = (
{
closed = 1;
nodes = (
"240 0 LINE",
"394 399 LINE SMOOTH",
"408 432 OFFCURVE",
"419 440 OFFCURVE",
"463 440 CURVE",
"463 467 LINE",
"304 467 LINE",
"304 440 LINE",
"351 440 LINE SMOOTH",
"366 440 OFFCURVE",
"369 423 OFFCURVE",
"365 409 CURVE SMOOTH",
"246 86 LINE",
"244 86 LINE",
"129 407 LINE SMOOTH",
"123 425 OFFCURVE",
"126 440 OFFCURVE",
"145 440 CURVE SMOOTH",
"188 440 LINE",
"188 467 LINE",
"-6 467 LINE",
"-6 440 LINE",
"39 440 OFFCURVE",
"47 432 OFFCURVE",
"62 397 CURVE SMOOTH",
"207 0 LINE"
);
}
);
width = 467;
},
{
anchors = (
{
name = bottom;
position = "{258, 0}";
},
{
name = top;
position = "{258, 470}";
}
);
layerId = "705D5379-5CC9-457D-BF30-EC6EB9252852";
paths = (
{
closed = 1;
nodes = (
"296 0 LINE",
"459 396 LINE SMOOTH",
"470 424 OFFCURVE",
"482 437 OFFCURVE",
"525 437 CURVE",
"525 470 LINE",
"343 470 LINE",
"343 437 LINE",
"382 437 LINE SMOOTH",
"402 437 OFFCURVE",
"405 425 OFFCURVE",
"400 408 CURVE SMOOTH",
"295 111 LINE",
"292 111 LINE",
"178 410 LINE SMOOTH",
"173 426 OFFCURVE",
"176 437 OFFCURVE",
"195 437 CURVE SMOOTH",
"230 437 LINE",
"230 470 LINE",
"0 470 LINE",
"0 437 LINE",
"42 437 OFFCURVE",
"53 428 OFFCURVE",
"65 400 CURVE SMOOTH",
"222 0 LINE"
);
}
);
width = 534;
},
{
anchors = (
{
name = bottom;
position = "{252, 0}";
},
{
name = top;
position = "{252, 470}";
}
);
layerId = "C3F6A16D-5E1F-403C-905F-9502D4908E23";
paths = (
{
closed = 1;
nodes = (
"284 0 LINE",
"452 396 LINE SMOOTH",
"466 430 OFFCURVE",
"480 437 OFFCURVE",
"510 437 CURVE",
"510 470 LINE",
"362 470 LINE",
"362 437 LINE",
"398 437 LINE SMOOTH",
"417 437 OFFCURVE",
"421 423 OFFCURVE",
"415 408 CURVE SMOOTH",
"311 159 LINE",
"309 159 LINE",
"209 410 LINE SMOOTH",
"202 428 OFFCURVE",
"208 437 OFFCURVE",
"226 437 CURVE SMOOTH",
"267 437 LINE",
"267 470 LINE",
"-7 470 LINE",
"-7 437 LINE",
"25 437 OFFCURVE",
"37 430 OFFCURVE",
"49 400 CURVE SMOOTH",
"213 0 LINE"
);
}
);
width = 516;
}
);
leftKerningGroup = v;
note = v;
rightKerningGroup = v;
unicode = 0076;
},
{
glyphname = w;
lastChange = "2015-12-10 09:00:39 +0000";
layers = (
{
anchors = (
{
name = bottom;
position = "{342, 0}";
},
{
name = top;
position = "{342, 467}";
}
);
layerId = "A270BFC0-E682-4EED-9FF7-BE35A5492496";
paths = (
{
closed = 1;
nodes = (
"225 0 LINE",
"337 373 LINE",
"340 373 LINE",
"457 0 LINE",
"500 0 LINE",
"611 384 LINE SMOOTH",
"625 432 OFFCURVE",
"633 440 OFFCURVE",
"685 440 CURVE",
"685 467 LINE",
"517 467 LINE",
"517 440 LINE",
"561 440 LINE SMOOTH",
"589 440 OFFCURVE",
"590 426 OFFCURVE",
"584 404 CURVE SMOOTH",
"499 75 LINE",
"497 75 LINE",
"377 456 LINE",
"335 456 LINE",
"224 75 LINE",
"222 75 LINE",
"128 408 LINE SMOOTH",
"122 428 OFFCURVE",
"129 440 OFFCURVE",
"145 440 CURVE SMOOTH",
"178 440 LINE",
"178 467 LINE",
"-3 467 LINE",
"-3 440 LINE",
"36 440 OFFCURVE",
"49 435 OFFCURVE",
"60 399 CURVE SMOOTH",
"182 0 LINE"
);
}
);
width = 692;
},
{
anchors = (
{
name = bottom;
position = "{352, 0}";
},
{
name = top;
position = "{352, 470}";
}
);
layerId = "705D5379-5CC9-457D-BF30-EC6EB9252852";
paths = (
{
closed = 1;
nodes = (
"257 0 LINE",
"349 285 LINE",
"354 285 LINE",
"455 0 LINE",
"529 0 LINE",
"652 396 LINE SMOOTH",
"660 423 OFFCURVE",
"674 437 OFFCURVE",
"719 437 CURVE",
"719 470 LINE",
"537 470 LINE",
"537 437 LINE",
"575 437 LINE SMOOTH",
"595 437 OFFCURVE",
"603 430 OFFCURVE",
"598 404 CURVE",
"523 126 LINE",
"521 126 LINE",
"417 467 LINE",
"345 467 LINE",
"250 126 LINE",
"248 126 LINE",
"175 402 LINE SMOOTH",
"168 431 OFFCURVE",
"175 437 OFFCURVE",
"193 437 CURVE SMOOTH",
"221 437 LINE",
"221 470 LINE",
"0 470 LINE",
"0 437 LINE",
"35 437 OFFCURVE",
"50 431 OFFCURVE",
"59 400 CURVE SMOOTH",
"183 0 LINE"
);
}
);
width = 729;
},
{
anchors = (
{
name = bottom;
position = "{366, 0}";
},
{
name = top;
position = "{366, 470}";
}
);
layerId = "C3F6A16D-5E1F-403C-905F-9502D4908E23";
paths = (
{
closed = 1;
nodes = (
"240 0 LINE",
"368 351 LINE",
"373 351 LINE",
"491 0 LINE",
"554 0 LINE",
"683 396 LINE SMOOTH",
"692 423 OFFCURVE",
"705 437 OFFCURVE",
"739 437 CURVE",
"739 470 LINE",
"595 470 LINE",
"595 437 LINE",
"614 437 LINE SMOOTH",
"634 437 OFFCURVE",
"645 430 OFFCURVE",
"637 404 CURVE SMOOTH",
"575 188 LINE",
"573 188 LINE",
"480 467 LINE",
"374 467 LINE",
"271 184 LINE",
"269 184 LINE",
"206 402 LINE SMOOTH",
"199 428 OFFCURVE",
"206 437 OFFCURVE",
"224 437 CURVE SMOOTH",
"252 437 LINE",
"252 470 LINE",
"-7 470 LINE",
"-7 437 LINE",
"22 437 OFFCURVE",
"33 431 OFFCURVE",
"42 400 CURVE SMOOTH",
"177 0 LINE"
);
}
);
width = 745;
}
);
leftKerningGroup = v;
note = w;
rightKerningGroup = v;
unicode = 0077;
},
{
glyphname = x;
lastChange = "2015-12-10 09:00:39 +0000";
layers = (
{
anchors = (
{
name = bottom;
position = "{241, 0}";
},
{
name = top;
position = "{241, 467}";
}
);
layerId = "A270BFC0-E682-4EED-9FF7-BE35A5492496";
paths = (
{
closed = 1;
nodes = (
"471 0 LINE",
"471 27 LINE",
"420 27 OFFCURVE",
"409 39 OFFCURVE",
"389 68 CURVE SMOOTH",
"155 413 LINE SMOOTH",
"145 428 OFFCURVE",
"151 440 OFFCURVE",
"166 440 CURVE SMOOTH",
"192 440 LINE",
"192 467 LINE",
"17 467 LINE",
"17 440 LINE",
"56 440 OFFCURVE",
"65 435 OFFCURVE",
"87 404 CURVE SMOOTH",
"317 59 LINE SMOOTH",
"330 39 OFFCURVE",
"325 27 OFFCURVE",
"310 27 CURVE SMOOTH",
"270 27 LINE",
"270 0 LINE"
);
},
{
closed = 1;
nodes = (
"168 0 LINE",
"168 27 LINE",
"135 27 LINE SMOOTH",
"117 27 OFFCURVE",
"112 41 OFFCURVE",
"121 55 CURVE SMOOTH",
"220 208 LINE",
"225 250 LINE",
"98 69 LINE SMOOTH",
"74 35 OFFCURVE",
"52 27 OFFCURVE",
"10 27 CURVE",
"10 0 LINE"
);
},
{
closed = 1;
nodes = (
"363 404 LINE SMOOTH",
"386 435 OFFCURVE",
"397 440 OFFCURVE",
"446 440 CURVE",
"446 467 LINE",
"293 467 LINE",
"293 440 LINE",
"329 440 LINE SMOOTH",
"344 440 OFFCURVE",
"347 429 OFFCURVE",
"337 414 CURVE SMOOTH",
"245 279 LINE",
"241 241 LINE"
);
}
);
width = 481;
},
{
anchors = (
{
name = bottom;
position = "{251, 0}";
},
{
name = top;
position = "{251, 470}";
}
);
layerId = "705D5379-5CC9-457D-BF30-EC6EB9252852";
paths = (
{
closed = 1;
nodes = (
"509 0 LINE",
"509 33 LINE",
"464 33 OFFCURVE",
"448 45 OFFCURVE",
"427 77 CURVE SMOOTH",
"203 411 LINE SMOOTH",
"194 425 OFFCURVE",
"198 437 OFFCURVE",
"214 437 CURVE SMOOTH",
"230 437 LINE",
"230 470 LINE",
"10 470 LINE",
"10 437 LINE",
"50 437 OFFCURVE",
"63 430 OFFCURVE",
"79 406 CURVE SMOOTH",
"301 66 LINE SMOOTH",
"313 47 OFFCURVE",
"310 33 OFFCURVE",
"288 33 CURVE SMOOTH",
"269 33 LINE",
"269 0 LINE"
);
},
{
closed = 1;
nodes = (
"192 0 LINE",
"192 33 LINE",
"170 33 LINE SMOOTH",
"148 33 OFFCURVE",
"143 51 OFFCURVE",
"156 70 CURVE SMOOTH",
"235 183 LINE",
"215 219 LINE",
"103 77 LINE SMOOTH",
"77 43 OFFCURVE",
"49 33 OFFCURVE",
"10 33 CURVE",
"10 0 LINE"
);
},
{
closed = 1;
nodes = (
"392 405 LINE SMOOTH",
"409 428 OFFCURVE",
"432 437 OFFCURVE",
"472 437 CURVE",
"472 470 LINE",
"308 470 LINE",
"308 437 LINE",
"332 437 LINE SMOOTH",
"342 437 OFFCURVE",
"353 430 OFFCURVE",
"342 413 CURVE SMOOTH",
"263 294 LINE",
"284 261 LINE"
);
}
);
width = 519;
},
{
anchors = (
{
name = bottom;
position = "{289, 0}";
},
{
name = top;
position = "{289, 470}";
}
);
layerId = "C3F6A16D-5E1F-403C-905F-9502D4908E23";
paths = (
{
closed = 1;
nodes = (
"568 0 LINE",
"568 33 LINE",
"532 33 OFFCURVE",
"515 45 OFFCURVE",
"494 77 CURVE SMOOTH",
"278 396 LINE SMOOTH",
"258 425 OFFCURVE",
"266 437 OFFCURVE",
"288 437 CURVE SMOOTH",
"307 437 LINE",
"307 470 LINE",
"22 470 LINE",
"22 437 LINE",
"62 437 OFFCURVE",
"75 430 OFFCURVE",
"91 406 CURVE SMOOTH",
"313 66 LINE SMOOTH",
"325 47 OFFCURVE",
"322 33 OFFCURVE",
"300 33 CURVE SMOOTH",
"275 33 LINE",
"275 0 LINE"
);
},
{
closed = 1;
nodes = (
"189 0 LINE",
"189 33 LINE",
"166 33 LINE SMOOTH",
"144 33 OFFCURVE",
"139 51 OFFCURVE",
"152 70 CURVE SMOOTH",
"237 191 LINE",
"219 224 LINE",
"103 77 LINE SMOOTH",
"75 42 OFFCURVE",
"49 33 OFFCURVE",
"10 33 CURVE",
"10 0 LINE"
);
},
{
closed = 1;
nodes = (
"440 405 LINE SMOOTH",
"457 428 OFFCURVE",
"484 437 OFFCURVE",
"524 437 CURVE",
"524 470 LINE",
"365 470 LINE",
"365 437 LINE",
"388 437 LINE SMOOTH",
"403 437 OFFCURVE",
"407 426 OFFCURVE",
"395 409 CURVE SMOOTH",
"315 291 LINE",
"336 261 LINE"
);
}
);
width = 578;
}
);
unicode = 0078;
},
